<svg viewBox="0 0 330 200" xmlns="http://www.w3.org/2000/svg"><g><g><g><g><g><line x1="80" y1="178" x2="75" y2="178" style="visibility: inherit;" fill="rgb(0, 0, 0)" stroke="rgb(204, 204, 204)" stroke-width="1px"></line><line x1="80" y1="160.20000000000002" x2="75" y2="160.20000000000002" style="visibility: inherit;" fill="rgb(0, 0, 0)" stroke="rgb(204, 204, 204)" stroke-width="1px"></line><line x1="80" y1="142.4" x2="75" y2="142.4" style="visibility: inherit;" fill="rgb(0, 0, 0)" stroke="rgb(204, 204, 204)" stroke-width="1px"></line><line x1="80" y1="124.6" x2="75" y2="124.6" style="visibility: inherit;" fill="rgb(0, 0, 0)" stroke="rgb(204, 204, 204)" stroke-width="1px"></line><line x1="80" y1="106.8" x2="75" y2="106.8" style="visibility: inherit;" fill="rgb(0, 0, 0)" stroke="rgb(204, 204, 204)" stroke-width="1px"></line><line x1="80" y1="89" x2="75" y2="89" style="visibility: inherit;" fill="rgb(0, 0, 0)" stroke="rgb(204, 204, 204)" stroke-width="1px"></line><line x1="80" y1="71.2" x2="75" y2="71.2" style="visibility: inherit;" fill="rgb(0, 0, 0)" stroke="rgb(204, 204, 204)" stroke-width="1px"></line><line x1="80" y1="53.400000000000006" x2="75" y2="53.400000000000006" style="visibility: inherit;" fill="rgb(0, 0, 0)" stroke="rgb(204, 204, 204)" stroke-width="1px"></line><line x1="80" y1="35.599999999999994" x2="75" y2="35.599999999999994" style="visibility: inherit;" fill="rgb(0, 0, 0)" stroke="rgb(204, 204, 204)" stroke-width="1px"></line><line x1="80" y1="17.799999999999997" x2="75" y2="17.799999999999997" style="visibility: inherit;" fill="rgb(0, 0, 0)" stroke="rgb(204, 204, 204)" stroke-width="1px"></line><line x1="80" y1="0" x2="75" y2="0" style="visibility: inherit;" fill="rgb(0, 0, 0)" stroke="rgb(204, 204, 204)" stroke-width="1px"></line></g><g transform="translate(70, 0)"><text x="0" y="178" dx="0em" dy="0.3em" style="text-anchor: end; visibility: hidden; font-family: Roboto, sans-serif; font-size: 12px; font-weight: 200;" fill="rgb(50, 49, 63)" stroke="none" stroke-width="1px">-1.4e+3</text><text x="0" y="160.20000000000002" dx="0em" dy="0.3em" style="text-anchor: end; visibility: inherit; font-family: Roboto, sans-serif; font-size: 12px; font-weight: 200;" fill="rgb(50, 49, 63)" stroke="none" stroke-width="1px">-1.2e+3</text><text x="0" y="142.4" dx="0em" dy="0.3em" style="text-anchor: end; visibility: hidden; font-family: Roboto, sans-serif; font-size: 12px; font-weight: 200;" fill="rgb(50, 49, 63)" stroke="none" stroke-width="1px">-1e+3</text><text x="0" y="124.6" dx="0em" dy="0.3em" style="text-anchor: end; visibility: inherit; font-family: Roboto, sans-serif; font-size: 12px; font-weight: 200;" fill="rgb(50, 49, 63)" stroke="none" stroke-width="1px">-800</text><text x="0" y="106.8" dx="0em" dy="0.3em" style="text-anchor: end; visibility: hidden; font-family: Roboto, sans-serif; font-size: 12px; font-weight: 200;" fill="rgb(50, 49, 63)" stroke="none" stroke-width="1px">-600</text><text x="0" y="89" dx="0em" dy="0.3em" style="text-anchor: end; visibility: inherit; font-family: Roboto, sans-serif; font-size: 12px; font-weight: 200;" fill="rgb(50, 49, 63)" stroke="none" stroke-width="1px">-400</text><text x="0" y="71.2" dx="0em" dy="0.3em" style="text-anchor: end; visibility: hidden; font-family: Roboto, sans-serif; font-size: 12px; font-weight: 200;" fill="rgb(50, 49, 63)" stroke="none" stroke-width="1px">-200</text><text x="0" y="53.400000000000006" dx="0em" dy="0.3em" style="text-anchor: end; visibility: inherit; font-family: Roboto, sans-serif; font-size: 12px; font-weight: 200;" fill="rgb(50, 49, 63)" stroke="none" stroke-width="1px">0</text><text x="0" y="35.599999999999994" dx="0em" dy="0.3em" style="text-anchor: end; visibility: hidden; font-family: Roboto, sans-serif; font-size: 12px; font-weight: 200;" fill="rgb(50, 49, 63)" stroke="none" stroke-width="1px">200</text><text x="0" y="17.799999999999997" dx="0em" dy="0.3em" style="text-anchor: end; visibility: inherit; font-family: Roboto, sans-serif; font-size: 12px; font-weight: 200;" fill="rgb(50, 49, 63)" stroke="none" stroke-width="1px">400</text><text x="0" y="0" dx="0em" dy="0.3em" style="text-anchor: end; visibility: hidden; font-family: Roboto, sans-serif; font-size: 12px; font-weight: 200;" fill="rgb(50, 49, 63)" stroke="none" stroke-width="1px">600</text></g><line x1="80" y1="0" x2="80" y2="178" fill="rgb(0, 0, 0)" stroke="rgb(204, 204, 204)" stroke-width="1px"></line></g></g><g transform="translate(80, 0)" clip-path="url(#clip_0)"><clipPath id="clip_0"><rect width="250" height="178"></rect></clipPath><g><g><g><line x1="0" y1="0" x2="0" y2="178" fill="rgb(0, 0, 0)" stroke="rgb(60, 60, 60)" stroke-width="1px" opacity="0.25"></line><line x1="31.25" y1="0" x2="31.25" y2="178" fill="rgb(0, 0, 0)" stroke="rgb(60, 60, 60)" stroke-width="1px" opacity="0.25"></line><line x1="62.5" y1="0" x2="62.5" y2="178" fill="rgb(0, 0, 0)" stroke="rgb(60, 60, 60)" stroke-width="1px" opacity="0.25"></line><line x1="93.75" y1="0" x2="93.75" y2="178" fill="rgb(0, 0, 0)" stroke="rgb(60, 60, 60)" stroke-width="1px" opacity="0.25"></line><line x1="125" y1="0" x2="125" y2="178" fill="rgb(0, 0, 0)" stroke="rgb(60, 60, 60)" stroke-width="1px" opacity="0.25"></line><line x1="156.25" y1="0" x2="156.25" y2="178" fill="rgb(0, 0, 0)" stroke="rgb(60, 60, 60)" stroke-width="1px" opacity="0.25"></line><line x1="187.5" y1="0" x2="187.5" y2="178" fill="rgb(0, 0, 0)" stroke="rgb(60, 60, 60)" stroke-width="1px" opacity="0.25"></line><line x1="218.75" y1="0" x2="218.75" y2="178" fill="rgb(0, 0, 0)" stroke="rgb(60, 60, 60)" stroke-width="1px" opacity="0.25"></line><line x1="250" y1="0" x2="250" y2="178" fill="rgb(0, 0, 0)" stroke="rgb(60, 60, 60)" stroke-width="1px" opacity="0.25"></line></g><g><line x1="0" y1="178" x2="250" y2="178" fill="rgb(0, 0, 0)" stroke="rgb(60, 60, 60)" stroke-width="1px" opacity="0.25"></line><line x1="0" y1="160.20000000000002" x2="250" y2="160.20000000000002" fill="rgb(0, 0, 0)" stroke="rgb(60, 60, 60)" stroke-width="1px" opacity="0.25"></line><line x1="0" y1="142.4" x2="250" y2="142.4" fill="rgb(0, 0, 0)" stroke="rgb(60, 60, 60)" stroke-width="1px" opacity="0.25"></line><line x1="0" y1="124.6" x2="250" y2="124.6" fill="rgb(0, 0, 0)" stroke="rgb(60, 60, 60)" stroke-width="1px" opacity="0.25"></line><line x1="0" y1="106.8" x2="250" y2="106.8" fill="rgb(0, 0, 0)" stroke="rgb(60, 60, 60)" stroke-width="1px" opacity="0.25"></line><line x1="0" y1="89" x2="250" y2="89" fill="rgb(0, 0, 0)" stroke="rgb(60, 60, 60)" stroke-width="1px" opacity="0.25"></line><line x1="0" y1="71.2" x2="250" y2="71.2" fill="rgb(0, 0, 0)" stroke="rgb(60, 60, 60)" stroke-width="1px" opacity="0.25"></line><line x1="0" y1="53.400000000000006" x2="250" y2="53.400000000000006" fill="rgb(0, 0, 0)" stroke="rgb(60, 60, 60)" stroke-width="1px" opacity="0.25"></line><line x1="0" y1="35.599999999999994" x2="250" y2="35.599999999999994" fill="rgb(0, 0, 0)" stroke="rgb(60, 60, 60)" stroke-width="1px" opacity="0.25"></line><line x1="0" y1="17.799999999999997" x2="250" y2="17.799999999999997" fill="rgb(0, 0, 0)" stroke="rgb(60, 60, 60)" stroke-width="1px" opacity="0.25"></line><line x1="0" y1="0" x2="250" y2="0" fill="rgb(0, 0, 0)" stroke="rgb(60, 60, 60)" stroke-width="1px" opacity="0.25"></line></g></g></g><g><g><line x1="0" y1="53.400000000000006" x2="250" y2="53.400000000000006" fill="rgb(0, 0, 0)" stroke="rgb(153, 153, 153)" stroke-width="1.5px"></line></g></g><g><g><line x1="31.25" y1="0" x2="31.25" y2="178" fill="rgb(0, 0, 0)" stroke="rgb(153, 153, 153)" stroke-width="1.5px"></line></g></g><g><g><g><g><g><path stroke="rgb(0, 153, 136)" stroke-width="2px" d="M31.75,142.4L32.25,142.4L32.75,142.4L33.25,142.4L33.75,142.4L34.25,142.4L34.75,142.4L35.25,142.4L35.75,142.4L36.25,142.4L36.75,142.4L37.25,142.4L37.75,142.4L38.25,142.4L38.75,142.4L39.25,142.4L39.75,142.4L40.25,142.4L40.75,142.00868142445893L41.25,136.96064555750664L41.75,133.6900173959678L42.25,130.78575085919147L42.75,126.86102713678225L43.25,122.27134061222759L43.75,117.29733607002333L44.25,111.57930846204052L44.75,106.65480382328195L45.25,103.42252956879226L45.75,103.26522772993347L46.25,107.63948562024413L46.75,109.66868629458193L47.25,109.40871539792145L47.75,107.64606283512714L48.25,105.34888124190063L48.75,103.14851372376425L49.25,101.36628924399365L49.75,97.839233334925L50.25,92.77513086642692L50.75,87.90274914851761L51.25,81.56377757225961L51.75,75.46403091097427L52.25,70.31779072585827L52.75,63.78109227290868L53.25,58.333726299986544L53.75,54.413428113270484L54.25,51.03395047507461L54.75,47.979636186063665L55.25,45.46537328926807L55.75,43.381393559660125L56.25,40.28811663730352L56.75,37.78275503104082L57.25,34.803060250851075L57.75,32.77022707554492L58.25,31.385696555016803L58.75,29.925208575595455L59.25,28.898580255589852L59.75,27.691245920639343L60.25,26.85297650109564L60.75,26.17664156567356L61.25,25.69184630193689L61.75,25.319543120450785L62.25,25.04844358755936L62.75,24.843015800206953L63.25,24.683396758065193L63.75,24.57281424180431L64.25,24.47282217849384L64.75,24.39628314568744L65.25,24.322102818249185L65.75,24.265632157475473L66.25,24.219020672223802L66.75,24.185030453218204L67.25,24.14395062138069L67.75,24.1102264479672L68.25,24.08402313476711L68.75,24.062926616329083L69.25,24.044569492303125L69.75,24.027831658942116L70.25,24.012332424760118L70.75,23.995690231557067L71.25,23.985234017119268L71.75,23.966586103054226L72.25,23.957919194193213L72.75,23.956477172016882L73.25,23.955644083443506L73.75,23.95925543150108L74.25,23.957266569417385L74.75,23.961144306318392L75.25,23.963482121822466L75.75,23.966699759667502L76.25,23.96977908586611L76.75,23.968013370102174L77.25,23.97113892652152L77.75,23.969142165010936L78.25,23.97353583288802L78.75,23.975668756820806L79.25,23.97429554191989L79.75,23.981300798273463L80.25,23.98565281767183L80.75,23.986758720187286L81.25,23.980523871384495L81.75,23.979123356352464L82.25,23.978233987650775L82.75,23.97577902927113L83.25,23.975471241631762L83.75,23.97393236262425L84.25,23.974543253011767L84.75,23.971756403928193L85.25,23.96389487533142L85.75,23.953403676089753L86.25,23.945761182692095L86.75,23.933618359665743L87.25,23.92242369608681L87.75,23.91860561463457L88.25,23.914794933400398L88.75,23.909479437155955L89.25,23.903182128402054L89.75,23.900167473306105L90.25,23.89518041528047L90.75,23.88774024894549L91.25,23.880237287761997L91.75,23.87393172633697L92.25,23.86566202722103L92.75,23.855298315904857L93.25,23.847014701284465L93.75,23.844663271549518L94.25,23.84165288004222L94.75,23.839729871931432L95.25,23.830275077128746L95.75,23.826023193338806L96.25,23.822687647447605L96.75,23.81837222249917L97.25,23.81050013279664L97.75,23.80416570812253L98.25,23.80447701753527L98.75,23.802523798769098L99.25,23.8012915749227L99.75,23.798906999143657L100.25,23.792723972749783L100.75,23.784147430240285L101.25,23.77305905432697L101.75,23.75996250060232L102.25,23.747645022655924L102.75,23.736049410227917L103.25,23.724029567632382L103.75,23.712559899083594L104.25,23.704479348785867L104.75,23.69027535922418L105.25,23.675543265785087L105.75,23.660726139744366L106.25,23.64892954050747L106.75,23.63902045064727L107.25,23.63189666022256L107.75,23.628144717464835L108.25,23.624826239807845L108.75,23.622826922926738L109.25,23.6163667581659L109.75,23.610335385854004L110.25,23.60163913472089L110.75,23.594675047971023L111.25,23.588413695733653L111.75,23.58346242835103L112.25,23.580178478766793L112.75,23.5779586981862L113.25,23.573627258885576L113.75,23.57130903016413L114.25,23.561704254476023L114.75,23.5556983402989L115.25,23.549097048927752L115.75,23.543667366220795L116.25,23.538592474795472L116.75,23.53699233772996L117.25,23.533913316099017L117.75,23.529239244847776L118.25,23.52346656972387L118.75,23.519189529563867L119.25,23.51488067160269L119.75,23.511651614651683L120.25,23.506808616411472L120.75,23.500574648473684L121.25,23.49495945912501L121.75,23.488147670919265L122.25,23.48257680599006L122.75,23.47538550465656L123.25,23.467494076548697L123.75,23.458932897931685L124.25,23.45104961258629L124.75,23.44323465286218L125.25,23.43655960681248L125.75,23.430361265839487L126.25,23.42354350065462L126.75,23.418031862252324L127.25,23.414497606700444L127.75,23.412239914962182L128.25,23.40755980669237L128.75,23.40299358481479L129.25,23.397745878116233L129.75,23.395669499917755L130.25,23.39087073731389L130.75,23.387641632310668L131.25,23.80431546621385L131.75,24.074161405505013L132.25,24.245842692329777L132.75,24.356234585137482L133.25,24.842896081481587L133.75,25.157685790682887L134.25,25.35902125076095L134.75,25.488566904282152L135.25,25.571980921357657L135.75,25.62607718293821L136.25,25.65969939052051L136.75,25.680510449197918L137.25,25.273625461509937L137.75,25.007200035386575L138.25,24.83462137097738L138.75,25.141181916948035L139.25,25.338447827494825L139.75,25.047138894365077L140.25,24.85724351722044L140.75,24.733052651697918L141.25,24.65308081165962L141.75,24.60221128978358L142.25,24.567767866951616L142.75,24.544657871729967L143.25,24.529691199318513L143.75,24.52048516375998L144.25,24.513734731819582L144.75,24.508222746844094L145.25,24.50504105089248L145.75,24.082981619533L146.25,23.80920507187927L146.75,23.6333830076715L147.25,23.519097525885204L147.75,23.445697343257994L148.25,23.39588538429055L148.75,23.36441796925466L149.25,23.344104524741073L149.75,23.33109533750098L150.25,23.321834572645923L150.75,23.315391899754264L151.25,23.311308828970425L151.75,23.307838879961928L152.25,23.304451691871574L152.75,23.30174148051247L153.25,23.299098044801784L153.75,23.29718337092217L154.25,23.295578405412254L154.75,23.293766851629005L155.25,23.291918946222772L155.75,23.290660316019565L156.25,23.709026901382224L156.75,23.979504144986326L157.25,24.154320228919882L157.75,24.266925120644768L158.25,24.339803221341874L158.75,24.38795655969517L159.25,24.419849238377775L159.75,24.440848401195353L160.25,24.45387840166991L160.75,24.462508272641482L161.25,24.46888917414823L161.75,24.47275821512151L162.25,24.894850986484666L162.75,24.748041483187375L163.25,24.653407985597614L163.75,24.593074039706305L164.25,24.55487250995625L164.75,24.531094050514145L165.25,24.514875830475372L165.75,24.50276694439802L166.25,24.495225367665252L166.75,24.489898640786134L167.25,24.486323590713784L167.75,24.482379753188784L168.25,24.47942164744915L168.75,24.056644741218925L169.25,24.204311159497365L169.75,24.299028603034003L170.25,24.35933854941446L170.75,24.397470032364325L171.25,24.42163619425334L171.75,24.43832553805584L172.25,24.450602040457063L172.75,24.45735258510681L173.25,24.462703069875772L173.75,24.466466560959187L174.25,24.469013337360945L174.75,24.470272622102055L175.25,24.473294256778395L175.75,24.054918052415847L176.25,23.785004384293597L176.75,23.61082023653007L177.25,23.499411672451178L177.75,23.427804984451477L178.25,23.380925823283942L178.75,23.35024696962079L179.25,23.330758098814275L179.75,23.31846392967229L180.25,23.31085200435731L180.75,23.726358866401675L181.25,23.9958836128111L181.75,24.588784716843797L182.25,24.97338999944445L182.75,25.221494682530636L183.25,25.38252369588142L183.75,25.486839902782698L184.25,25.554170065596956L184.75,25.597887012077138L185.25,25.627908766247856L185.75,25.646120947911427L186.25,25.658428194559107L186.75,25.668033363628982L187.25,25.673728814944102L187.75,25.678876494740006L188.25,25.264542492029037L188.75,24.997535943037946L189.25,24.824642854565123L189.75,24.712528780695706L190.25,24.639217270984567L190.75,25.011261671480813L191.25,25.25201182386176L191.75,25.407422300534286L192.25,25.510167554066534L192.75,25.576392738121047L193.25,25.199725804849336L193.75,24.957114132089234L194.25,24.800034659742266L194.75,25.11597039994267L195.25,25.319273194162854L195.75,25.451090845247222L196.25,25.537753466353013L196.75,25.59431143174363L197.25,25.211661220855824L197.75,24.96480908341924L198.25,24.804095527266618L198.75,24.69986709795782L199.25,24.63182132283606L199.75,24.587878717197768L200.25,24.559027223197255L200.75,24.53894230762402L201.25,24.105817731551298L201.75,23.824425448639005L202.25,23.642319394819612L202.75,23.942340979561855L203.25,24.136368720381096L203.75,24.262770802877277L204.25,24.34316496170979L204.75,24.814084989914498L205.25,25.118841537331782L205.75,25.315675574980045L206.25,25.442559573368314L206.75,25.522577654323914L207.25,25.574288830744113L207.75,25.60948319747842L208.25,25.632635238919143L208.75,25.646964699272736L209.25,25.23754603919123L209.75,24.974432112692803L210.25,24.802961980704616L210.75,24.692349351777843L211.25,24.201846798897368L211.75,23.8832735870136L212.25,23.67640600899419L212.75,23.54255467781263L213.25,23.45756572712101L213.75,23.402903034533797L214.25,23.36674066735447L214.75,23.343334222953487L215.25,23.329935548153554L215.75,23.319993126805066L216.25,23.312598207302482L216.75,23.30725465591015L217.25,23.303556845154773L217.75,23.30117500460563L218.25,23.300622044585996L218.75,23.30122264934485" style="fill: none;" fill="none"></path></g></g></g></g><g opacity="0.2"><g><g><g><path stroke="rgb(0, 153, 136)" stroke-width="2px" d="M31.75,142.4L32.25,142.4L32.75,142.4L33.25,142.4L33.75,142.4L34.25,142.4L34.75,142.4L35.25,142.4L35.75,142.4L36.25,142.4L36.75,142.4L37.25,142.4L37.75,142.4L38.25,142.4L38.75,142.4L39.25,142.4L39.75,142.4L40.25,142.4L40.75,141.28859185791015L41.25,127.67011431884767L41.75,127.67011431884767L42.25,125.43985058593749L42.75,119.63648455810547L43.25,113.82253674316406L43.75,108.14092102050782L44.25,101.0531444091797L44.75,97.58935284423828L45.25,97.47225515747068L45.75,102.97565087890624L46.25,115.69206909179687L46.75,113.404251953125L47.25,108.93013330078126L47.75,104.4011827392578L48.25,101.11998132324217L48.75,99.09783874511719L49.25,98.08537683105467L49.75,91.3462451171875L50.25,83.45257958984377L50.75,78.9331379699707L51.25,69.89430769348145L51.75,64.2349521560669L52.25,60.844030563354494L52.75,51.74762481307983L53.25,48.30562083816529L53.75,47.19651557922363L54.25,44.81263938903808L54.75,42.356921257019046L55.25,40.83684387207032L55.75,39.54497633361816L56.25,34.59367503356934L56.75,33.17061207580567L57.25,29.317713043212887L57.75,29.027966003417973L58.25,28.83690173339843L58.75,27.23658297729493L59.25,27.008650848388665L59.75,25.468653167724604L60.25,25.30979870605468L60.75,24.93157043457032L61.25,24.799382293701175L61.75,24.63416680908204L62.25,24.549373992919918L62.75,24.46484191894531L63.25,24.389552612304684L63.75,24.369241882324225L64.25,24.288745880126953L64.75,24.255381744384767L65.25,24.185543579101555L65.75,24.16167480468749L66.25,24.133213165283195L66.75,24.12245755004882L67.25,24.06832638549804L67.75,24.048143310546877L68.25,24.035785217285152L68.75,24.02408984375L69.25,24.010775695800778L69.75,23.997018829345695L70.25,23.98379974365234L70.75,23.965053466796867L71.25,23.96598507690429L71.75,23.93225698852539L72.25,23.94196420288086L72.75,23.95382254028321L73.25,23.95411044311524L73.75,23.965903594970698L74.25,23.953605255126952L74.75,23.968282867431647L75.25,23.967785827636714L75.75,23.972623138427736L76.25,23.975447845458987L76.75,23.964762847900392L77.25,23.97689279174805L77.75,23.965466308593747L78.25,23.981624176025388L78.75,23.979595275878914L79.25,23.971767578124997L79.75,23.994196838378905L80.25,23.993664489746102L80.75,23.988794586181637L81.25,23.969046081542963L81.75,23.976545135498036L82.25,23.97659674072265L82.75,23.971259674072265L83.25,23.97490463256835L83.75,23.97109942626953L84.25,23.975667846679688L84.75,23.96662606811524L85.25,23.949422515869138L85.75,23.934090332031257L86.25,23.931692047119142L86.75,23.911264526367187L87.25,23.901815338134767L87.75,23.911576873779293L88.25,23.90777981567382L88.75,23.89969409179687L89.25,23.891589355468753L89.75,23.894617767333983L90.25,23.88599969482421L90.75,23.874043579101567L91.25,23.86642501831055L91.75,23.862323760986328L92.25,23.850438262939463L92.75,23.836219665527352L93.25,23.83176531982423L93.75,23.840334503173835L94.25,23.836111022949225L94.75,23.836189788818352L95.25,23.812869659423832L95.75,23.8181958618164L96.25,23.81654721069336L96.75,23.81042791748046L97.25,23.796008331298836L97.75,23.792504608154303L98.25,23.80505010986328L98.75,23.798928100585936L99.25,23.799023162841806L99.75,23.794517211914073L100.25,23.781341583251955L100.75,23.768358795166023L101.25,23.752646362304684L101.75,23.73585293579102L102.25,23.724969665527333L102.75,23.714702941894526L103.25,23.701902130126957L103.75,23.69144528198243L104.25,23.68960379028321L104.75,23.664127105712886L105.25,23.64842282104492L105.75,23.633449157714843L106.25,23.627213073730463L106.75,23.620778717041013L107.25,23.618782409667965L107.75,23.621237731933597L108.25,23.618717224121095L108.75,23.61914636230468L109.25,23.60447418212891L109.75,23.59923217773438L110.25,23.585630126953127L110.75,23.581854797363285L111.25,23.576887115478524L111.75,23.57434759521484L112.25,23.574133026123047L112.75,23.573872283935554L113.25,23.565653472900383L113.75,23.567041381835946L114.25,23.544022735595696L114.75,23.544641998291016L115.25,23.536944671630852L115.75,23.53367181396485L116.25,23.529250061035153L116.75,23.53404663085938L117.25,23.52824511718751L117.75,23.520634704589845L118.25,23.512839599609368L118.75,23.511315887451183L119.25,23.506948455810555L119.75,23.50570721435547L120.25,23.49789309692383L120.75,23.489098480224616L121.25,23.484622406005865L121.75,23.475607788085934L122.25,23.472321350097655L122.75,23.46214697265625L123.25,23.452966674804696L123.75,23.443172546386727L124.25,23.436537200927724L124.75,23.428848022460933L125.25,23.424271453857425L125.75,23.418950683593746L126.25,23.41099261474609L126.75,23.407885437011714L127.25,23.407991363525397L127.75,23.408083709716802L128.25,23.398944152832023L128.75,23.394587585449212L129.25,23.388085327148428L129.75,23.391847076416013L130.25,23.382036651611322L130.75,23.381697143554682L131.25,24.571374114990228L131.75,24.570923248291017L132.25,24.56189233398438L132.75,24.55945602416992L133.25,25.738795654296876L133.75,25.737185028076173L134.25,25.729661529541026L134.75,25.727048675537098L135.25,25.72553854370117L135.75,25.72566348266602L136.25,25.72159481811524L136.75,25.718821716308597L137.25,24.52458718872071L137.75,24.516735046386717L138.25,24.516919738769527L138.75,25.705532012939447L139.25,25.70159643554687L139.75,24.510865631103513L140.25,24.507663391113287L140.75,24.50442855834962L141.25,24.5058599243164L141.75,24.508565124511712L142.25,24.504360656738285L142.75,24.50211447143554L143.25,24.50213891601563L143.75,24.50353768920899L144.25,24.501307800292963L144.75,24.49807568359376L145.25,24.499183837890623L145.75,23.306008575439453L146.25,23.305207336425784L146.75,23.309710571289056L147.25,23.308708343505856L147.75,23.310574279785165L148.25,23.304186096191398L148.75,23.306489318847664L149.25,23.30670932006836L149.75,23.307146606445315L150.25,23.304786346435552L150.75,23.30353152465821L151.25,23.303792266845704L151.75,23.301451019287107L152.25,23.29821618652344L152.75,23.296752227783195L153.25,23.294231719970693L153.75,23.293658630371095L154.25,23.29262380981445L154.75,23.29043194580078L155.25,23.28851712036132L155.75,23.288343292236323L156.25,24.47920175170899L156.75,24.477428161621088L157.25,24.47614074707032L157.75,24.474220489501953L158.25,24.47396517944337L158.75,24.476602478027345L159.25,24.47856076049804L159.75,24.479505950927724L160.25,24.477865447998038L160.75,24.478395080566397L161.25,24.480635833740237L161.75,24.479880767822273L162.25,25.671885406494138L162.75,24.477778533935542L163.25,24.479196319580087L163.75,24.482004730224617L164.25,24.484546966552724L164.75,24.487320068359367L165.25,24.485019561767587L165.75,24.4804755859375L166.25,24.481342010498057L166.75,24.4800926208496L167.25,24.479742248535167L167.75,24.475119506835934L168.25,24.473976043701164L168.75,23.278350891113288L169.25,24.476151611328135L169.75,24.473394805908192L170.25,24.470363677978522L170.75,24.467666625976562L171.25,24.46612390136719L171.75,24.4690491027832L172.25,24.47320196533203L172.75,24.46977972412109L173.25,24.472552825927732L173.75,24.473394805908192L174.25,24.47370172119141L174.75,24.472590850830084L175.25,24.478856811523446L175.75,23.284725494384755L176.25,23.288117858886718L176.75,23.290163055419914L177.25,23.29431863403321L177.75,23.29598358154297L178.25,23.294625549316407L178.75,23.29376998901367L179.25,23.294880859374995L179.75,23.295831481933583L180.25,23.296839141845712L180.75,24.491269226074223L181.25,24.49205416870117L181.75,25.680261749267583L182.25,25.681413360595705L182.75,25.678232849121088L183.25,25.67896347045898L183.75,25.67887655639648L184.25,25.678118774414056L184.75,25.678365936279288L185.25,25.683176086425775L185.75,25.679647918701168L186.25,25.681084716796878L186.75,25.68571560668946L187.25,25.684213623046883L187.75,25.68835290527344L188.25,24.50179125976562L188.75,24.506001159667974L189.25,24.50636239624024L189.75,24.50613696289062L190.25,24.504257446289067L190.75,25.696161590576175L191.25,25.695210968017584L191.75,25.69351885986329L192.25,25.69931222534179L192.75,25.698307281494145L193.25,24.50631622314454L193.75,24.510488098144542L194.25,24.510865631103513L194.75,25.6975793762207L195.25,25.69353515624999L195.75,25.693755157470708L196.25,25.697291473388667L196.75,25.698429504394532L197.25,24.50723696899415L197.75,24.51037673950195L198.25,24.508236480712885L198.75,24.507992034912114L199.25,24.506555236816403L199.75,24.506984375000005L200.25,24.505914245605474L200.75,24.50196780395508L201.25,23.3084747619629L201.75,23.306407836914055L202.25,23.307078704833984L202.75,24.494653442382816L203.25,24.493556152343746L203.75,24.495465545654298L204.25,24.49116329956054L204.75,25.68100595092773L205.25,25.67987063598633L205.75,25.678029144287112L206.25,25.67614147949219L206.75,25.66988366699218L207.25,25.66948440551758L207.75,25.674272827148435L208.25,25.67525604248047L208.75,25.673343933105475L209.25,24.48384350585937L209.75,24.49006329345703L210.25,24.4873010559082L210.75,24.48872155761719L211.25,23.298876190185556L211.75,23.296809265136712L212.25,23.295581604003907L212.75,23.296146545410153L213.25,23.301108795166023L213.75,23.302273986816406L214.25,23.300169036865228L214.75,23.30024508666991L215.25,23.30526980590821L215.75,23.30169003295899L216.25,23.29898483276366L216.75,23.297417663574215L217.25,23.29674951171875L217.75,23.296790252685543L218.25,23.29960409545898L218.75,23.30232830810548" style="fill: none;" fill="none"></path></g></g></g></g></g></g><g transform="translate(80, 178)" clip-path="url(#clip_1)"><clipPath id="clip_1"><rect width="250" height="22"></rect></clipPath><g><g><line x1="0" y1="0" x2="0" y2="5" style="visibility: inherit;" fill="rgb(0, 0, 0)" stroke="rgb(204, 204, 204)" stroke-width="1px"></line><line x1="31.25" y1="0" x2="31.25" y2="5" style="visibility: inherit;" fill="rgb(0, 0, 0)" stroke="rgb(204, 204, 204)" stroke-width="1px"></line><line x1="62.5" y1="0" x2="62.5" y2="5" style="visibility: inherit;" fill="rgb(0, 0, 0)" stroke="rgb(204, 204, 204)" stroke-width="1px"></line><line x1="93.75" y1="0" x2="93.75" y2="5" style="visibility: inherit;" fill="rgb(0, 0, 0)" stroke="rgb(204, 204, 204)" stroke-width="1px"></line><line x1="125" y1="0" x2="125" y2="5" style="visibility: inherit;" fill="rgb(0, 0, 0)" stroke="rgb(204, 204, 204)" stroke-width="1px"></line><line x1="156.25" y1="0" x2="156.25" y2="5" style="visibility: inherit;" fill="rgb(0, 0, 0)" stroke="rgb(204, 204, 204)" stroke-width="1px"></line><line x1="187.5" y1="0" x2="187.5" y2="5" style="visibility: inherit;" fill="rgb(0, 0, 0)" stroke="rgb(204, 204, 204)" stroke-width="1px"></line><line x1="218.75" y1="0" x2="218.75" y2="5" style="visibility: inherit;" fill="rgb(0, 0, 0)" stroke="rgb(204, 204, 204)" stroke-width="1px"></line><line x1="250" y1="0" x2="250" y2="5" style="visibility: inherit;" fill="rgb(0, 0, 0)" stroke="rgb(204, 204, 204)" stroke-width="1px"></line></g><g transform="translate(0, 8)"><text x="0" y="0" dx="0em" dy="0.95em" style="text-anchor: middle; visibility: hidden; font-family: Roboto, sans-serif; font-size: 12px; font-weight: 200;" fill="rgb(50, 49, 63)" stroke="none" stroke-width="1px">-500k</text><text x="31.25" y="0" dx="0em" dy="0.95em" style="text-anchor: middle; visibility: inherit; font-family: Roboto, sans-serif; font-size: 12px; font-weight: 200;" fill="rgb(50, 49, 63)" stroke="none" stroke-width="1px">0</text><text x="62.5" y="0" dx="0em" dy="0.95em" style="text-anchor: middle; visibility: inherit; font-family: Roboto, sans-serif; font-size: 12px; font-weight: 200;" fill="rgb(50, 49, 63)" stroke="none" stroke-width="1px">500k</text><text x="93.75" y="0" dx="0em" dy="0.95em" style="text-anchor: middle; visibility: inherit; font-family: Roboto, sans-serif; font-size: 12px; font-weight: 200;" fill="rgb(50, 49, 63)" stroke="none" stroke-width="1px">1M</text><text x="125" y="0" dx="0em" dy="0.95em" style="text-anchor: middle; visibility: inherit; font-family: Roboto, sans-serif; font-size: 12px; font-weight: 200;" fill="rgb(50, 49, 63)" stroke="none" stroke-width="1px">1.5M</text><text x="156.25" y="0" dx="0em" dy="0.95em" style="text-anchor: middle; visibility: inherit; font-family: Roboto, sans-serif; font-size: 12px; font-weight: 200;" fill="rgb(50, 49, 63)" stroke="none" stroke-width="1px">2M</text><text x="187.5" y="0" dx="0em" dy="0.95em" style="text-anchor: middle; visibility: inherit; font-family: Roboto, sans-serif; font-size: 12px; font-weight: 200;" fill="rgb(50, 49, 63)" stroke="none" stroke-width="1px">2.5M</text><text x="218.75" y="0" dx="0em" dy="0.95em" style="text-anchor: middle; visibility: inherit; font-family: Roboto, sans-serif; font-size: 12px; font-weight: 200;" fill="rgb(50, 49, 63)" stroke="none" stroke-width="1px">3M</text><text x="250" y="0" dx="0em" dy="0.95em" style="text-anchor: middle; visibility: hidden; font-family: Roboto, sans-serif; font-size: 12px; font-weight: 200;" fill="rgb(50, 49, 63)" stroke="none" stroke-width="1px">3.5M</text></g><line x1="0" y1="0" x2="250" y2="0" fill="rgb(0, 0, 0)" stroke="rgb(204, 204, 204)" stroke-width="1px"></line></g></g></g></g></svg>