<svg viewBox="0 0 330 200" xmlns="http://www.w3.org/2000/svg"><g><g><g><g><line x1="10" y1="0" x2="10" y2="178" fill="rgb(0, 0, 0)" stroke="rgb(204, 204, 204)" stroke-width="1px"></line></g></g><g transform="translate(10, 0)" clip-path="url(#clip_0)"><clipPath id="clip_0"><rect width="320" height="178"></rect></clipPath><g><g><g><line x1="0" y1="0" x2="0" y2="178" fill="rgb(0, 0, 0)" stroke="rgb(60, 60, 60)" stroke-width="1px" opacity="0.25"></line><line x1="40" y1="0" x2="40" y2="178" fill="rgb(0, 0, 0)" stroke="rgb(60, 60, 60)" stroke-width="1px" opacity="0.25"></line><line x1="80" y1="0" x2="80" y2="178" fill="rgb(0, 0, 0)" stroke="rgb(60, 60, 60)" stroke-width="1px" opacity="0.25"></line><line x1="120" y1="0" x2="120" y2="178" fill="rgb(0, 0, 0)" stroke="rgb(60, 60, 60)" stroke-width="1px" opacity="0.25"></line><line x1="160" y1="0" x2="160" y2="178" fill="rgb(0, 0, 0)" stroke="rgb(60, 60, 60)" stroke-width="1px" opacity="0.25"></line><line x1="200" y1="0" x2="200" y2="178" fill="rgb(0, 0, 0)" stroke="rgb(60, 60, 60)" stroke-width="1px" opacity="0.25"></line><line x1="240" y1="0" x2="240" y2="178" fill="rgb(0, 0, 0)" stroke="rgb(60, 60, 60)" stroke-width="1px" opacity="0.25"></line><line x1="280" y1="0" x2="280" y2="178" fill="rgb(0, 0, 0)" stroke="rgb(60, 60, 60)" stroke-width="1px" opacity="0.25"></line><line x1="320" y1="0" x2="320" y2="178" fill="rgb(0, 0, 0)" stroke="rgb(60, 60, 60)" stroke-width="1px" opacity="0.25"></line></g></g></g><g><g><line x1="40" y1="0" x2="40" y2="178" fill="rgb(0, 0, 0)" stroke="rgb(153, 153, 153)" stroke-width="1.5px"></line></g></g><g><g><g><g><g><path stroke="rgb(0, 153, 136)" stroke-width="2px" d="M83.52000000000001,178.3456991986898L84.16,160.91780803061684L84.80000000000001,146.11055561123166L85.44,133.62876905017427L86.08000000000001,122.706028040933L86.72,113.37400617440723L87.36000000000001,105.43599896629924L88,98.66866366654683L88.64000000000001,92.8675415464539L89.28,87.87250473383729L89.92000000000002,83.55830354611902L90.55999999999999,79.76961466065367L91.19999999999999,76.58689412765L91.83999999999999,73.6247510408403L92.47999999999999,71.20981325235203L93.11999999999999,69.27301723067019L93.75999999999999,67.64262296462257L94.39999999999999,66.36567429833362L95.03999999999999,65.18684911286498L95.67999999999999,64.31414547183337L96.32,63.57385032388416L96.96,62.98933497511727L97.6,62.519537124094754L98.24,62.03478953565663L98.88,61.72604997314289L99.52,61.371082065498435L100.16,61.20507211706204L100.8,61.04820862433712L101.44,60.85115479355872L102.08,60.8701612831564L102.72,60.881804613422915L103.36,60.85139625838717L104,60.66258225255827L104.64,60.56518519563444L105.28,60.483413078647125L105.92,60.37031919930729L106.56,60.30497794613517L107.2,60.21840611669766L107.84,60.18307062301614L108.48,60.07858068731442L109.12,59.848346876494716L109.76,59.52748486075747L110.39999999999999,59.236934655601985L111.03999999999999,58.82319193103575L111.67999999999999,58.39613093583016L112.32,58.11628823580457L112.96,57.84882914077118L113.6,57.5564653505274L114.24,57.24294565709138L114.88,57.00334276662503L115.52,56.73013111194434L116.16,56.40107573883982L116.8,56.06065501909879L117.44,55.739624123596L118.08,55.370870066768184L118.72,54.942676732349405L119.36,54.544719873481284L120,54.27942180178654L120.64,54.0208035423974L121.28,53.803210964335335L121.92,53.42782121925962L122.56,53.15484991789864L123.2,52.91094750704423L123.84,52.654830887197264L124.48,52.320213680245075L125.12,52.00906873707465L125.76,51.849560251240376L126.4,51.66466475198454L127.04,51.50941073138125L127.68,51.3413866460451L128.32,51.091408371020606L128.96,50.77388299750048L129.60000000000002,50.37699146871064L130.23999999999998,49.90431304123307L130.88,49.41622227695184L131.51999999999998,48.92021460148447L132.16,48.396786227593175L132.79999999999998,47.869470388682025L133.44,47.409471074290686L134.07999999999998,46.812725163298246L134.72,46.180712663596324L135.35999999999999,45.52498863435483L136,44.920773591796184L136.64,44.358397221459384L137.28,43.86759494174182L137.92,43.47353866192272L138.56,43.12044402222227L139.2,42.82599914020344L139.84,42.457728803982896L140.48,42.10418483144642L141.12,41.6948465768512L141.76,41.31864565682101L142.4,40.96068036325575L143.04,40.637910694497975L143.68,40.36379554378614L144.32,40.13035412406642L144.96,39.86636076008155L145.6,39.654896961486266L146.24,39.2888685636166L146.88,38.985052497657726L147.52,38.66598114975809L148.16,38.3700828966102L148.8,38.08438595349161L149.44,37.88234687052695L150.07999999999998,37.66462206784851L150.72,37.41894688287062L151.35999999999999,37.14819588020774L152,36.90732183457485L152.64,36.66852517843619L153.28,36.45691355804612L153.92,36.21478780583274L154.56,35.93895366461258L155.2,35.66979926260858L155.84,35.369397765353376L156.48,35.08919681446024L157.12,34.770080030691254L157.76,34.42622344952936L158.4,34.05652719308381L159.04,33.690697761237736L159.68,33.31958887213333L160.32,32.9693008424984L160.96,32.63054789042658L161.6,32.28014239925876L162.24,31.959261791510833L162.88,31.689348918076917L163.52,31.462327543987552L164.16,31.196659107636933L164.8,30.937160813503493L165.44,30.665486862392985L166.08,30.466709537841787L166.72,30.21948454590661L167.36,30.00810718841718L168,39.49486301863142L168.64000000000001,47.543204439593254L169.28,54.29421793176563L169.92000000000002,59.994815650345124L170.56,74.62168512117094L171.20000000000002,87.06103139293178L171.84,97.57406561599197L172.48000000000002,106.48039454205758L173.12,114.02426237436026L173.76000000000002,120.42091721596543L174.4,125.80516589278974L175.04000000000002,130.3400443932377L175.68,123.86964009686687L176.32000000000002,118.3621432199221L176.96,113.7305016621394L177.60000000000002,119.99918666436506L178.24,125.27577248761041L178.88000000000002,119.49429060950922L179.52,114.60397897236167L180.15999999999997,110.4608799298693L180.79999999999998,106.98484158216372L181.44,104.08006919592113L182.07999999999998,101.59699176342306L182.71999999999997,99.48532651014943L183.35999999999999,97.70551304548943L184,96.21675351411977L184.64,94.94251587051922L185.27999999999997,93.84059449714242L185.92,92.92052508986505L186.56,82.11873034824066L187.2,73.05328010060987L187.83999999999997,65.48020371798465L188.48,59.10878641974318L189.12,53.766864860070854L189.76,49.220109890812836L190.39999999999998,45.41179187945272L191.04,42.20659792781407L191.68,39.510101287558626L192.32,37.21867855798262L192.95999999999998,35.27713923043339L193.6,33.64247825947815L194.24,32.24516687659524L194.88,31.040591254867238L195.51999999999998,30.012795833483775L196.16,29.125459447095544L196.8,28.37230360244815L197.44,27.728553610620963L198.07999999999998,27.167713874407074L198.72,26.679045308307845L199.36,26.265323696582023L200,35.56663799905001L200.64,43.445914613709455L201.28,50.116620388733L201.92000000000002,55.7532011469195L202.56,60.52429181875552L203.2,64.58433823877101L203.84,68.03552653317347L204.48000000000002,70.96215219089447L205.12,73.42284721924456L205.76,75.50712054202101L206.4,77.28712958592881L207.04000000000002,78.78473131649221L207.68,90.05230118582963L208.32,89.54433786027738L208.96,89.12767391850275L209.60000000000002,88.79971914697921L210.24,88.54435951401166L210.88,88.35218773638006L211.52,88.17067009880398L212.16000000000003,87.97928350447225L212.8,87.82505490514399L213.44,87.68439604886396L214.08,87.56274502515824L214.72000000000003,87.42122849933753L215.36,87.29218954791375L216,77.16893820062677L216.64000000000001,78.65371665630721L217.28000000000003,79.88491528747997L217.92000000000002,80.89943717900486L218.56,81.73362437292666L219.20000000000002,82.42510247044062L219.84000000000003,83.0334632984039L220.48,83.58191956069585L221.11999999999998,84.0162686800335L221.76,84.4062137922609L222.39999999999998,84.74246736215044L223.04,85.02889726236955L223.67999999999998,85.26136214283459L224.32,85.51018378636273L224.95999999999998,75.7277024863556L225.6,67.54698191535212L226.23999999999998,60.692630016682344L226.88,54.96514181415581L227.51999999999998,50.161139440627906L228.16,46.10694604171593L228.79999999999998,42.68641322765599L229.44,39.814372539750636L230.07999999999998,37.4022212702681L230.72,35.377458806677446L231.35999999999999,43.398511821028215L232,50.20701546019623L232.64,65.79374588000309L233.28,79.08105515574948L233.92,90.35765506872234L234.56,99.94524405992513L235.2,108.08261074966882L235.84,114.97730561614159L236.48,120.8223957236304L237.12,125.81421259066043L237.76,130.00931846372944L238.4,133.5712401362384L239.04,136.62402103323865L239.68,139.19218308768052L240.32,141.3990252859166L240.96,132.96217615285187L241.6,125.91313293637472L242.24,119.9915663759011L242.88,115.00929582288201L243.52,110.80059175082118L244.16,117.43572923866147L244.8,123.04969182544656L245.44,127.78907981065502L246.08,131.85047263894614L246.72,135.27783964156532L247.36,127.86121363761457L248,121.66478722766487L248.64000000000001,116.45735139448423L249.28,122.24127353253287L249.92000000000002,127.10480861845322L250.56,131.22338528524213L251.20000000000002,134.73859518267642L251.84,137.721496644618L252.48000000000002,129.92155662434254L253.12,123.3956718168081L253.76000000000002,117.89068092077649L254.4,113.25747336338148L255.04000000000002,109.34549683156172L255.68,106.05506751719176L256.32,103.2742589101893L256.96000000000004,100.8976590041536L257.6,88.82286935441549L258.24,78.6868173838006L258.88,70.18859984131791L259.52000000000004,72.90868474252304L260.15999999999997,75.19898921343166L260.79999999999995,77.15057162832056L261.44,78.76365576952973L262.08,90.11116480091492L262.71999999999997,99.74360363235341L263.36,107.90431703500427L264,114.80924451466049L264.64,120.60719492645168L265.28,125.51407846832875L265.91999999999996,129.70890149982517L266.56,133.2666550301683L267.2,136.25915459179558L267.84,128.4915458571053L268.48,122.01914052051146L269.12,116.55363072651676L269.76,111.96774617068718L270.4,98.00728524921158L271.03999999999996,86.30389776619421L271.68,76.48397006356137L272.32,68.24855010754422L272.96,61.372592942747744L273.6,55.60240829430664L274.24,50.73167418820909L274.88,46.63321735223057L275.52,43.22353870654243L276.15999999999997,40.32237833516301L276.8,37.8559744250063L277.44,35.764623510779L278.08,33.99628009510198L278.72,32.50568955669277L279.36,31.27155058805404L280,30.252767015294985" style="fill: none;" fill="none"></path></g></g></g></g><g opacity="0.2"><g><g><g><path stroke="rgb(0, 153, 136)" stroke-width="2px" d="M75.84,229.42426933423945L76.47999999999999,141.09396168445787L77.12,132.26112738903367L77.75999999999999,111.4298365466753L78.4,104.2146551021711L79.03999999999999,95.24349566007311L79.68,90.65925492710056L80.32,86.10250251877517L80.96000000000001,82.05518156908158L81.6,80.96513830818117L82.24000000000001,76.65253869869446L82.88,74.8685388019724L83.52000000000001,71.1408535136584L84.16,69.8688756033229L84.80000000000001,68.35349843666997L85.44,67.78122309180382L86.08000000000001,64.90424741936133L86.72,63.83291135245275L87.36000000000001,63.17729603383462L88,62.55709305888094L88.64000000000001,61.85134732766068L89.28,61.12247009419865L89.92000000000002,60.422407203229625L90.55999999999999,59.43017179844697L91.19999999999999,59.47946674790474L91.83999999999999,57.695781887193846L92.47999999999999,58.208931376108616L93.11999999999999,58.83602452672572L93.75999999999999,58.851252557557686L94.39999999999999,59.47515517402616L95.03999999999999,58.82453177185475L95.67999999999999,59.60105804566547L96.32,59.574755577364L96.96,59.83075639949114L97.6,59.98026539269679L98.24,59.414794392954136L98.88,60.056750541951075L99.52,59.4520165981228L100.16,60.30722256370672L100.8,60.19981085670085L101.44,59.785475257246176L102.08,60.972995278802856L102.72,60.944799520532484L103.36,60.68688956473396L104,59.64144685350584L104.64,60.03834775688504L105.28,60.04107940655068L105.92,59.75859469393883L106.56,59.951512548602764L107.2,59.750113756871876L107.84,59.991910445577446L108.48,59.513384878676945L109.12,58.60331276809772L109.76,57.792684412153456L110.39999999999999,57.66592276869156L111.03999999999999,56.58664162516011L111.67999999999999,56.08764984547966L112.32,56.60313876572442L112.96,56.40260276635484L113.6,55.97565325202172L114.24,55.547817244796825L114.88,55.70766848845572L115.52,55.25281650443838L116.16,54.622006324274366L116.8,54.22018077134148L117.44,54.00391118089786L118.08,53.3773286111018L118.72,52.62808014832202L119.36,52.39343269225583L120,52.84487430666112L120.64,52.6223566190172L121.28,52.626506175665696L121.92,51.398433886714145L122.56,51.67883422040097L123.2,51.59203484177306L123.84,51.26990415204314L124.48,50.511094360595706L125.12,50.326771830824846L125.76,50.98686160282628L126.4,50.66471313384563L127.04,50.66971492999799L127.68,50.43264745483907L128.32,49.73965710050323L128.96,49.057110932898375L129.60000000000002,48.23145858109545L130.23999999999998,47.349486119267205L130.88,46.778175225104846L131.51999999999998,46.23942161116846L132.16,45.56795085377894L132.79999999999998,45.01964821990167L133.44,44.9231099761038L134.07999999999998,43.58813556363851L134.72,42.76580312186976L135.35999999999999,41.982132767201634L136,41.65587371871889L136.64,41.31931307404165L137.28,41.21490739319165L137.92,41.34332026787504L138.56,41.21149834609687L139.2,41.233941376606964L139.84,40.46680043463628L140.48,40.19281167985131L141.12,39.48208526595819L141.76,39.284876437105446L142.4,39.02542170844093L143.04,38.892802988229334L143.68,38.881598287506L144.32,38.8679825571445L144.96,38.438864386281665L145.6,38.51132118739369L146.24,37.310051352254305L146.88,37.34235657529488L147.52,36.94085591137371L148.16,36.770171564414376L148.8,36.539600340610534L149.44,36.78971786903092L150.07999999999998,36.48720254981061L150.72,36.09045270869303L151.35999999999999,35.684179140407515L152,35.60477707113093L152.64,35.37720854062098L153.28,35.31253872587775L153.92,34.90547771381168L154.56,34.44746674324898L155.2,34.21441095420202L155.84,33.745152591146685L156.48,33.57411133825938L157.12,33.04470929505277L157.76,32.567186449576134L158.4,32.05789592907194L159.04,31.712955388097775L159.68,31.313326538105663L160.32,31.075517696534074L160.96,30.79908409529823L161.6,30.38572467141743L162.24,30.224360868811164L162.88,30.229861632291634L163.52,30.23465718553705L164.16,29.760110030953854L164.8,29.533957747161914L165.44,29.19648230296281L166.08,29.391712940979886L166.72,28.882614015766837L167.36,28.864998676249243L168,91.8473743643373L168.64000000000001,91.8230161507745L169.28,91.33519841580846L169.92000000000002,91.20362382628691L170.56,156.23077013031877L171.20000000000002,156.1400850902983L171.84,155.7165503586391L172.48000000000002,155.56948689825933L173.12,155.4844960532967L173.76000000000002,155.49152749398726L174.4,155.26256341312558L175.04000000000002,155.1065264071574L175.68,89.32172529025924L176.32000000000002,88.89825247949474L176.96,88.90821177689261L177.60000000000002,154.35895773031643L178.24,154.1376435779819L178.88000000000002,88.58178503233367L179.52,88.40915359297426L180.15999999999997,88.23478451598413L180.79999999999998,88.31193786255861L181.44,88.45776373379152L182.07999999999998,88.23112458500725L182.71999999999997,88.11005891598218L183.35999999999999,88.11137638772978L184,88.18676690535791L184.64,88.0665829734947L185.27999999999997,87.89239860798054L185.92,87.95211676739156L186.56,24.94287013284065L187.2,24.90140327519222L187.83999999999997,25.134475407591047L188.48,25.08260048606905L189.12,25.17918201064299L189.76,24.84855220268909L190.39999999999998,24.967750777371457L191.04,24.979136967603154L191.68,25.00176902497717L192.32,24.87961604665023L192.95999999999998,24.814677857318173L193.6,24.828171284201005L194.24,24.70701574289226L194.88,24.539634206621525L195.51999999999998,24.46388978451135L196.16,24.33348872311624L196.8,24.303840867207587L197.44,24.250307542727423L198.07999999999998,24.13692413602998L198.72,24.03787847228824L199.36,24.02888740472573L200,86.87563856580603L200.64,86.78012737204274L201.28,86.71080132272365L201.92000000000002,86.60740301227061L202.56,86.59365608769977L203.2,86.73566474078943L203.84,86.84111929614895L204.48000000000002,86.89202085978322L205.12,86.80367552970168L205.76,86.83219706698034L206.4,86.95287088895886L207.04000000000002,86.91220642325668L207.68,152.46788091290318L208.32,86.79899512219058L208.96,86.87534602640761L209.60000000000002,87.0265962247542L210.24,87.16352396503609L210.88,87.31290011142015L211.52,87.1889798078433L212.16000000000003,86.94424057187341L212.8,86.99090336448718L213.44,86.92361577050833L214.08,86.9047465106279L214.72000000000003,86.65581070191323L215.36,86.59424106074128L216,23.51212873428488L216.64000000000001,86.71138633976601L217.28000000000003,86.56294531154997L217.92000000000002,86.3997496318593L218.56,86.25455494811652L219.20000000000002,86.17150908928242L219.84000000000003,86.32897832675252L220.48,86.55256228135222L221.11999999999998,86.36831156836249L221.76,86.517611463011L222.39999999999998,86.56294531154997L223.04,86.57947055869867L223.67999999999998,86.51965876965707L224.32,86.85706242307468L224.95999999999998,23.841772591540114L225.6,24.017227191284746L226.23999999999998,24.12301521586709L226.88,24.337985129697234L227.51999999999998,24.42412192444326L228.16,24.353863169290182L228.79999999999998,24.309601780813217L229.44,24.367071573348397L230.07999999999998,24.416252786257303L230.72,24.46838656757168L231.35999999999999,87.52565052047672L232,87.56794068731492L232.64,152.93845100268578L233.28,153.00315787932195L233.92,152.8244574555877L234.56,152.86550637942432L235.2,152.86062317937362L235.84,152.81804842757805L236.48,152.83193468826497L237.12,153.10220733848118L237.76,152.90396211486083L238.4,152.98469172766838L239.04,153.24491678733025L239.68,153.16051058159158L240.32,153.39313477391144L240.96,88.09263911654485L241.6,88.31955092365816L242.24,88.3390229607833L242.88,88.32687120981052L243.52,88.22556150639497L244.16,153.8320709634791L244.8,153.77862863992382L245.44,153.68350584088373L246.08,154.0092072044917L246.72,153.95270466359435L247.36,88.33653404021284L248,88.56143139097472L248.64000000000001,88.58178503233367L249.28,153.91177977886903L249.92000000000002,153.68442192360178L250.56,153.69678909304056L251.20000000000002,153.89559336750185L251.84,153.95957648475604L252.48000000000002,88.38616679569665L253.12,88.55542784971743L253.76000000000002,88.44004721158011L254.4,88.42686976376945L255.04000000000002,88.34941790733818L255.68,88.37255057259826L256.32,88.31486595857731L256.96000000000004,88.10215410889826L257.6,25.07051064422025L258.24,24.963533691001995L258.88,24.998254708785485L259.52000000000004,87.70798933361019L260.15999999999997,87.64886590305143L260.79999999999995,87.75174797127413L261.44,87.51994363088083L262.08,152.98026598830862L262.71999999999997,152.91647569384486L263.36,152.81301278121393L264,152.706962798909L264.64,152.35544730267176L265.28,152.33302257380095L265.91999999999996,152.60198805770239L266.56,152.65722097849584L267.2,152.54980847881183L267.84,87.12563356726714L268.48,87.46068101344206L269.12,87.31187593627368L269.76,87.38839830547569L270.4,24.573783638774024L271.03999999999996,24.46684079692996L271.68,24.403325002690888L272.32,24.432553188049813L272.96,24.689307021673592L273.6,24.7496018253651L274.24,24.640679346613506L274.88,24.64461447773008L275.52,24.904636244750595L276.15999999999997,24.719383858084004L276.8,24.579405016249716L277.44,24.4983186106399L278.08,24.463749260250232L278.72,24.465857125503106L279.36,24.61144725528577L280,24.752412828871375" style="fill: none;" fill="none"></path></g></g></g></g></g></g><g transform="translate(10, 178)" clip-path="url(#clip_1)"><clipPath id="clip_1"><rect width="320" height="22"></rect></clipPath><g><g><line x1="0" y1="0" x2="0" y2="5" style="visibility: inherit;" fill="rgb(0, 0, 0)" stroke="rgb(204, 204, 204)" stroke-width="1px"></line><line x1="40" y1="0" x2="40" y2="5" style="visibility: inherit;" fill="rgb(0, 0, 0)" stroke="rgb(204, 204, 204)" stroke-width="1px"></line><line x1="80" y1="0" x2="80" y2="5" style="visibility: inherit;" fill="rgb(0, 0, 0)" stroke="rgb(204, 204, 204)" stroke-width="1px"></line><line x1="120" y1="0" x2="120" y2="5" style="visibility: inherit;" fill="rgb(0, 0, 0)" stroke="rgb(204, 204, 204)" stroke-width="1px"></line><line x1="160" y1="0" x2="160" y2="5" style="visibility: inherit;" fill="rgb(0, 0, 0)" stroke="rgb(204, 204, 204)" stroke-width="1px"></line><line x1="200" y1="0" x2="200" y2="5" style="visibility: inherit;" fill="rgb(0, 0, 0)" stroke="rgb(204, 204, 204)" stroke-width="1px"></line><line x1="240" y1="0" x2="240" y2="5" style="visibility: inherit;" fill="rgb(0, 0, 0)" stroke="rgb(204, 204, 204)" stroke-width="1px"></line><line x1="280" y1="0" x2="280" y2="5" style="visibility: inherit;" fill="rgb(0, 0, 0)" stroke="rgb(204, 204, 204)" stroke-width="1px"></line><line x1="320" y1="0" x2="320" y2="5" style="visibility: inherit;" fill="rgb(0, 0, 0)" stroke="rgb(204, 204, 204)" stroke-width="1px"></line></g><g transform="translate(0, 8)"><text x="0" y="0" dx="0em" dy="0.95em" style="text-anchor: middle; visibility: hidden; font-family: Roboto, sans-serif; font-size: 12px; font-weight: 200;" fill="rgb(50, 49, 63)" stroke="none" stroke-width="1px">-500k</text><text x="40" y="0" dx="0em" dy="0.95em" style="text-anchor: middle; visibility: inherit; font-family: Roboto, sans-serif; font-size: 12px; font-weight: 200;" fill="rgb(50, 49, 63)" stroke="none" stroke-width="1px">0</text><text x="80" y="0" dx="0em" dy="0.95em" style="text-anchor: middle; visibility: inherit; font-family: Roboto, sans-serif; font-size: 12px; font-weight: 200;" fill="rgb(50, 49, 63)" stroke="none" stroke-width="1px">500k</text><text x="120" y="0" dx="0em" dy="0.95em" style="text-anchor: middle; visibility: inherit; font-family: Roboto, sans-serif; font-size: 12px; font-weight: 200;" fill="rgb(50, 49, 63)" stroke="none" stroke-width="1px">1M</text><text x="160" y="0" dx="0em" dy="0.95em" style="text-anchor: middle; visibility: inherit; font-family: Roboto, sans-serif; font-size: 12px; font-weight: 200;" fill="rgb(50, 49, 63)" stroke="none" stroke-width="1px">1.5M</text><text x="200" y="0" dx="0em" dy="0.95em" style="text-anchor: middle; visibility: inherit; font-family: Roboto, sans-serif; font-size: 12px; font-weight: 200;" fill="rgb(50, 49, 63)" stroke="none" stroke-width="1px">2M</text><text x="240" y="0" dx="0em" dy="0.95em" style="text-anchor: middle; visibility: inherit; font-family: Roboto, sans-serif; font-size: 12px; font-weight: 200;" fill="rgb(50, 49, 63)" stroke="none" stroke-width="1px">2.5M</text><text x="280" y="0" dx="0em" dy="0.95em" style="text-anchor: middle; visibility: inherit; font-family: Roboto, sans-serif; font-size: 12px; font-weight: 200;" fill="rgb(50, 49, 63)" stroke="none" stroke-width="1px">3M</text><text x="320" y="0" dx="0em" dy="0.95em" style="text-anchor: middle; visibility: hidden; font-family: Roboto, sans-serif; font-size: 12px; font-weight: 200;" fill="rgb(50, 49, 63)" stroke="none" stroke-width="1px">3.5M</text></g><line x1="0" y1="0" x2="320" y2="0" fill="rgb(0, 0, 0)" stroke="rgb(204, 204, 204)" stroke-width="1px"></line></g></g></g></g></svg>