<svg viewBox="0 0 330 200" xmlns="http://www.w3.org/2000/svg"><g><g><g><g><g><line x1="70" y1="178" x2="65" y2="178" style="visibility: inherit;" fill="rgb(0, 0, 0)" stroke="rgb(204, 204, 204)" stroke-width="1px"></line><line x1="70" y1="160.20000000000002" x2="65" y2="160.20000000000002" style="visibility: inherit;" fill="rgb(0, 0, 0)" stroke="rgb(204, 204, 204)" stroke-width="1px"></line><line x1="70" y1="142.4" x2="65" y2="142.4" style="visibility: inherit;" fill="rgb(0, 0, 0)" stroke="rgb(204, 204, 204)" stroke-width="1px"></line><line x1="70" y1="124.6" x2="65" y2="124.6" style="visibility: inherit;" fill="rgb(0, 0, 0)" stroke="rgb(204, 204, 204)" stroke-width="1px"></line><line x1="70" y1="106.8" x2="65" y2="106.8" style="visibility: inherit;" fill="rgb(0, 0, 0)" stroke="rgb(204, 204, 204)" stroke-width="1px"></line><line x1="70" y1="89" x2="65" y2="89" style="visibility: inherit;" fill="rgb(0, 0, 0)" stroke="rgb(204, 204, 204)" stroke-width="1px"></line><line x1="70" y1="71.2" x2="65" y2="71.2" style="visibility: inherit;" fill="rgb(0, 0, 0)" stroke="rgb(204, 204, 204)" stroke-width="1px"></line><line x1="70" y1="53.400000000000006" x2="65" y2="53.400000000000006" style="visibility: inherit;" fill="rgb(0, 0, 0)" stroke="rgb(204, 204, 204)" stroke-width="1px"></line><line x1="70" y1="35.599999999999994" x2="65" y2="35.599999999999994" style="visibility: inherit;" fill="rgb(0, 0, 0)" stroke="rgb(204, 204, 204)" stroke-width="1px"></line><line x1="70" y1="17.799999999999997" x2="65" y2="17.799999999999997" style="visibility: inherit;" fill="rgb(0, 0, 0)" stroke="rgb(204, 204, 204)" stroke-width="1px"></line><line x1="70" y1="0" x2="65" y2="0" style="visibility: inherit;" fill="rgb(0, 0, 0)" stroke="rgb(204, 204, 204)" stroke-width="1px"></line></g><g transform="translate(60, 0)"><text x="0" y="178" dx="0em" dy="0.3em" style="text-anchor: end; visibility: hidden; font-family: Roboto, sans-serif; font-size: 12px; font-weight: 200;" fill="rgb(50, 49, 63)" stroke="none" stroke-width="1px">1e+3</text><text x="0" y="160.20000000000002" dx="0em" dy="0.3em" style="text-anchor: end; visibility: inherit; font-family: Roboto, sans-serif; font-size: 12px; font-weight: 200;" fill="rgb(50, 49, 63)" stroke="none" stroke-width="1px">1.1e+3</text><text x="0" y="142.4" dx="0em" dy="0.3em" style="text-anchor: end; visibility: hidden; font-family: Roboto, sans-serif; font-size: 12px; font-weight: 200;" fill="rgb(50, 49, 63)" stroke="none" stroke-width="1px">1.2e+3</text><text x="0" y="124.6" dx="0em" dy="0.3em" style="text-anchor: end; visibility: inherit; font-family: Roboto, sans-serif; font-size: 12px; font-weight: 200;" fill="rgb(50, 49, 63)" stroke="none" stroke-width="1px">1.3e+3</text><text x="0" y="106.8" dx="0em" dy="0.3em" style="text-anchor: end; visibility: hidden; font-family: Roboto, sans-serif; font-size: 12px; font-weight: 200;" fill="rgb(50, 49, 63)" stroke="none" stroke-width="1px">1.4e+3</text><text x="0" y="89" dx="0em" dy="0.3em" style="text-anchor: end; visibility: inherit; font-family: Roboto, sans-serif; font-size: 12px; font-weight: 200;" fill="rgb(50, 49, 63)" stroke="none" stroke-width="1px">1.5e+3</text><text x="0" y="71.2" dx="0em" dy="0.3em" style="text-anchor: end; visibility: hidden; font-family: Roboto, sans-serif; font-size: 12px; font-weight: 200;" fill="rgb(50, 49, 63)" stroke="none" stroke-width="1px">1.6e+3</text><text x="0" y="53.400000000000006" dx="0em" dy="0.3em" style="text-anchor: end; visibility: inherit; font-family: Roboto, sans-serif; font-size: 12px; font-weight: 200;" fill="rgb(50, 49, 63)" stroke="none" stroke-width="1px">1.7e+3</text><text x="0" y="35.599999999999994" dx="0em" dy="0.3em" style="text-anchor: end; visibility: hidden; font-family: Roboto, sans-serif; font-size: 12px; font-weight: 200;" fill="rgb(50, 49, 63)" stroke="none" stroke-width="1px">1.8e+3</text><text x="0" y="17.799999999999997" dx="0em" dy="0.3em" style="text-anchor: end; visibility: inherit; font-family: Roboto, sans-serif; font-size: 12px; font-weight: 200;" fill="rgb(50, 49, 63)" stroke="none" stroke-width="1px">1.9e+3</text><text x="0" y="0" dx="0em" dy="0.3em" style="text-anchor: end; visibility: hidden; font-family: Roboto, sans-serif; font-size: 12px; font-weight: 200;" fill="rgb(50, 49, 63)" stroke="none" stroke-width="1px">2e+3</text></g><line x1="70" y1="0" x2="70" y2="178" fill="rgb(0, 0, 0)" stroke="rgb(204, 204, 204)" stroke-width="1px"></line></g></g><g transform="translate(70, 0)" clip-path="url(#clip_0)"><clipPath id="clip_0"><rect width="260" height="178"></rect></clipPath><g><g><g><line x1="0" y1="0" x2="0" y2="178" fill="rgb(0, 0, 0)" stroke="rgb(60, 60, 60)" stroke-width="1px" opacity="0.25"></line><line x1="21.666666666666664" y1="0" x2="21.666666666666664" y2="178" fill="rgb(0, 0, 0)" stroke="rgb(60, 60, 60)" stroke-width="1px" opacity="0.25"></line><line x1="43.33333333333333" y1="0" x2="43.33333333333333" y2="178" fill="rgb(0, 0, 0)" stroke="rgb(60, 60, 60)" stroke-width="1px" opacity="0.25"></line><line x1="65" y1="0" x2="65" y2="178" fill="rgb(0, 0, 0)" stroke="rgb(60, 60, 60)" stroke-width="1px" opacity="0.25"></line><line x1="86.66666666666666" y1="0" x2="86.66666666666666" y2="178" fill="rgb(0, 0, 0)" stroke="rgb(60, 60, 60)" stroke-width="1px" opacity="0.25"></line><line x1="108.33333333333334" y1="0" x2="108.33333333333334" y2="178" fill="rgb(0, 0, 0)" stroke="rgb(60, 60, 60)" stroke-width="1px" opacity="0.25"></line><line x1="130" y1="0" x2="130" y2="178" fill="rgb(0, 0, 0)" stroke="rgb(60, 60, 60)" stroke-width="1px" opacity="0.25"></line><line x1="151.66666666666669" y1="0" x2="151.66666666666669" y2="178" fill="rgb(0, 0, 0)" stroke="rgb(60, 60, 60)" stroke-width="1px" opacity="0.25"></line><line x1="173.33333333333331" y1="0" x2="173.33333333333331" y2="178" fill="rgb(0, 0, 0)" stroke="rgb(60, 60, 60)" stroke-width="1px" opacity="0.25"></line><line x1="195" y1="0" x2="195" y2="178" fill="rgb(0, 0, 0)" stroke="rgb(60, 60, 60)" stroke-width="1px" opacity="0.25"></line><line x1="216.66666666666669" y1="0" x2="216.66666666666669" y2="178" fill="rgb(0, 0, 0)" stroke="rgb(60, 60, 60)" stroke-width="1px" opacity="0.25"></line><line x1="238.33333333333331" y1="0" x2="238.33333333333331" y2="178" fill="rgb(0, 0, 0)" stroke="rgb(60, 60, 60)" stroke-width="1px" opacity="0.25"></line><line x1="260" y1="0" x2="260" y2="178" fill="rgb(0, 0, 0)" stroke="rgb(60, 60, 60)" stroke-width="1px" opacity="0.25"></line></g><g><line x1="0" y1="178" x2="260" y2="178" fill="rgb(0, 0, 0)" stroke="rgb(60, 60, 60)" stroke-width="1px" opacity="0.25"></line><line x1="0" y1="160.20000000000002" x2="260" y2="160.20000000000002" fill="rgb(0, 0, 0)" stroke="rgb(60, 60, 60)" stroke-width="1px" opacity="0.25"></line><line x1="0" y1="142.4" x2="260" y2="142.4" fill="rgb(0, 0, 0)" stroke="rgb(60, 60, 60)" stroke-width="1px" opacity="0.25"></line><line x1="0" y1="124.6" x2="260" y2="124.6" fill="rgb(0, 0, 0)" stroke="rgb(60, 60, 60)" stroke-width="1px" opacity="0.25"></line><line x1="0" y1="106.8" x2="260" y2="106.8" fill="rgb(0, 0, 0)" stroke="rgb(60, 60, 60)" stroke-width="1px" opacity="0.25"></line><line x1="0" y1="89" x2="260" y2="89" fill="rgb(0, 0, 0)" stroke="rgb(60, 60, 60)" stroke-width="1px" opacity="0.25"></line><line x1="0" y1="71.2" x2="260" y2="71.2" fill="rgb(0, 0, 0)" stroke="rgb(60, 60, 60)" stroke-width="1px" opacity="0.25"></line><line x1="0" y1="53.400000000000006" x2="260" y2="53.400000000000006" fill="rgb(0, 0, 0)" stroke="rgb(60, 60, 60)" stroke-width="1px" opacity="0.25"></line><line x1="0" y1="35.599999999999994" x2="260" y2="35.599999999999994" fill="rgb(0, 0, 0)" stroke="rgb(60, 60, 60)" stroke-width="1px" opacity="0.25"></line><line x1="0" y1="17.799999999999997" x2="260" y2="17.799999999999997" fill="rgb(0, 0, 0)" stroke="rgb(60, 60, 60)" stroke-width="1px" opacity="0.25"></line><line x1="0" y1="0" x2="260" y2="0" fill="rgb(0, 0, 0)" stroke="rgb(60, 60, 60)" stroke-width="1px" opacity="0.25"></line></g></g></g><g><g><line x1="0" y1="356" x2="260" y2="356" fill="rgb(0, 0, 0)" stroke="rgb(153, 153, 153)" stroke-width="1.5px"></line></g></g><g><g><line x1="21.666666666666664" y1="0" x2="21.666666666666664" y2="178" fill="rgb(0, 0, 0)" stroke="rgb(153, 153, 153)" stroke-width="1.5px"></line></g></g><g><g><g><g><g><path stroke="rgb(238, 51, 119)" stroke-width="2px" d="M22.424999999999997,158.71665942382813L22.533333333333335,158.71665942382808L22.966666666666665,155.64102129504147L23.075,154.28412212057677L23.291666666666668,153.11849811955813L23.4,152.4799715454233L23.508333333333336,151.48163591906393L23.724999999999998,150.56590071645778L23.833333333333332,150.0264035413511L23.941666666666666,149.51219668209666L24.05,149.2056697079512L24.48333333333333,148.67650845198958L25.458333333333332,147.76162569816665L25.566666666666666,147.14491938824904L25.783333333333335,146.81764775474147L26.108333333333334,146.62112246871425L26.216666666666665,146.50324278594857L26.433333333333334,146.36899580698304L26.65,146.23536600148373L26.758333333333333,146.15519332980654L26.974999999999998,146.10915151130433L27.191666666666666,146.03593134929633L27.3,145.95701668245863L27.625,145.87771852044898L27.733333333333334,145.83013986372066L27.84166666666667,145.80494764479036L27.95,145.7898323409351L28.05833333333333,145.780763168523L28.383333333333333,145.72374684494952L28.491666666666667,145.68953706425057L28.708333333333332,145.63158600039472L28.925,145.52900501004152L29.03333333333333,145.46745642105455L29.141666666666666,145.40667805011012L29.25,145.3702110286579L29.575,145.32132661669058L29.683333333333334,145.2667300517077L29.791666666666664,145.23397211293425L29.900000000000002,145.20398326769373L30.116666666666667,145.1859899605922L30.441666666666666,145.06629934735304L30.983333333333334,145.0123979677609L31.091666666666665,144.98005714002215L31.2,144.9429134832256L31.308333333333334,144.92062728915178L31.416666666666668,144.90725557270898L31.525,144.9086453358129L32.06666666666667,144.8859689397685L32.93333333333334,144.74929278964052L33.25833333333334,144.1380673729981L33.36666666666667,143.57416757223365L34.125,142.89090054333818L34.45,142.30294032600185L34.666666666666664,141.69806126591303L34.775,141.33513382986007L34.88333333333333,140.98642395025965L35.31666666666667,140.6695288818745L35.425000000000004,140.4662417431872L35.53333333333333,140.34426945997484L35.858333333333334,140.04213706660988L35.96666666666667,139.68522169309094L36.291666666666664,139.0532678791358L36.724999999999994,138.1974762548252L36.94166666666667,137.27780840914514L37.15833333333333,136.72600770173707L37.266666666666666,136.3949272772922L37.375,135.68379894450038L37.483333333333334,135.25712194482523L37.91666666666667,134.71356926064516L38.13333333333333,134.0038598181058L38.458333333333336,132.99110348851977L38.56666666666667,132.3834496907681L38.675,132.01885741211711L38.89166666666667,131.30444852930157L39,130.87580319961216L39.108333333333334,130.32856639242357L39.43333333333334,129.60353983545411L39.65,129.16852390127247L39.75833333333333,128.9075143407635L39.975,128.2426525497706L40.083333333333336,127.84373547517485L40.40833333333334,127.20969978119867L40.95,125.98991449762542L41.05833333333334,125.2580433274815L41.166666666666664,124.81892062539515L41.38333333333334,124.2185072580496L41.49166666666667,123.85825923764227L41.708333333333336,123.26698933164786L41.925000000000004,122.9122273880512L42.03333333333333,122.355877155487L42.141666666666666,122.02206701594842L42.25,121.82178093222534L42.46666666666667,121.40622314917894L42.575,121.1568884793511L43.33333333333333,120.43373308761066L43.766666666666666,119.2082091885039L44.2,118.05366486857106L44.30833333333333,117.36093827661139L44.416666666666664,116.94530232143558L44.849999999999994,116.26370580692385L45.175,115.38300444118558L45.5,114.52991614127386L45.608333333333334,114.01806316132684L45.93333333333333,113.25013301398363L46.04166666666667,112.7893749255777L46.25833333333333,112.08505952565915L46.36666666666667,111.66247028570801L46.475,111.20667640970605L46.69166666666667,110.93320008410491L46.8,110.76911428874419L47.01666666666667,110.51392199121526L47.125,110.36080661269793L47.233333333333334,110.07568396761876L47.55833333333334,109.6272589157275L47.88333333333333,109.35820388459273L48.425,108.61972233075566L48.641666666666666,107.99983281251586L48.858333333333334,107.62789910157198L48.96666666666666,107.40473887500569L49.50833333333334,106.75911881328469L49.833333333333336,106.10603310437706L49.94166666666666,105.7141816790325L50.050000000000004,105.47907082382577L50.15833333333333,105.10327550210796L50.375,104.8777983090773L50.80833333333333,104.48551580185266L51.025,103.96707588736157L51.24166666666667,103.65601193866692L51.45833333333333,103.26265716320015L52,102.81685113385758L52.21666666666667,102.29154564125207L52.650000000000006,101.70361732615751L53.19166666666667,100.5588211769445L53.40833333333333,99.8719434874167L53.516666666666666,99.45981687370002L53.84166666666667,98.65361395234505L54.05833333333333,97.83881915265702L54.16666666666667,97.34994227284419L54.275,97.05661614495652L54.49166666666667,96.45626255806765L54.6,96.09605040593434L54.708333333333336,95.87992311465436L55.14166666666667,95.00478482582385L55.25,94.47970185252554L55.46666666666667,93.82716476385909L55.791666666666664,93.43564251065916L56.225,92.7927545493642L56.333333333333336,91.96202177258728L56.44166666666666,91.46358210652113L56.55,91.16451830688145L56.766666666666666,90.53438715600386L57.09166666666666,89.77040133657104L57.2,89.31200984491139L57.30833333333334,89.03697494991556L57.63333333333334,88.45827784104307L57.74166666666667,88.1110595757196L57.958333333333336,87.46912305011924L58.60833333333333,86.25519209179029L58.825,85.52683351679295L59.15,84.68326915304453L59.25833333333333,84.17713053479548L59.475,83.45835449275229L59.58333333333333,83.0270888675264L60.125,81.98085332051585L60.233333333333334,81.35311199230948L60.45,80.58130371882322L60.666666666666664,80.11821875473146L60.775000000000006,79.84036777627637L60.88333333333333,79.30342066576584L61.208333333333336,78.58822700883451L61.31666666666667,78.15911081467567L61.641666666666666,77.4744410981804L61.75,77.06363926828324L61.96666666666667,76.39138356096991L62.074999999999996,75.98803013658194L62.29166666666667,75.74601808194917L62.725,74.80692911088825L62.833333333333336,74.2434757282517L62.94166666666667,73.90540369866977L63.15833333333333,73.35795491451434L63.26666666666667,73.02948564402111L63.59166666666667,72.43226042938139L63.699999999999996,72.0739253005976L63.80833333333334,71.85892422332729L63.916666666666664,71.23081088165262L64.13333333333334,70.85394287664782L64.24166666666666,70.62782207364494L64.35,70.03361707231194L64.45833333333333,69.67709407151219L65.43333333333332,68.35388739993859L65.54166666666667,67.55996339699438L65.75833333333334,67.08360899522788L66.08333333333333,66.36561617838672L66.84166666666667,65.24702605468828L66.95,64.20563545703173L67.38333333333333,63.17353049296904L67.49166666666666,62.554267514531425L67.60000000000001,62.18270972746886L67.81666666666666,61.56105679351259L68.03333333333333,60.78151581438878L68.46666666666665,59.87876026988326L69.44166666666666,58.56316329083617L69.55,57.66130354090796L69.65833333333335,57.12018769095103L69.76666666666667,56.79551818097684L69.98333333333333,56.25967438514858L70.09166666666667,55.938168107651634L70.41666666666666,55.3970952981847L70.74166666666667,54.818262745317085L71.5,53.96473225656522L71.60833333333332,53.45261396331412L71.71666666666667,53.14534298736348L71.825,52.673329620543115L72.04166666666667,52.390121600450904L72.15,52.22019678839554L72.25833333333333,51.78146729178731L72.475,51.51822959382237L72.58333333333333,50.956588537543446L72.69166666666668,50.61960390377608L72.90833333333333,50.41741312351562L73.125,50.097447874109385L73.23333333333333,49.90546872446563L73.66666666666667,49.44851775811685L74.425,48.849679697838845L74.75,48.35082764292206L74.85833333333333,47.97532754278449L75.075,47.75002748270195L75.29166666666667,47.416196665402445L75.61666666666666,47.16748704221022L76.80833333333334,46.84951761595116L77.13333333333334,46.49924865550818L77.24166666666666,46.28908727924243L77.35,46.16299045348296L77.56666666666666,46.08305618615226L77.78333333333335,46.035095625753854L77.89166666666667,45.94437563717107L78.10833333333333,45.88994364402141L78.64999999999999,45.83734636219406L78.75833333333334,45.80578799309768L79.40833333333333,45.57966722945237L79.625,45.44399477126518L79.73333333333332,45.36259129635285L79.84166666666667,45.23400555906171L79.95,45.156854116687015L80.05833333333334,45.11056325126221L80.16666666666667,45.08278873200735L80.275,44.831873239204384L80.38333333333333,44.68132394352263L80.49166666666666,44.5909943661136L80.6,44.46559661966817L80.81666666666668,44.3903579718009L81.14166666666667,44.2384147830805L81.25,44.14724886984829L81.35833333333333,44.092549321908955L81.57499999999999,43.93441689783286L82.00833333333334,43.83597396682472L82.225,43.78830264181358L82.44166666666666,43.7596998468069L82.875,43.78170164636534L82.98333333333333,43.85827176906924L83.09166666666667,43.90421384269152L83.30833333333334,43.93177908686489L83.52499999999999,43.820867452118954L83.74166666666666,43.90597681892765L83.95833333333334,43.95704243901282L84.06666666666666,43.9876818110639L84.39166666666667,44.04593291476335L84.60833333333333,43.97408357698297L84.71666666666665,43.93097397431479L84.825,43.90510821271386L84.93333333333334,43.71657762294083L85.04166666666667,43.60345926907701L85.15,43.53558825675873L85.36666666666666,43.35032756343026L85.475,43.23917114743316L86.01666666666667,43.134026516584896L86.125,43.0709397380759L86.34166666666667,43.033087670970545L86.45,42.96053990726983L86.55833333333334,42.91701124904941L86.88333333333334,42.771986925210854L87.10000000000001,42.6849723309078L87.31666666666666,42.561563574325916L87.53333333333333,42.4875183203768L87.75,42.45163482035107L87.96666666666667,42.44007376330439L88.075,42.43313712907638L88.18333333333334,42.42897514853957L88.50833333333333,42.438585089123706L88.94166666666668,42.46286374878674L89.05000000000001,42.541512682865815L89.26666666666667,42.588702043313226L89.375,42.6170156595817L89.59166666666667,42.573485567624026L90.025,42.53811116479313L90.56666666666666,42.5261428707509L91.325,42.40148015604431L91.43333333333334,42.3138627030016L91.64999999999999,42.261292231175965L91.75833333333333,42.22974994808058L91.86666666666666,42.203706316504594L91.97500000000001,42.188080137558984L92.08333333333334,42.178704430191665L92.19166666666666,42.14174648623999L92.40833333333333,42.119571719868986L92.51666666666667,42.10626686004644L92.95,42.25279107305911L93.05833333333334,42.34070560086672L93.275,42.39345431755127L93.49166666666666,42.274159895218276L93.81666666666666,42.13637210900597L94.03333333333335,42.053699437278574L94.14166666666667,41.977039486585895L94.25,41.931043516170305L94.575,41.94616419563971L94.68333333333334,41.95523660332135L94.79166666666666,41.960680047930325L94.89999999999999,42.03086994282069L95.00833333333334,42.07298387975492L95.22500000000001,42.13599032785296L95.33333333333333,42.17379419671175L95.44166666666666,42.196476518027026L95.65833333333333,42.1609620826912L95.76666666666667,42.13965342148971L95.875,42.12686822476885L95.98333333333332,42.11919710673634L96.09166666666667,42.0903801781043L96.2,42.0730900209251L96.41666666666667,42.0883468836488L96.525,42.097501001283035L96.85,41.97198790545731L97.28333333333333,41.75713082921188L97.60833333333333,41.67734041158967L97.71666666666667,41.629466161016275L97.82499999999999,41.600741610672266L98.04166666666667,41.4710140093721L98.15,41.39317744859202L98.25833333333334,41.34647551212395L98.36666666666667,41.3184543502431L98.58333333333333,41.26889243436463L98.69166666666666,41.23915528483752L98.8,41.13088760449623L99.23333333333333,40.998281781447716L99.66666666666667,40.86247619777486L99.77499999999999,40.78099284757114L99.99166666666666,40.64594492729269L100.10000000000001,40.564916175125624L100.20833333333334,40.51629892382539L100.31666666666666,40.48712857304523L100.425,40.453251753202125L100.53333333333333,40.432925661296295L100.85833333333333,40.30823713505901L100.96666666666665,40.233424019316615L101.61666666666666,40.13584884518373L101.83333333333333,40.07730374070399L101.94166666666666,40.042176678016155L102.05,39.87442426852843L102.15833333333335,39.77377282283581L102.375,39.71338195542026L102.7,39.721291087314654L102.80833333333334,39.698980218795064L103.13333333333334,39.685593697683295L103.24166666666667,39.65335621860997L103.35000000000001,39.63401373116598L103.56666666666666,39.62240823869959L103.78333333333333,39.49796320493848L104.10833333333332,39.40051600890058L104.21666666666667,39.342047691277855L104.43333333333334,39.27991035304796L104.75833333333333,39.12870968839128L104.86666666666666,39.03798928959728L104.975,38.9835570503209L105.19166666666668,38.889658058317494L105.30000000000001,38.83331866311552L105.40833333333333,38.79951502599427L105.625,38.80202171090906L105.73333333333333,38.803525721857916L105.84166666666667,38.80442812842723L106.38333333333334,38.77933861533759L106.81666666666666,38.80202299342132L106.925,38.815633620271505L107.14166666666668,38.91778017216291L107.35833333333333,38.97906810329775L107.575,39.05855912369742L107.68333333333334,39.10625373593719L107.79166666666667,39.15907606968734L107.89999999999999,39.1907694699374L108.00833333333333,39.20978551008742L108.11666666666666,39.22119513417745L108.33333333333334,39.16182977581901L108.55,39.11695421314764L108.76666666666667,39.090028875544824L109.09166666666665,38.99484271595187L109.30833333333334,38.93773102019612L109.41666666666667,38.78028939336767L109.525,38.68582441727063L109.95833333333333,38.577170822237406L110.175,38.48562632146745L110.28333333333335,38.43069962100545L110.5,38.300199948384524L110.825,38.22190014481198L111.04166666666666,38.14644721579346L111.14999999999999,38.10117545838232L111.25833333333334,38.105336232060644L111.58333333333333,38.10783269626763L111.90833333333333,37.971206746666816L112.01666666666667,37.88923117690632L112.23333333333332,37.92121487801882L112.45,37.88629240337382L112.66666666666667,37.865338918586815L113.20833333333333,37.82428508943331L113.42500000000001,37.77900201069128L113.53333333333333,37.75183216344599L113.64166666666667,37.66433025509887L113.75,37.61182911009057L114.07499999999999,37.48492285667933L114.725,37.333302932757626L114.94166666666666,37.12841271668584L115.05,37.00547858704279L115.15833333333333,36.931718109256934L115.26666666666668,36.853287213210415L115.375,36.80622867558249L115.80833333333334,36.63203007644326L116.02499999999999,36.52751091695968L116.13333333333333,36.437743073613305L116.45833333333334,36.300583930105454L116.56666666666666,36.21828844400077L116.675,36.16891115233798L116.78333333333333,36.13928477734028L116.89166666666667,36.04460738984169L117.10833333333333,35.987800957342486L117.21666666666665,35.95371709784302L117.325,35.73533738761205L117.43333333333334,35.604309561473464L117.65,35.552036518134074L117.975,35.52067269213044L118.19166666666666,35.55311631059073L118.3,35.572582481666906L118.51666666666667,35.58711296556266L118.625,35.595831255900116L118.95,35.61886223010255L119.05833333333334,35.63268081462402L119.27499999999999,35.694371965336906L119.38333333333334,35.731386655764624L120.14166666666667,35.422513731740004L120.25,35.23718997732525L120.35833333333332,35.12599572467639L120.46666666666667,34.98950456371211L120.575,34.90760986713354L120.68333333333334,34.85847304918639L120.79166666666667,34.82899095841805L121.00833333333333,34.70734379380083L121.11666666666666,34.63435549503053L121.225,34.59056251576832L121.55000000000001,34.47101924774225L121.65833333333333,34.39929328692661L121.76666666666667,34.34343788621845L121.875,34.309924645793565L122.09166666666667,34.36244209216363L122.74166666666667,34.47227082170441L122.85,34.409300578960156L122.95833333333333,34.37151843331361L123.175,34.34884914592566L123.60833333333333,34.39505313989917L123.93333333333334,34.38860092690825L124.25833333333333,34.321360556144924L124.69166666666666,34.25324729071816L125.01666666666667,34.21024124552463L125.125,34.184437618408566L125.23333333333333,34.06500622338886L125.45,33.9933473863771L125.55833333333334,33.95035208417002L125.66666666666667,33.932385859877016L125.99166666666666,33.945811691707476L126.1,33.95386719080576L126.31666666666666,33.95870049026469L126.53333333333335,34.012871075408846L126.64166666666667,34.04537342649533L126.85833333333333,34.07697327464719L127.075,34.09593318353831L127.18333333333334,34.026852781216725L127.39999999999999,33.9854045398238L127.61666666666667,33.89930463795679L127.72500000000001,33.847644696836554L127.83333333333333,33.81664873216441L127.94166666666666,33.748214629923645L128.26666666666668,33.70715416857915L128.375,33.485292501147526L128.48333333333332,33.35217550068854L128.80833333333334,33.208936257444385L128.91666666666666,33.122992711497886L129.78333333333333,33.10773927924245L130.10833333333332,33.18402374332671L130.21666666666667,33.22979442177732L130.43333333333334,33.35267108666015L130.64999999999998,33.38011534730861L130.75833333333333,33.39658190369767L131.08333333333334,33.399343575812374L131.1916666666667,33.401000579081185L131.40833333333333,33.401994781042426L131.51666666666668,33.35132069675043L131.625,33.320916246175216L131.73333333333335,33.30267357583013L132.05833333333334,33.23334779784186L132.92499999999998,33.1988705927676L133.03333333333336,33.248671574410565L133.14166666666668,33.27855216339634L133.35833333333335,33.301469383975295L133.57500000000002,33.31521971632267L133.68333333333334,33.323469915731096L133.79166666666666,33.208800211157396L134.00833333333333,33.139998388413225L134.225,33.0681061619542L134.33333333333334,33.02497082607878L134.44166666666666,32.9990896245535L134.76666666666665,32.93656647004456L134.875,32.89905257733923L134.98333333333332,33.00754980812231L135.525,33.09970449424837L135.74166666666667,33.06599730592406L135.85,33.04577299292947L136.06666666666666,33.03363840513269L136.175,33.111802867298366L136.39166666666665,33.15870154459778L137.04166666666666,33.3242518837899L137.15,33.69557095449266L137.36666666666667,33.918362396914326L137.58333333333334,34.15456109049235L138.01666666666668,34.262818392576655L138.23333333333332,34.327772773827235L138.45,34.30551444554632L138.66666666666666,34.292159448577806L138.88333333333333,34.30265914570918L139.1,34.30895896398798L139.20833333333334,34.38606824948655L139.3166666666667,34.43233382078568L139.425,34.46009316356516L139.53333333333333,34.41979398407659L139.96666666666667,34.52875812872718L140.18333333333334,34.59413661551758L140.29166666666666,34.75226214509182L140.94166666666666,34.97886441596135L141.15833333333336,35.1924313448893L141.375,35.320571502246054L141.48333333333335,35.38677385837891L141.59166666666667,35.42649527205857L142.24166666666667,35.62477333511011L142.56666666666666,35.790013219816075L142.78333333333333,35.88915715063965L143.10833333333332,35.89595620444631L143.43333333333334,35.88437372266778L143.54166666666669,35.87742423360065L143.75833333333333,35.833378368285395L143.86666666666667,35.806950849096275L143.975,35.79109433758276L144.08333333333334,35.78158043067468L144.3,35.67762443027977L144.40833333333333,35.615250830042875L144.625,35.39697588865072L144.73333333333332,35.266010923815415L144.84166666666667,35.187431944914245L145.16666666666666,34.950890123979775L145.275,34.80896503141911L145.49166666666667,34.717404409476465L146.35833333333332,34.43249342693587L146.46666666666667,34.26154683741152L146.575,34.158978883696925L146.68333333333334,33.99561828724943L147.00833333333333,33.87624714422464L147.11666666666665,33.80462445840977L147.225,33.761650846920844L147.55,33.81275955112125L147.65833333333333,33.843424773641495L147.76666666666668,33.82479851652864L148.09166666666667,33.813622762260934L149.39166666666668,33.861742700325316L149.71666666666667,34.04653849128892L149.93333333333334,34.15741596586708L150.04166666666666,34.33928610295772L150.25833333333333,34.44840818521214L150.36666666666667,34.513881434564766L150.69166666666666,34.57524155605137L151.01666666666665,34.77368301956833L151.125,34.86924633517845L151.23333333333332,34.926584324544564L151.34166666666664,34.960987118164205L151.45000000000002,34.98162879433603L151.55833333333334,34.99757727660158L151.66666666666669,35.00714636596096L151.775,35.01288781957655L151.99166666666667,35.011352515964695L152.20833333333334,35.010431333797534L152.31666666666666,34.99777149559101L152.53333333333333,34.990175592667114L152.75,35.08529978919403L152.96666666666667,35.142374307110174L153.075,35.25493727957861L153.1833333333333,35.32247506305969L153.29166666666666,35.36299773314832L153.4,35.38731133520149L153.50833333333335,35.43322332455838L153.94166666666666,35.45293956114127L154.48333333333332,35.44127643199728L154.59166666666667,35.43427855451086L154.80833333333334,35.484905218644016L154.91666666666666,35.51528121712392L155.35,35.554148906055595L155.45833333333334,35.63158221472708L155.5666666666667,35.678042199930005L155.78333333333333,35.70591819105178L156.10833333333335,35.79171439119354L156.43333333333334,35.9442905487786L156.65,35.973179895673404L156.86666666666667,35.99051350381029L156.975,36.00091366869243L157.19166666666666,35.95945533012171L157.29999999999998,35.93458032697924L157.625,35.85272280556254L157.73333333333335,35.80360829271254L157.84166666666667,35.66876497562751L158.05833333333334,35.58785898537648L158.16666666666666,35.539315391225884L158.275,35.53653288707931L158.49166666666667,35.534863384591326L158.6,35.59865611669228L158.70833333333334,35.636931755952894L158.81666666666666,35.65989713950922L158.92499999999998,35.67367636964302L159.03333333333333,35.7702312124108L159.57500000000002,35.865189508696496L159.68333333333334,35.92216448646789L159.9,36.0731185160995L160.33333333333334,36.15229650028467L160.44166666666666,36.19980329079578L160.65833333333333,36.14357484557125L161.09166666666667,36.02440125499899L161.3083333333333,35.95289710065567L161.525,35.82882556508092L161.74166666666667,35.754382643736086L161.85000000000002,35.70971689092916L161.95833333333334,35.59463013455748L162.06666666666666,35.52557808073449L162.28333333333333,35.37236667265945L162.60833333333332,35.280439827814426L162.71666666666667,35.19751467793863L162.93333333333334,35.14775958801321L163.04166666666666,35.117906534057916L163.14999999999998,35.1754621821535L163.36666666666665,35.209995571010836L163.8,35.20152117073153L164.01666666666668,35.14161983134516L164.125,35.10567902771334L164.34166666666667,35.12326933069048L164.45,35.13382351247677L164.775,35.0098631504548L164.88333333333333,34.93548693324161L165.42499999999998,34.828204855257454L165.53333333333336,34.675548303779436L165.64166666666668,34.583954372892705L165.75,34.52899801436061L165.96666666666667,34.36288054689764L166.18333333333334,34.26321006641983L166.29166666666666,34.20340777813314L166.4,34.06001370984862L166.50833333333333,33.97397726887793L166.61666666666667,33.92235540429552L166.725,33.89138228554602L167.04999999999998,33.71900398070265L167.375,33.556484126702834L167.59166666666664,33.61988490961544L167.80833333333334,33.65792537936301L167.91666666666669,33.680749661211564L168.025,33.80622440610192L168.13333333333333,33.88150925303614L168.24166666666667,33.92668016119666L168.675,34.1146954014055L169.10833333333332,34.434698979124576L169.325,34.71498843044348L169.4333333333333,34.88316210123485L169.75833333333335,35.09015360839718L169.86666666666667,35.21434851269455L169.97500000000002,35.288865455273L170.3,35.421150230195074L170.625,35.61515205217955L170.73333333333332,35.731553145370235L170.84166666666667,35.862624758315896L171.05833333333334,35.94126772608329L171.16666666666666,36.12516063564999L171.27499999999998,36.23549638138997L171.6,36.42273435227151L171.8166666666667,36.53507713480041L171.925,36.62669706213022L172.03333333333333,36.68166901852817L172.14166666666668,36.71465219236688L172.25,36.775734967763846L172.35833333333335,36.812384633002054L172.575,36.834374432144934L172.68333333333334,36.913075440536986L173.00833333333333,37.020101611978426L173.54999999999998,37.06651731484329L174.85,37.47528499828097L174.95833333333334,37.72054560834357L175.06666666666666,37.86770197438113L175.17499999999998,38.020790227597445L175.60833333333332,38.168893960777204L175.93333333333334,38.14739272412257L176.04166666666669,38.13449198212978L176.25833333333333,38.11393171271535L176.36666666666667,38.10159555106667L176.475,38.09419385407751L176.58333333333334,38.27060361713399L176.8,38.37644947496793L177.01666666666665,38.615818903730755L177.125,38.75944056098848L177.23333333333332,38.84561355534308L177.45,38.98133717617457L177.5583333333333,39.062771348673465L177.66666666666666,39.11163185217284L177.88333333333335,39.19078467770997L178.10000000000002,39.40275254490723L178.75,39.57193883163185L178.96666666666667,39.67345060366659L179.50833333333333,39.87390688563746L179.61666666666665,39.994180654819985L180.05,40.20590282648577L180.59166666666667,40.38205995761023L180.7,40.48775423628489L181.13333333333333,40.64728906520842L181.56666666666666,41.18872265787503L181.89166666666668,41.513582813475026L182.21666666666667,41.880806035741266L182.32500000000002,42.31260188316352L182.43333333333334,42.57167939161684L182.75833333333333,42.9713457209076L182.86666666666667,43.21114551848204L183.19166666666666,43.57859443999551L183.40833333333333,43.970649535091056L183.51666666666665,44.20588259214836L183.625,44.34702242638276L184.38333333333333,44.939362674579684L184.49166666666667,45.29476682349783L184.6,45.50800931284866L184.70833333333334,45.635954806459196L184.925,45.75046018856302L185.03333333333333,45.81916341782532L185.14166666666665,45.836179788976445L185.25,45.84638961166712L185.35833333333332,45.85251550528153L185.46666666666667,46.00713469379387L185.575,46.099906206901295L185.6833333333333,46.155569114765804L185.79166666666666,46.18896685948449L186.11666666666667,46.38843089694071L186.33333333333334,46.58286410457069L186.875,46.962256548679925L186.98333333333332,47.18989201514546L187.09166666666667,47.32647329502478L187.30833333333334,47.35217128170237L188.0666666666667,47.27645198777139L188.28333333333333,47.23102041141287L188.825,46.93747416091022L188.93333333333334,46.761346410608624L189.36666666666667,46.751788022146414L189.58333333333331,46.79233472735035L189.69166666666666,46.81666275047268L189.90833333333336,46.83125956434611L190.01666666666668,46.880606519857686L190.23333333333335,46.91021469316462L190.34166666666667,46.87955977292999L190.99166666666667,46.84194143016427L191.1,46.76312833466107L191.20833333333334,46.71584047735913L191.75,46.717366200477976L191.85833333333332,46.79659989606802L192.83333333333334,46.86052341420335L192.94166666666666,46.89887752508453L193.26666666666665,46.84214633926948L193.375,46.80810762778042L193.48333333333332,46.787684400887024L193.7,46.637297945219714L193.91666666666666,46.39469702885061L194.13333333333335,46.24913647902911L194.45833333333334,46.25578901632372L194.56666666666666,46.25978053870051L194.78333333333333,46.25006832322031L194.89166666666668,46.244240993932166L195.10833333333332,46.30909381510928L195.325,46.34800550781559L195.43333333333334,46.37135252343936L195.64999999999998,46.46439168984487L195.75833333333333,46.52021518968817L196.1916666666667,46.518109289594136L196.3,46.61937826906899L196.51666666666668,46.6801396567539L196.625,46.82125840342733L196.73333333333335,46.90592965143137L196.84166666666667,46.95673240023382L197.05833333333334,47.17091561201527L197.16666666666666,47.299425539084154L197.275,47.37653149532548L197.38333333333333,47.34091333078901L197.81666666666666,47.34089721722341L198.03333333333336,47.34088754908404L198.14166666666668,47.340881748200424L198.25,47.40424731063899L198.46666666666667,47.442266648102176L198.68333333333334,47.480740164642555L198.9,47.50382427456681L199.11666666666667,47.57037073661508L199.225,47.61029861384404L199.33333333333334,47.634255340181454L199.54999999999998,47.77820955176513L199.65833333333333,47.864582078715316L199.76666666666665,47.91783098551044L199.875,47.949780329587526L199.98333333333332,47.968949936033766L200.09166666666664,47.980451699901494L200.30833333333334,48.01227101994091L200.41666666666669,48.03136261196454L200.74166666666667,47.98941756717871L200.85,47.96425054030723L201.06666666666666,48.01180667184061L201.175,48.040340350760616L201.5,48.040373253425145L201.60833333333332,48.040392995023836L201.71666666666667,48.04040483998304L201.825,48.08241751336479L201.9333333333333,48.10762511739389L202.15,48.12274967981131L202.58333333333334,48.17596806960558L202.8,48.20789910348212L202.90833333333333,48.227057723808066L203.01666666666668,48.218614810066065L203.34166666666667,48.213549061820856L203.45,48.26818578474874L203.66666666666666,48.3009678185055L204.1,48.435980691103296L204.20833333333334,48.58320823888074L204.3166666666667,48.67154476754717L204.425,48.72454668474703L204.64166666666668,48.75278435850447L205.075,48.64370157213389L205.18333333333334,48.57825190031161L205.4,48.49768922612444L205.50833333333333,48.44935162161214L205.61666666666667,48.42034905890482L205.725,48.4029475212804L205.94166666666666,48.183174079174485L206.26666666666668,47.80567349047345L206.375,47.579173137252845L206.48333333333335,47.44327292532046L206.59166666666667,47.36173279816104L206.70000000000002,47.09707063592787L207.025,46.76810429561921L207.13333333333333,46.57072449143402L207.56666666666666,46.19882912845413L207.67499999999998,45.97569191066625L207.89166666666665,45.709378622962234L208,45.549590650339844L208.10833333333332,45.45371786676642L208.54166666666669,45.27942515365361L208.86666666666667,45.08228604922341L209.08333333333334,44.73117719594026L209.40833333333333,44.52051188397037L209.51666666666665,44.083681739757246L209.625,43.821583653229325L209.73333333333332,43.66432480131262L209.84166666666667,43.56996949016255L210.0583333333333,43.272699955816286L210.16666666666666,43.09433823520854L210.275,42.98732120284387L210.60000000000002,42.79851098342508L210.70833333333334,42.68522485177382L210.925,42.4655968251268L211.03333333333333,42.33382000913858L211.14166666666668,42.25475391954568L211.46666666666667,42.03857061344618L211.68333333333334,41.81488045400517L211.79166666666666,41.68066635834059L211.89999999999998,41.600137900941874L212.00833333333333,41.55182082650263L212.76666666666668,41.29854884355787L212.875,40.895960263165925L213.2,40.65440711493079L213.74166666666667,40.139238702552205L214.17499999999998,39.6208051355938L214.39166666666668,39.30974499541879L214.60833333333335,38.96789777850129L214.82500000000002,38.762789448350766L214.93333333333334,38.54573558307295L215.04166666666666,38.41550326390629L215.15,38.337363872406236L215.58333333333334,38.12601275703747L215.69166666666666,37.99920208781623L215.79999999999998,37.730157776127236L216.01666666666665,37.56873118911381L216.125,37.42061332284329L216.23333333333332,37.33174260308095L216.66666666666669,37.211496343098545L216.88333333333333,37.13934858710914L217.1,36.95009645695297L217.31666666666666,36.6799086554218L217.425,36.517795974503066L217.64166666666665,36.42052836595182L218.075,36.14500432425861L218.29166666666666,35.850109723461415L218.4,35.67317296298308L218.72500000000002,35.4922474301336L219.05,35.227768282298875L219.48333333333332,34.975091926410556L219.7,34.69603533162756L219.80833333333334,34.52860137475779L220.13333333333333,34.196036996729674L220.5666666666667,33.703146026162834L220.675,33.40741144382272L220.78333333333333,33.22997069441862L220.89166666666668,33.123506244776166L221.21666666666667,32.8659656609282L221.325,32.71144131061942L221.43333333333334,32.383771915277876L221.65,32.18717027807297L221.75833333333333,31.857025994968744L221.86666666666667,31.65893942510623L222.08333333333331,31.54008748318875L222.19166666666666,31.26087788053824L222.51666666666668,31.093352118947934L222.625,30.762862052618736L222.84166666666667,30.56456801282122L223.05833333333334,30.23056619831771L223.16666666666666,30.030165109615616L223.275,29.909924456394346L224.03333333333333,29.296661802742868L224.14166666666665,28.928704210551977L224.25,28.707929655237425L224.35833333333332,28.338363359548705L225.00833333333333,27.96924340635425L225.11666666666667,27.74777143443757L225.225,27.47533903253758L225.33333333333334,27.31187959139758L225.44166666666666,27.213803926713553L225.65833333333333,27.05313870368436L225.98333333333332,26.76663244096059L226.3083333333333,26.59472868332636L226.74166666666667,26.25663164358957L226.85000000000002,25.779655158028717L226.95833333333334,25.493469266692205L227.06666666666666,25.321757731890337L227.175,25.079172900852942L227.39166666666668,24.93362200223052L227.5,24.84629146305708L227.93333333333334,24.58528200674054L228.25833333333333,24.310481899356823L228.36666666666665,24.21395105367658L228.6916666666667,24.15603254626848L228.8,24.33701952776111L228.90833333333333,24.44561171665665L229.01666666666668,24.510767029993982L229.125,24.509984046121374L229.34166666666667,24.50951425579779L229.45,24.509232381603677L229.55833333333334,24.467770385993475L229.66666666666666,24.442893188627334L229.775,24.42796687020766L230.20833333333331,24.37344203618708L230.31666666666666,24.340727135774724L230.42499999999998,24.186529152558563L230.75,24.02566114387888L230.96666666666667,23.929140338671093L231.07500000000002,23.871227855546422L231.18333333333334,23.80230575629661L231.4,23.760952496746697L231.50833333333333,23.736140541016756L231.61666666666667,23.68779145351631L231.83333333333334,23.65878200101601L231.94166666666666,23.59010572404712L232.26666666666665,23.54889995786578L232.48333333333332,23.47148919346945L232.70000000000002,23.425042734831703L232.80833333333334,23.39433276980529L233.025,23.375906790789433L233.35,23.312867902598654L233.56666666666666,23.27504456968419L233.675,23.250933870716764L233.78333333333333,23.23646745133629L234,23.298274904395544L234.21666666666667,23.335359376231104L234.325,23.357610059332433L234.4333333333333,23.436458906693225L234.86666666666667,23.35845551979719L234.97500000000002,23.31165348765956L235.19166666666666,23.283572268376986L235.40833333333333,23.202650489932417L235.95,23.04230855567819L236.38333333333333,22.805841481063144L236.49166666666665,22.65327949801289L236.6,22.561742308182726L236.70833333333334,22.50681999428462L238.00833333333333,22.09294834422699L238.225,21.892332483098702L238.33333333333331,21.771962966421746" style="fill: none;" fill="none"></path></g></g></g></g><g opacity="0.2"><g><g><g><path stroke="rgb(238, 51, 119)" stroke-width="2px" d="M22.424999999999997,158.71665942382813L22.533333333333335,158.71665942382813L22.966666666666665,152.68840869140624L23.075,152.68840869140624L23.291666666666668,151.59665942382813L23.4,151.59665942382813L23.508333333333336,150.054L23.724999999999998,149.23075L23.833333333333332,149.23075L23.941666666666666,148.74865942382812L24.05,148.74865942382812L24.48333333333333,147.88564624023437L25.458333333333332,146.3922888183594L25.566666666666666,146.22106811523437L25.783333333333335,146.327125L26.108333333333334,146.32647314453126L26.216666666666665,146.32647314453126L26.433333333333334,146.16765942382813L26.65,146.03494165039064L26.758333333333333,146.03494165039064L26.974999999999998,146.04009130859376L27.191666666666666,145.92610351562502L27.3,145.83864624023437L27.625,145.75877221679687L27.733333333333334,145.75877221679687L27.84166666666667,145.76715942382813L27.95,145.76715942382813L28.05833333333333,145.76715942382813L28.383333333333333,145.63822241210937L28.491666666666667,145.63822241210937L28.708333333333332,145.5446594238281L28.925,145.37513354492188L29.03333333333333,145.37513354492188L29.141666666666666,145.31551049804688L29.25,145.31551049804688L29.575,145.24800000000002L29.683333333333334,145.18483520507814L29.791666666666664,145.18483520507814L29.900000000000002,145.159L30.116666666666667,145.159L30.441666666666666,144.8867634277344L30.983333333333334,144.9315458984375L31.091666666666665,144.9315458984375L31.2,144.88719799804687L31.308333333333334,144.88719799804687L31.416666666666668,144.88719799804687L31.525,144.91072998046874L32.06666666666667,144.85195434570312L32.93333333333334,144.54427856445312L33.25833333333334,143.22122924804688L33.36666666666667,142.72831787109376L34.125,141.86599999999999L34.45,141.421L34.666666666666664,140.79074267578125L34.775,140.79074267578125L34.88333333333333,140.46335913085937L35.31666666666667,140.1941862792969L35.425000000000004,140.16131103515625L35.53333333333333,140.16131103515625L35.858333333333334,139.5889384765625L35.96666666666667,139.1498486328125L36.291666666666664,138.10533715820313L36.724999999999994,136.91378881835936L36.94166666666667,135.898306640625L37.15833333333333,135.898306640625L37.266666666666666,135.898306640625L37.375,134.61710644531252L37.483333333333334,134.61710644531252L37.91666666666667,133.89824023437498L38.13333333333333,132.93929565429687L38.458333333333336,131.4719689941406L38.56666666666667,131.4719689941406L38.675,131.4719689941406L38.89166666666667,130.23283520507815L39,130.23283520507815L39.108333333333334,129.50771118164062L39.43333333333334,128.516L39.65,128.516L39.75833333333333,128.516L39.975,127.24535986328127L40.083333333333336,127.24535986328127L40.40833333333334,126.25864624023438L40.95,124.16023657226563L41.05833333333334,124.16023657226563L41.166666666666664,124.16023657226563L41.38333333333334,123.31788720703125L41.49166666666667,123.31788720703125L41.708333333333336,122.38008447265626L41.925000000000004,122.38008447265626L42.03333333333333,121.52135180664062L42.141666666666666,121.52135180664062L42.25,121.52135180664062L42.46666666666667,120.78288647460937L42.575,120.78288647460937L43.33333333333333,119.349L43.766666666666666,117.36992333984377L44.2,116.32184838867187L44.30833333333333,116.32184838867187L44.416666666666664,116.32184838867187L44.849999999999994,115.24131103515626L45.175,114.06195239257814L45.5,113.25028369140625L45.608333333333334,113.25028369140625L45.93333333333333,112.09823779296876L46.04166666666667,112.09823779296876L46.25833333333333,111.02858642578124L46.36666666666667,111.02858642578124L46.475,110.52298559570313L46.69166666666667,110.52298559570313L46.8,110.52298559570313L47.01666666666667,110.13113354492187L47.125,110.13113354492187L47.233333333333334,109.648L47.55833333333334,108.95462133789063L47.88333333333333,108.95462133789063L48.425,107.512L48.641666666666666,107.06999853515626L48.858333333333334,107.06999853515626L48.96666666666666,107.06999853515626L49.50833333333334,105.79068872070312L49.833333333333336,105.12640454101562L49.94166666666666,105.12640454101562L50.050000000000004,105.12640454101562L50.15833333333333,104.53958251953125L50.375,104.53958251953125L50.80833333333333,103.89709204101564L51.025,103.189416015625L51.24166666666667,103.189416015625L51.45833333333333,102.672625L52,102.14814208984376L52.21666666666667,101.50358740234375L52.650000000000006,100.82172485351563L53.19166666666667,98.84162695312499L53.40833333333333,98.84162695312499L53.516666666666666,98.84162695312499L53.84166666666667,97.44430957031251L54.05833333333333,96.616626953125L54.16666666666667,96.616626953125L54.275,96.616626953125L54.49166666666667,95.55573217773436L54.6,95.55573217773436L54.708333333333336,95.55573217773436L55.14166666666667,93.69207739257813L55.25,93.69207739257813L55.46666666666667,92.84835913085938L55.791666666666664,92.84835913085938L56.225,91.82842260742189L56.333333333333336,90.71592260742186L56.44166666666666,90.71592260742186L56.55,90.71592260742186L56.766666666666666,89.5891904296875L57.09166666666666,88.62442260742188L57.2,88.62442260742188L57.30833333333334,88.62442260742188L57.63333333333334,87.59023217773436L57.74166666666667,87.59023217773436L57.958333333333336,86.50621826171874L58.60833333333333,84.43429565429688L58.825,84.43429565429688L59.15,83.41792260742187L59.25833333333333,83.41792260742187L59.475,82.3801904296875L59.58333333333333,82.3801904296875L60.125,80.4115L60.233333333333334,80.4115L60.45,79.42359130859376L60.666666666666664,79.42359130859376L60.775000000000006,79.42359130859376L60.88333333333333,78.49799999999999L61.208333333333336,77.5154365234375L61.31666666666667,77.5154365234375L61.641666666666666,76.4474365234375L61.75,76.4474365234375L61.96666666666667,75.383L62.074999999999996,75.383L62.29166666666667,75.383L62.725,73.39829565429686L62.833333333333336,73.39829565429686L62.94166666666667,73.39829565429686L63.15833333333333,72.53678173828125L63.26666666666667,72.53678173828125L63.59166666666667,71.53642260742188L63.699999999999996,71.53642260742188L63.80833333333334,71.53642260742188L63.916666666666664,70.28864086914062L64.13333333333334,70.28864086914062L64.24166666666666,70.28864086914062L64.35,69.1423095703125L64.45833333333333,69.1423095703125L65.43333333333332,66.36907739257812L65.54166666666667,66.36907739257812L65.75833333333334,66.36907739257812L66.08333333333333,65.28862695312499L66.84166666666667,63.56914086914063L66.95,62.64354956054689L67.38333333333333,61.625373046875L67.49166666666666,61.625373046875L67.60000000000001,61.625373046875L67.81666666666666,60.62857739257812L68.03333333333333,59.61220434570313L68.46666666666665,58.52462695312501L69.44166666666666,56.58976782226562L69.55,56.308513916015634L69.65833333333335,56.308513916015634L69.76666666666667,56.308513916015634L69.98333333333333,55.45590869140624L70.09166666666667,55.45590869140624L70.41666666666666,54.585486083984364L70.74166666666667,53.950013916015614L71.5,52.68443652343749L71.60833333333332,52.68443652343749L71.71666666666667,52.68443652343749L71.825,51.9653095703125L72.04166666666667,51.9653095703125L72.15,51.9653095703125L72.25833333333333,51.12337304687499L72.475,51.12337304687499L72.58333333333333,50.114126953125L72.69166666666668,50.114126953125L72.90833333333333,50.114126953125L73.125,49.61750000000001L73.23333333333333,49.61750000000001L73.66666666666667,48.76309130859376L74.425,47.95142260742187L74.75,47.60254956054688L74.85833333333333,47.41207739257812L75.075,47.41207739257812L75.29166666666667,46.915450439453124L75.61666666666666,46.79442260742188L76.80833333333334,46.372563476562505L77.13333333333334,45.97384521484375L77.24166666666666,45.97384521484375L77.35,45.97384521484375L77.56666666666666,45.96315478515624L77.78333333333335,45.96315478515624L77.89166666666667,45.80829565429688L78.10833333333333,45.80829565429688L78.64999999999999,45.758450439453135L78.75833333333334,45.758450439453135L79.40833333333333,45.24048608398437L79.625,45.24048608398437L79.73333333333332,45.24048608398437L79.84166666666667,45.04112695312501L79.95,45.04112695312501L80.05833333333334,45.04112695312501L80.16666666666667,45.04112695312501L80.275,44.45550000000001L80.38333333333333,44.45550000000001L80.49166666666666,44.45550000000001L80.6,44.2775L80.81666666666668,44.2775L81.14166666666667,44.01049999999999L81.25,44.01049999999999L81.35833333333333,44.01049999999999L81.57499999999999,43.69721826171875L82.00833333333334,43.688309570312505L82.225,43.716795654296874L82.44166666666666,43.716795654296874L82.875,43.81470434570313L82.98333333333333,43.97312695312501L83.09166666666667,43.97312695312501L83.30833333333334,43.97312695312501L83.52499999999999,43.65449999999999L83.74166666666666,44.03364086914063L83.95833333333334,44.03364086914063L84.06666666666666,44.03364086914063L84.39166666666667,44.1333095703125L84.60833333333333,43.8663095703125L84.71666666666665,43.8663095703125L84.825,43.8663095703125L84.93333333333334,43.433781738281255L85.04166666666667,43.433781738281255L85.15,43.433781738281255L85.36666666666666,43.0724365234375L85.475,43.0724365234375L86.01666666666667,42.9763095703125L86.125,42.9763095703125L86.34166666666667,42.9763095703125L86.45,42.851718261718744L86.55833333333334,42.851718261718744L86.88333333333334,42.55445043945313L87.10000000000001,42.55445043945313L87.31666666666666,42.37645043945313L87.53333333333333,42.37645043945313L87.75,42.39780957031251L87.96666666666667,42.42273217773438L88.075,42.42273217773438L88.18333333333334,42.42273217773438L88.50833333333333,42.45300000000001L88.94166666666668,42.49928173828124L89.05000000000001,42.659486083984376L89.26666666666667,42.659486083984376L89.375,42.659486083984376L89.59166666666667,42.50819042968751L90.025,42.48504956054687L90.56666666666666,42.50819042968751L91.325,42.21448608398437L91.43333333333334,42.1824365234375L91.64999999999999,42.1824365234375L91.75833333333333,42.1824365234375L91.86666666666666,42.16464086914062L91.97500000000001,42.16464086914062L92.08333333333334,42.16464086914062L92.19166666666666,42.0863095703125L92.40833333333333,42.0863095703125L92.51666666666667,42.0863095703125L92.95,42.47257739257813L93.05833333333334,42.47257739257813L93.275,42.47257739257813L93.49166666666666,42.09521826171875L93.81666666666666,41.92969042968749L94.03333333333335,41.92969042968749L94.14166666666667,41.86204956054688L94.25,41.86204956054688L94.575,41.96884521484375L94.68333333333334,41.96884521484375L94.79166666666666,41.96884521484375L94.89999999999999,42.13615478515625L95.00833333333334,42.13615478515625L95.22500000000001,42.23049999999999L95.33333333333333,42.23049999999999L95.44166666666666,42.23049999999999L95.65833333333333,42.107690429687494L95.76666666666667,42.107690429687494L95.875,42.107690429687494L95.98333333333332,42.107690429687494L96.09166666666667,42.04715478515624L96.2,42.04715478515624L96.41666666666667,42.11123217773438L96.525,42.11123217773438L96.85,41.78371826171875L97.28333333333333,41.434845214843754L97.60833333333333,41.55765478515625L97.71666666666667,41.55765478515625L97.82499999999999,41.55765478515625L98.04166666666667,41.27642260742188L98.15,41.27642260742188L98.25833333333334,41.27642260742188L98.36666666666667,41.27642260742188L98.58333333333333,41.194549560546875L98.69166666666666,41.194549560546875L98.8,40.96848608398437L99.23333333333333,40.799373046875004L99.66666666666667,40.65876782226562L99.77499999999999,40.65876782226562L99.99166666666666,40.443373046875L100.10000000000001,40.443373046875L100.20833333333334,40.443373046875L100.31666666666666,40.443373046875L100.425,40.4024365234375L100.53333333333333,40.4024365234375L100.85833333333333,40.12120434570312L100.96666666666665,40.12120434570312L101.61666666666666,39.989486083984374L101.83333333333333,39.989486083984374L101.94166666666666,39.989486083984374L102.05,39.62279565429687L102.15833333333335,39.62279565429687L102.375,39.62279565429687L102.7,39.73315478515626L102.80833333333334,39.66551391601563L103.13333333333334,39.66551391601563L103.24166666666667,39.605000000000004L103.35000000000001,39.605000000000004L103.56666666666666,39.605000000000004L103.78333333333333,39.311295654296885L104.10833333333332,39.25434521484376L104.21666666666667,39.25434521484376L104.43333333333334,39.18670434570313L104.75833333333333,38.90190869140625L104.86666666666666,38.90190869140625L104.975,38.90190869140625L105.19166666666668,38.748809570312496L105.30000000000001,38.748809570312496L105.40833333333333,38.748809570312496L105.625,38.805781738281254L105.73333333333333,38.805781738281254L105.84166666666667,38.805781738281254L106.38333333333334,38.74170434570311L106.81666666666666,38.836049560546876L106.925,38.836049560546876L107.14166666666668,39.071000000000005L107.35833333333333,39.071000000000005L107.575,39.17779565429688L107.68333333333334,39.17779565429688L107.79166666666667,39.2383095703125L107.89999999999999,39.2383095703125L108.00833333333333,39.2383095703125L108.11666666666666,39.2383095703125L108.33333333333334,39.07278173828124L108.55,39.049640869140624L108.76666666666667,39.049640869140624L109.09166666666665,38.852063476562506L109.30833333333334,38.852063476562506L109.41666666666667,38.544126953124994L109.525,38.544126953124994L109.95833333333333,38.4141904296875L110.175,38.3483095703125L110.28333333333335,38.3483095703125L110.5,38.104450439453124L110.825,38.104450439453124L111.04166666666666,38.03326782226563L111.14999999999999,38.03326782226563L111.25833333333334,38.11157739257811L111.58333333333333,38.11157739257811L111.90833333333333,37.76626782226562L112.01666666666667,37.76626782226562L112.23333333333332,37.969190429687494L112.45,37.83390869140625L112.66666666666667,37.83390869140625L113.20833333333333,37.76270434570313L113.42500000000001,37.71107739257812L113.53333333333333,37.71107739257812L113.64166666666667,37.53307739257812L113.75,37.53307739257812L114.07499999999999,37.2945634765625L114.725,37.105873046875L114.94166666666666,36.82107739257812L115.05,36.82107739257812L115.15833333333333,36.82107739257812L115.26666666666668,36.735640869140624L115.375,36.735640869140624L115.80833333333334,36.370732177734375L116.02499999999999,36.370732177734375L116.13333333333333,36.30309130859374L116.45833333333334,36.09484521484375L116.56666666666666,36.09484521484375L116.675,36.09484521484375L116.78333333333333,36.09484521484375L116.89166666666667,35.90259130859375L117.10833333333333,35.90259130859375L117.21666666666665,35.90259130859375L117.325,35.407767822265626L117.43333333333334,35.407767822265626L117.65,35.473626953125L117.975,35.473626953125L118.19166666666666,35.60178173828125L118.3,35.60178173828125L118.51666666666667,35.608908691406256L118.625,35.608908691406256L118.95,35.653408691406256L119.05833333333334,35.653408691406256L119.27499999999999,35.78690869140626L119.38333333333334,35.78690869140626L120.14166666666667,34.959204345703114L120.25,34.959204345703114L120.35833333333332,34.959204345703114L120.46666666666667,34.78476782226563L120.575,34.78476782226563L120.68333333333334,34.78476782226563L120.79166666666667,34.78476782226563L121.00833333333333,34.524873046875L121.11666666666666,34.524873046875L121.225,34.524873046875L121.55000000000001,34.29170434570313L121.65833333333333,34.29170434570313L121.76666666666667,34.25965478515625L121.875,34.25965478515625L122.09166666666667,34.441218261718745L122.74166666666667,34.637013916015626L122.85,34.31484521484375L122.95833333333333,34.31484521484375L123.175,34.31484521484375L123.60833333333333,34.46435913085938L123.93333333333334,34.378922607421885L124.25833333333333,34.22050000000001L124.69166666666666,34.15107739257812L125.01666666666667,34.14573217773437L125.125,34.14573217773437L125.23333333333333,33.88585913085939L125.45,33.88585913085939L125.55833333333334,33.88585913085939L125.66666666666667,33.90543652343751L125.99166666666666,33.965950439453124L126.1,33.965950439453124L126.31666666666666,33.965950439453124L126.53333333333335,34.09412695312499L126.64166666666667,34.09412695312499L126.85833333333333,34.12437304687501L127.075,34.12437304687501L127.18333333333334,33.92323217773437L127.39999999999999,33.92323217773437L127.61666666666667,33.770154785156244L127.72500000000001,33.770154785156244L127.83333333333333,33.770154785156244L127.94166666666666,33.64556347656251L128.26666666666668,33.64556347656251L128.375,33.1525L128.48333333333332,33.1525L128.80833333333334,32.99407739257813L128.91666666666666,32.99407739257813L129.78333333333333,33.08485913085937L130.10833333333332,33.29845043945312L130.21666666666667,33.29845043945312L130.43333333333334,33.536986083984374L130.64999999999998,33.42128173828125L130.75833333333333,33.42128173828125L131.08333333333334,33.40348608398437L131.1916666666667,33.40348608398437L131.40833333333333,33.40348608398437L131.51666666666668,33.27530957031251L131.625,33.27530957031251L131.73333333333335,33.27530957031251L132.05833333333334,33.12935913085937L132.92499999999998,33.14715478515625L133.03333333333336,33.323373046875L133.14166666666668,33.323373046875L133.35833333333335,33.33584521484376L133.57500000000002,33.33584521484376L133.68333333333334,33.33584521484376L133.79166666666666,33.03679565429688L134.00833333333333,33.03679565429688L134.225,32.960267822265614L134.33333333333334,32.960267822265614L134.44166666666666,32.960267822265614L134.76666666666665,32.84278173828125L134.875,32.84278173828125L134.98333333333332,33.17029565429687L135.525,33.2379365234375L135.74166666666667,33.01543652343751L135.85,33.01543652343751L136.06666666666666,33.01543652343751L136.175,33.22904956054688L136.39166666666665,33.22904956054688L137.04166666666666,33.57257739257812L137.15,34.25254956054687L137.36666666666667,34.25254956054687L137.58333333333334,34.50885913085938L138.01666666666668,34.425204345703115L138.23333333333332,34.425204345703115L138.45,34.27212695312499L138.66666666666666,34.27212695312499L138.88333333333333,34.31840869140624L139.1,34.31840869140624L139.20833333333334,34.50173217773437L139.3166666666667,34.50173217773437L139.425,34.50173217773437L139.53333333333333,34.35934521484374L139.96666666666667,34.692204345703125L140.18333333333334,34.692204345703125L140.29166666666666,34.98945043945314L140.94166666666666,35.318767822265634L141.15833333333336,35.51278173828126L141.375,35.51278173828126L141.48333333333335,35.48607739257813L141.59166666666667,35.48607739257813L142.24166666666667,35.922190429687504L142.56666666666666,36.03787304687499L142.78333333333333,36.03787304687499L143.10833333333332,35.90615478515625L143.43333333333334,35.867000000000004L143.54166666666669,35.867000000000004L143.75833333333333,35.767309570312506L143.86666666666667,35.767309570312506L143.975,35.767309570312506L144.08333333333334,35.767309570312506L144.3,35.5216904296875L144.40833333333333,35.5216904296875L144.625,35.06956347656251L144.73333333333332,35.06956347656251L144.84166666666667,35.06956347656251L145.16666666666666,34.596077392578124L145.275,34.596077392578124L145.49166666666667,34.5800634765625L146.35833333333332,34.005126953125L146.46666666666667,34.005126953125L146.575,34.005126953125L146.68333333333334,33.75057739257812L147.00833333333333,33.69719042968751L147.11666666666665,33.69719042968751L147.225,33.69719042968751L147.55,33.88942260742188L147.65833333333333,33.88942260742188L147.76666666666668,33.796859130859374L148.09166666666667,33.796859130859374L149.39166666666668,33.93392260742188L149.71666666666667,34.323732177734364L149.93333333333334,34.323732177734364L150.04166666666666,34.612091308593754L150.25833333333333,34.612091308593754L150.36666666666667,34.612091308593754L150.69166666666666,34.667281738281254L151.01666666666665,35.071345214843745L151.125,35.01259130859375L151.23333333333332,35.01259130859375L151.34166666666664,35.01259130859375L151.45000000000002,35.01259130859375L151.55833333333334,35.021499999999996L151.66666666666669,35.021499999999996L151.775,35.021499999999996L151.99166666666667,35.009049560546885L152.20833333333334,35.009049560546885L152.31666666666666,34.978781738281256L152.53333333333333,34.978781738281256L152.75,35.22798608398438L152.96666666666667,35.22798608398438L153.075,35.42378173828125L153.1833333333333,35.42378173828125L153.29166666666666,35.42378173828125L153.4,35.42378173828125L153.50833333333335,35.502091308593755L153.94166666666666,35.482513916015634L154.48333333333332,35.42378173828125L154.59166666666667,35.42378173828125L154.80833333333334,35.56084521484375L154.91666666666666,35.56084521484375L155.35,35.61245043945313L155.45833333333334,35.74773217773436L155.5666666666667,35.74773217773436L155.78333333333333,35.74773217773436L156.10833333333335,35.920408691406244L156.43333333333334,36.17315478515626L156.65,36.01651391601563L156.86666666666667,36.01651391601563L156.975,36.01651391601563L157.19166666666666,35.897267822265626L157.29999999999998,35.897267822265626L157.625,35.7299365234375L157.73333333333335,35.7299365234375L157.84166666666667,35.4665L158.05833333333334,35.4665L158.16666666666666,35.4665L158.275,35.53235913085938L158.49166666666667,35.53235913085938L158.6,35.69434521484376L158.70833333333334,35.69434521484376L158.81666666666666,35.69434521484376L158.92499999999998,35.69434521484376L159.03333333333333,35.915063476562494L159.57500000000002,36.007626953125L159.68333333333334,36.007626953125L159.9,36.29954956054688L160.33333333333334,36.27106347656249L160.44166666666666,36.27106347656249L160.65833333333333,36.05923217773437L161.09166666666667,35.845640869140624L161.3083333333333,35.845640869140624L161.525,35.64271826171875L161.74166666666667,35.64271826171875L161.85000000000002,35.64271826171875L161.95833333333334,35.42199999999999L162.06666666666666,35.42199999999999L162.28333333333333,35.14254956054687L162.60833333333332,35.14254956054687L162.71666666666667,35.073126953125L162.93333333333334,35.073126953125L163.04166666666666,35.073126953125L163.14999999999998,35.261795654296876L163.36666666666665,35.261795654296876L163.8,35.18880957031249L164.01666666666668,35.051767822265624L164.125,35.051767822265624L164.34166666666667,35.14965478515625L164.45,35.14965478515625L164.775,34.82392260742188L164.88333333333333,34.82392260742188L165.42499999999998,34.667281738281254L165.53333333333336,34.446563476562496L165.64166666666668,34.446563476562496L165.75,34.446563476562496L165.96666666666667,34.113704345703134L166.18333333333334,34.113704345703134L166.29166666666666,34.113704345703134L166.4,33.844922607421886L166.50833333333333,33.844922607421886L166.61666666666667,33.844922607421886L166.725,33.844922607421886L167.04999999999998,33.460436523437494L167.375,33.31270434570312L167.59166666666664,33.71498608398437L167.80833333333334,33.71498608398437L167.91666666666669,33.71498608398437L168.025,33.99443652343749L168.13333333333333,33.99443652343749L168.24166666666667,33.99443652343749L168.675,34.396718261718746L169.10833333333332,34.91470434570312L169.325,35.13542260742188L169.4333333333333,35.13542260742188L169.75833333333335,35.40064086914063L169.86666666666667,35.40064086914063L169.97500000000002,35.40064086914063L170.3,35.61957739257814L170.625,35.90615478515625L170.73333333333332,35.90615478515625L170.84166666666667,36.05923217773437L171.05833333333334,36.05923217773437L171.16666666666666,36.401L171.27499999999998,36.401L171.6,36.703591308593744L171.8166666666667,36.703591308593744L171.925,36.76412695312499L172.03333333333333,36.76412695312499L172.14166666666668,36.76412695312499L172.25,36.86735913085937L172.35833333333335,36.86735913085937L172.575,36.86735913085937L172.68333333333334,37.031126953125L173.00833333333333,37.18064086914063L173.54999999999998,37.13614086914062L174.85,38.0884365234375L174.95833333333334,38.0884365234375L175.06666666666666,38.0884365234375L175.17499999999998,38.250422607421875L175.60833333333332,38.39104956054687L175.93333333333334,38.11514086914063L176.04166666666669,38.11514086914063L176.25833333333333,38.08309130859375L176.36666666666667,38.08309130859375L176.475,38.08309130859375L176.58333333333334,38.53521826171875L176.8,38.53521826171875L177.01666666666665,38.974873046875004L177.125,38.974873046875004L177.23333333333332,38.974873046875004L177.45,39.18492260742187L177.5583333333333,39.18492260742187L177.66666666666666,39.18492260742187L177.88333333333335,39.309513916015625L178.10000000000002,39.720704345703126L178.75,39.82571826171874L178.96666666666667,39.82571826171874L179.50833333333333,40.174591308593754L179.61666666666665,40.174591308593754L180.05,40.52348608398437L180.59166666666667,40.64629565429688L180.7,40.64629565429688L181.13333333333333,40.88659130859376L181.56666666666666,42.00087304687501L181.89166666666668,42.00087304687501L182.21666666666667,42.43164086914063L182.32500000000002,42.96029565429688L182.43333333333334,42.96029565429688L182.75833333333333,43.57084521484376L182.86666666666667,43.57084521484376L183.19166666666666,44.12976782226563L183.40833333333333,44.558732177734385L183.51666666666665,44.558732177734385L183.625,44.558732177734385L184.38333333333333,45.827873046875L184.49166666666667,45.827873046875L184.6,45.827873046875L184.70833333333334,45.827873046875L184.925,45.92221826171875L185.03333333333333,45.92221826171875L185.14166666666665,45.861704345703124L185.25,45.861704345703124L185.35833333333332,45.861704345703124L185.46666666666667,46.2390634765625L185.575,46.2390634765625L185.6833333333333,46.2390634765625L185.79166666666666,46.2390634765625L186.11666666666667,46.687626953125005L186.33333333333334,46.87451391601562L186.875,47.53134521484375L186.98333333333332,47.53134521484375L187.09166666666667,47.53134521484375L187.30833333333334,47.39071826171874L188.0666666666667,47.16287304687499L188.28333333333333,47.16287304687499L188.825,46.49715478515625L188.93333333333334,46.49715478515625L189.36666666666667,46.73745043945313L189.58333333333331,46.85315478515624L189.69166666666666,46.85315478515624L189.90833333333336,46.85315478515624L190.01666666666668,46.95462695312499L190.23333333333335,46.95462695312499L190.34166666666667,46.83357739257812L190.99166666666667,46.78551391601563L191.1,46.64490869140625L191.20833333333334,46.64490869140625L191.75,46.71965478515626L191.85833333333332,46.915450439453124L192.83333333333334,46.95640869140625L192.94166666666666,46.95640869140625L193.26666666666665,46.757049560546875L193.375,46.757049560546875L193.48333333333332,46.757049560546875L193.7,46.41171826171875L193.91666666666666,46.030795654296874L194.13333333333335,46.030795654296874L194.45833333333334,46.26576782226563L194.56666666666666,46.26576782226563L194.78333333333333,46.23550000000001L194.89166666666668,46.23550000000001L195.10833333333332,46.406373046875L195.325,46.406373046875L195.43333333333334,46.406373046875L195.64999999999998,46.60395043945312L195.75833333333333,46.60395043945312L196.1916666666667,46.51495043945313L196.3,46.771281738281246L196.51666666666668,46.771281738281246L196.625,47.0329365234375L196.73333333333335,47.0329365234375L196.84166666666667,47.0329365234375L197.05833333333334,47.49219042968749L197.16666666666666,47.49219042968749L197.275,47.49219042968749L197.38333333333333,47.28748608398438L197.81666666666666,47.340873046875L198.03333333333336,47.340873046875L198.14166666666668,47.340873046875L198.25,47.49929565429687L198.46666666666667,47.49929565429687L198.68333333333334,47.538450439453136L198.9,47.538450439453136L199.11666666666667,47.670190429687494L199.225,47.670190429687494L199.33333333333334,47.670190429687494L199.54999999999998,47.99414086914063L199.65833333333333,47.99414086914063L199.76666666666665,47.99770434570313L199.875,47.99770434570313L199.98333333333332,47.99770434570313L200.09166666666664,47.99770434570313L200.30833333333334,48.06L200.41666666666669,48.06L200.74166666666667,47.9265L200.85,47.9265L201.06666666666666,48.08314086914062L201.175,48.08314086914062L201.5,48.04042260742188L201.60833333333332,48.04042260742188L201.71666666666667,48.04042260742188L201.825,48.145436523437496L201.9333333333333,48.145436523437496L202.15,48.145436523437496L202.58333333333334,48.25579565429687L202.8,48.25579565429687L202.90833333333333,48.25579565429687L203.01666666666668,48.20595043945312L203.34166666666667,48.20595043945312L203.45,48.35014086914063L203.66666666666666,48.35014086914063L204.1,48.6385L204.20833333333334,48.804049560546865L204.3166666666667,48.804049560546865L204.425,48.804049560546865L204.64166666666668,48.79514086914062L205.075,48.48007739257812L205.18333333333334,48.48007739257812L205.4,48.37684521484374L205.50833333333333,48.37684521484374L205.61666666666667,48.37684521484374L205.725,48.37684521484374L205.94166666666666,47.853513916015636L206.26666666666668,47.23942260742187L206.375,47.23942260742187L206.48333333333335,47.23942260742187L206.59166666666667,47.23942260742187L206.70000000000002,46.700077392578116L207.025,46.27465478515625L207.13333333333333,46.27465478515625L207.56666666666666,45.64098608398439L207.67499999999998,45.64098608398439L207.89166666666665,45.30990869140626L208,45.30990869140626L208.10833333333332,45.30990869140626L208.54166666666669,45.017986083984376L208.86666666666667,44.78657739257813L209.08333333333334,44.20451391601562L209.40833333333333,44.20451391601562L209.51666666666665,43.428436523437504L209.625,43.428436523437504L209.73333333333332,43.428436523437504L209.84166666666667,43.428436523437504L210.0583333333333,42.82679565429687L210.16666666666666,42.82679565429687L210.275,42.82679565429687L210.60000000000002,42.515295654296864L210.70833333333334,42.515295654296864L210.925,42.13615478515625L211.03333333333333,42.13615478515625L211.14166666666668,42.13615478515625L211.46666666666667,41.714295654296876L211.68333333333334,41.47934521484375L211.79166666666666,41.47934521484375L211.89999999999998,41.47934521484375L212.00833333333333,41.47934521484375L212.76666666666668,40.91864086914062L212.875,40.292077392578136L213.2,40.292077392578136L213.74166666666667,39.366486083984384L214.17499999999998,38.84315478515626L214.39166666666668,38.84315478515626L214.60833333333335,38.455126953125L214.82500000000002,38.455126953125L214.93333333333334,38.22015478515625L215.04166666666666,38.22015478515625L215.15,38.22015478515625L215.58333333333334,37.80898608398438L215.69166666666666,37.80898608398438L215.79999999999998,37.32659130859375L216.01666666666665,37.32659130859375L216.125,37.1984365234375L216.23333333333332,37.1984365234375L216.66666666666669,37.031126953125L216.88333333333333,37.031126953125L217.1,36.666218261718754L217.31666666666666,36.27462695312501L217.425,36.27462695312501L217.64166666666665,36.27462695312501L218.075,35.73171826171876L218.29166666666666,35.407767822265626L218.4,35.407767822265626L218.72500000000002,35.220859130859374L219.05,34.83104956054689L219.48333333333332,34.596077392578124L219.7,34.27745043945313L219.80833333333334,34.27745043945313L220.13333333333333,33.69719042968751L220.5666666666667,32.9638095703125L220.675,32.9638095703125L220.78333333333333,32.9638095703125L220.89166666666668,32.9638095703125L221.21666666666667,32.47965478515625L221.325,32.47965478515625L221.43333333333334,31.892267822265634L221.65,31.892267822265634L221.75833333333333,31.3618095703125L221.86666666666667,31.3618095703125L222.08333333333331,31.3618095703125L222.19166666666666,30.842063476562497L222.51666666666668,30.842063476562497L222.625,30.267126953124997L222.84166666666667,30.267126953124997L223.05833333333334,29.7295634765625L223.16666666666666,29.7295634765625L223.275,29.7295634765625L224.03333333333333,28.376767822265627L224.14166666666665,28.376767822265627L224.25,28.376767822265627L224.35833333333332,27.78401391601563L225.00833333333333,27.4155634765625L225.11666666666667,27.4155634765625L225.225,27.066690429687508L225.33333333333334,27.066690429687508L225.44166666666666,27.066690429687508L225.65833333333333,26.81214086914063L225.98333333333332,26.336873046874995L226.3083333333333,26.336873046874995L226.74166666666667,25.74948608398438L226.85000000000002,25.064190429687493L226.95833333333334,25.064190429687493L227.06666666666666,25.064190429687493L227.175,24.71529565429687L227.39166666666668,24.71529565429687L227.5,24.71529565429687L227.93333333333334,24.19376782226563L228.25833333333333,23.898281738281256L228.36666666666665,24.069154785156243L228.6916666666667,24.069154785156243L228.8,24.608499999999996L228.90833333333333,24.608499999999996L229.01666666666668,24.608499999999996L229.125,24.508809570312504L229.34166666666667,24.508809570312504L229.45,24.508809570312504L229.55833333333334,24.405577392578124L229.66666666666666,24.405577392578124L229.775,24.405577392578124L230.20833333333331,24.29165478515626L230.31666666666666,24.29165478515626L230.42499999999998,23.95523217773438L230.75,23.78435913085937L230.96666666666667,23.78435913085937L231.07500000000002,23.78435913085937L231.18333333333334,23.698922607421874L231.4,23.698922607421874L231.50833333333333,23.698922607421874L231.61666666666667,23.61526782226562L231.83333333333334,23.61526782226562L231.94166666666666,23.487091308593754L232.26666666666665,23.487091308593754L232.48333333333332,23.355373046875005L232.70000000000002,23.355373046875005L232.80833333333334,23.348267822265626L233.025,23.348267822265626L233.35,23.218309570312506L233.56666666666666,23.218309570312506L233.675,23.21476782226562L233.78333333333333,23.21476782226562L234,23.390986083984384L234.21666666666667,23.390986083984384L234.325,23.390986083984384L234.4333333333333,23.554732177734365L234.86666666666667,23.24145043945312L234.97500000000002,23.24145043945312L235.19166666666666,23.24145043945312L235.40833333333333,23.081267822265616L235.95,22.801795654296885L236.38333333333333,22.451140869140616L236.49166666666665,22.424436523437507L236.6,22.424436523437507L236.70833333333334,22.424436523437507L238.00833333333333,21.472140869140624L238.225,21.59140869140624L238.33333333333331,21.59140869140624" style="fill: none;" fill="none"></path></g></g></g></g></g></g><g transform="translate(70, 178)" clip-path="url(#clip_1)"><clipPath id="clip_1"><rect width="260" height="22"></rect></clipPath><g><g><line x1="0" y1="0" x2="0" y2="5" style="visibility: inherit;" fill="rgb(0, 0, 0)" stroke="rgb(204, 204, 204)" stroke-width="1px"></line><line x1="21.666666666666664" y1="0" x2="21.666666666666664" y2="5" style="visibility: inherit;" fill="rgb(0, 0, 0)" stroke="rgb(204, 204, 204)" stroke-width="1px"></line><line x1="43.33333333333333" y1="0" x2="43.33333333333333" y2="5" style="visibility: inherit;" fill="rgb(0, 0, 0)" stroke="rgb(204, 204, 204)" stroke-width="1px"></line><line x1="65" y1="0" x2="65" y2="5" style="visibility: inherit;" fill="rgb(0, 0, 0)" stroke="rgb(204, 204, 204)" stroke-width="1px"></line><line x1="86.66666666666666" y1="0" x2="86.66666666666666" y2="5" style="visibility: inherit;" fill="rgb(0, 0, 0)" stroke="rgb(204, 204, 204)" stroke-width="1px"></line><line x1="108.33333333333334" y1="0" x2="108.33333333333334" y2="5" style="visibility: inherit;" fill="rgb(0, 0, 0)" stroke="rgb(204, 204, 204)" stroke-width="1px"></line><line x1="130" y1="0" x2="130" y2="5" style="visibility: inherit;" fill="rgb(0, 0, 0)" stroke="rgb(204, 204, 204)" stroke-width="1px"></line><line x1="151.66666666666669" y1="0" x2="151.66666666666669" y2="5" style="visibility: inherit;" fill="rgb(0, 0, 0)" stroke="rgb(204, 204, 204)" stroke-width="1px"></line><line x1="173.33333333333331" y1="0" x2="173.33333333333331" y2="5" style="visibility: inherit;" fill="rgb(0, 0, 0)" stroke="rgb(204, 204, 204)" stroke-width="1px"></line><line x1="195" y1="0" x2="195" y2="5" style="visibility: inherit;" fill="rgb(0, 0, 0)" stroke="rgb(204, 204, 204)" stroke-width="1px"></line><line x1="216.66666666666669" y1="0" x2="216.66666666666669" y2="5" style="visibility: inherit;" fill="rgb(0, 0, 0)" stroke="rgb(204, 204, 204)" stroke-width="1px"></line><line x1="238.33333333333331" y1="0" x2="238.33333333333331" y2="5" style="visibility: inherit;" fill="rgb(0, 0, 0)" stroke="rgb(204, 204, 204)" stroke-width="1px"></line><line x1="260" y1="0" x2="260" y2="5" style="visibility: inherit;" fill="rgb(0, 0, 0)" stroke="rgb(204, 204, 204)" stroke-width="1px"></line></g><g transform="translate(0, 8)"><text x="0" y="0" dx="0em" dy="0.95em" style="text-anchor: middle; visibility: hidden; font-family: Roboto, sans-serif; font-size: 12px; font-weight: 200;" fill="rgb(50, 49, 63)" stroke="none" stroke-width="1px">-100k</text><text x="21.666666666666664" y="0" dx="0em" dy="0.95em" style="text-anchor: middle; visibility: inherit; font-family: Roboto, sans-serif; font-size: 12px; font-weight: 200;" fill="rgb(50, 49, 63)" stroke="none" stroke-width="1px">0</text><text x="43.33333333333333" y="0" dx="0em" dy="0.95em" style="text-anchor: middle; visibility: hidden; font-family: Roboto, sans-serif; font-size: 12px; font-weight: 200;" fill="rgb(50, 49, 63)" stroke="none" stroke-width="1px">100k</text><text x="65" y="0" dx="0em" dy="0.95em" style="text-anchor: middle; visibility: inherit; font-family: Roboto, sans-serif; font-size: 12px; font-weight: 200;" fill="rgb(50, 49, 63)" stroke="none" stroke-width="1px">200k</text><text x="86.66666666666666" y="0" dx="0em" dy="0.95em" style="text-anchor: middle; visibility: hidden; font-family: Roboto, sans-serif; font-size: 12px; font-weight: 200;" fill="rgb(50, 49, 63)" stroke="none" stroke-width="1px">300k</text><text x="108.33333333333334" y="0" dx="0em" dy="0.95em" style="text-anchor: middle; visibility: inherit; font-family: Roboto, sans-serif; font-size: 12px; font-weight: 200;" fill="rgb(50, 49, 63)" stroke="none" stroke-width="1px">400k</text><text x="130" y="0" dx="0em" dy="0.95em" style="text-anchor: middle; visibility: hidden; font-family: Roboto, sans-serif; font-size: 12px; font-weight: 200;" fill="rgb(50, 49, 63)" stroke="none" stroke-width="1px">500k</text><text x="151.66666666666669" y="0" dx="0em" dy="0.95em" style="text-anchor: middle; visibility: inherit; font-family: Roboto, sans-serif; font-size: 12px; font-weight: 200;" fill="rgb(50, 49, 63)" stroke="none" stroke-width="1px">600k</text><text x="173.33333333333331" y="0" dx="0em" dy="0.95em" style="text-anchor: middle; visibility: hidden; font-family: Roboto, sans-serif; font-size: 12px; font-weight: 200;" fill="rgb(50, 49, 63)" stroke="none" stroke-width="1px">700k</text><text x="195" y="0" dx="0em" dy="0.95em" style="text-anchor: middle; visibility: inherit; font-family: Roboto, sans-serif; font-size: 12px; font-weight: 200;" fill="rgb(50, 49, 63)" stroke="none" stroke-width="1px">800k</text><text x="216.66666666666669" y="0" dx="0em" dy="0.95em" style="text-anchor: middle; visibility: hidden; font-family: Roboto, sans-serif; font-size: 12px; font-weight: 200;" fill="rgb(50, 49, 63)" stroke="none" stroke-width="1px">900k</text><text x="238.33333333333331" y="0" dx="0em" dy="0.95em" style="text-anchor: middle; visibility: inherit; font-family: Roboto, sans-serif; font-size: 12px; font-weight: 200;" fill="rgb(50, 49, 63)" stroke="none" stroke-width="1px">1M</text><text x="260" y="0" dx="0em" dy="0.95em" style="text-anchor: middle; visibility: hidden; font-family: Roboto, sans-serif; font-size: 12px; font-weight: 200;" fill="rgb(50, 49, 63)" stroke="none" stroke-width="1px">1.1M</text></g><line x1="0" y1="0" x2="260" y2="0" fill="rgb(0, 0, 0)" stroke="rgb(204, 204, 204)" stroke-width="1px"></line></g></g></g></g></svg>