<svg viewBox="0 0 330 200" xmlns="http://www.w3.org/2000/svg"><g><g><g><g><g><line x1="70" y1="178" x2="65" y2="178" style="visibility: inherit;" fill="rgb(0, 0, 0)" stroke="rgb(204, 204, 204)" stroke-width="1px"></line><line x1="70" y1="155.75" x2="65" y2="155.75" style="visibility: inherit;" fill="rgb(0, 0, 0)" stroke="rgb(204, 204, 204)" stroke-width="1px"></line><line x1="70" y1="133.5" x2="65" y2="133.5" style="visibility: inherit;" fill="rgb(0, 0, 0)" stroke="rgb(204, 204, 204)" stroke-width="1px"></line><line x1="70" y1="111.25" x2="65" y2="111.25" style="visibility: inherit;" fill="rgb(0, 0, 0)" stroke="rgb(204, 204, 204)" stroke-width="1px"></line><line x1="70" y1="89" x2="65" y2="89" style="visibility: inherit;" fill="rgb(0, 0, 0)" stroke="rgb(204, 204, 204)" stroke-width="1px"></line><line x1="70" y1="66.75" x2="65" y2="66.75" style="visibility: inherit;" fill="rgb(0, 0, 0)" stroke="rgb(204, 204, 204)" stroke-width="1px"></line><line x1="70" y1="44.5" x2="65" y2="44.5" style="visibility: inherit;" fill="rgb(0, 0, 0)" stroke="rgb(204, 204, 204)" stroke-width="1px"></line><line x1="70" y1="22.25" x2="65" y2="22.25" style="visibility: inherit;" fill="rgb(0, 0, 0)" stroke="rgb(204, 204, 204)" stroke-width="1px"></line><line x1="70" y1="0" x2="65" y2="0" style="visibility: inherit;" fill="rgb(0, 0, 0)" stroke="rgb(204, 204, 204)" stroke-width="1px"></line></g><g transform="translate(60, 0)"><text x="0" y="178" dx="0em" dy="0.3em" style="text-anchor: end; visibility: hidden; font-family: Roboto, sans-serif; font-size: 12px; font-weight: 200;" fill="rgb(50, 49, 63)" stroke="none" stroke-width="1px">-200</text><text x="0" y="155.75" dx="0em" dy="0.3em" style="text-anchor: end; visibility: inherit; font-family: Roboto, sans-serif; font-size: 12px; font-weight: 200;" fill="rgb(50, 49, 63)" stroke="none" stroke-width="1px">0</text><text x="0" y="133.5" dx="0em" dy="0.3em" style="text-anchor: end; visibility: hidden; font-family: Roboto, sans-serif; font-size: 12px; font-weight: 200;" fill="rgb(50, 49, 63)" stroke="none" stroke-width="1px">200</text><text x="0" y="111.25" dx="0em" dy="0.3em" style="text-anchor: end; visibility: inherit; font-family: Roboto, sans-serif; font-size: 12px; font-weight: 200;" fill="rgb(50, 49, 63)" stroke="none" stroke-width="1px">400</text><text x="0" y="89" dx="0em" dy="0.3em" style="text-anchor: end; visibility: hidden; font-family: Roboto, sans-serif; font-size: 12px; font-weight: 200;" fill="rgb(50, 49, 63)" stroke="none" stroke-width="1px">600</text><text x="0" y="66.75" dx="0em" dy="0.3em" style="text-anchor: end; visibility: inherit; font-family: Roboto, sans-serif; font-size: 12px; font-weight: 200;" fill="rgb(50, 49, 63)" stroke="none" stroke-width="1px">800</text><text x="0" y="44.5" dx="0em" dy="0.3em" style="text-anchor: end; visibility: hidden; font-family: Roboto, sans-serif; font-size: 12px; font-weight: 200;" fill="rgb(50, 49, 63)" stroke="none" stroke-width="1px">1e+3</text><text x="0" y="22.25" dx="0em" dy="0.3em" style="text-anchor: end; visibility: inherit; font-family: Roboto, sans-serif; font-size: 12px; font-weight: 200;" fill="rgb(50, 49, 63)" stroke="none" stroke-width="1px">1.2e+3</text><text x="0" y="0" dx="0em" dy="0.3em" style="text-anchor: end; visibility: hidden; font-family: Roboto, sans-serif; font-size: 12px; font-weight: 200;" fill="rgb(50, 49, 63)" stroke="none" stroke-width="1px">1.4e+3</text></g><line x1="70" y1="0" x2="70" y2="178" fill="rgb(0, 0, 0)" stroke="rgb(204, 204, 204)" stroke-width="1px"></line></g></g><g transform="translate(70, 0)" clip-path="url(#clip_0)"><clipPath id="clip_0"><rect width="260" height="178"></rect></clipPath><g><g><g><line x1="0" y1="0" x2="0" y2="178" fill="rgb(0, 0, 0)" stroke="rgb(60, 60, 60)" stroke-width="1px" opacity="0.25"></line><line x1="21.666666666666664" y1="0" x2="21.666666666666664" y2="178" fill="rgb(0, 0, 0)" stroke="rgb(60, 60, 60)" stroke-width="1px" opacity="0.25"></line><line x1="43.33333333333333" y1="0" x2="43.33333333333333" y2="178" fill="rgb(0, 0, 0)" stroke="rgb(60, 60, 60)" stroke-width="1px" opacity="0.25"></line><line x1="65" y1="0" x2="65" y2="178" fill="rgb(0, 0, 0)" stroke="rgb(60, 60, 60)" stroke-width="1px" opacity="0.25"></line><line x1="86.66666666666666" y1="0" x2="86.66666666666666" y2="178" fill="rgb(0, 0, 0)" stroke="rgb(60, 60, 60)" stroke-width="1px" opacity="0.25"></line><line x1="108.33333333333334" y1="0" x2="108.33333333333334" y2="178" fill="rgb(0, 0, 0)" stroke="rgb(60, 60, 60)" stroke-width="1px" opacity="0.25"></line><line x1="130" y1="0" x2="130" y2="178" fill="rgb(0, 0, 0)" stroke="rgb(60, 60, 60)" stroke-width="1px" opacity="0.25"></line><line x1="151.66666666666669" y1="0" x2="151.66666666666669" y2="178" fill="rgb(0, 0, 0)" stroke="rgb(60, 60, 60)" stroke-width="1px" opacity="0.25"></line><line x1="173.33333333333331" y1="0" x2="173.33333333333331" y2="178" fill="rgb(0, 0, 0)" stroke="rgb(60, 60, 60)" stroke-width="1px" opacity="0.25"></line><line x1="195" y1="0" x2="195" y2="178" fill="rgb(0, 0, 0)" stroke="rgb(60, 60, 60)" stroke-width="1px" opacity="0.25"></line><line x1="216.66666666666669" y1="0" x2="216.66666666666669" y2="178" fill="rgb(0, 0, 0)" stroke="rgb(60, 60, 60)" stroke-width="1px" opacity="0.25"></line><line x1="238.33333333333331" y1="0" x2="238.33333333333331" y2="178" fill="rgb(0, 0, 0)" stroke="rgb(60, 60, 60)" stroke-width="1px" opacity="0.25"></line><line x1="260" y1="0" x2="260" y2="178" fill="rgb(0, 0, 0)" stroke="rgb(60, 60, 60)" stroke-width="1px" opacity="0.25"></line></g><g><line x1="0" y1="178" x2="260" y2="178" fill="rgb(0, 0, 0)" stroke="rgb(60, 60, 60)" stroke-width="1px" opacity="0.25"></line><line x1="0" y1="155.75" x2="260" y2="155.75" fill="rgb(0, 0, 0)" stroke="rgb(60, 60, 60)" stroke-width="1px" opacity="0.25"></line><line x1="0" y1="133.5" x2="260" y2="133.5" fill="rgb(0, 0, 0)" stroke="rgb(60, 60, 60)" stroke-width="1px" opacity="0.25"></line><line x1="0" y1="111.25" x2="260" y2="111.25" fill="rgb(0, 0, 0)" stroke="rgb(60, 60, 60)" stroke-width="1px" opacity="0.25"></line><line x1="0" y1="89" x2="260" y2="89" fill="rgb(0, 0, 0)" stroke="rgb(60, 60, 60)" stroke-width="1px" opacity="0.25"></line><line x1="0" y1="66.75" x2="260" y2="66.75" fill="rgb(0, 0, 0)" stroke="rgb(60, 60, 60)" stroke-width="1px" opacity="0.25"></line><line x1="0" y1="44.5" x2="260" y2="44.5" fill="rgb(0, 0, 0)" stroke="rgb(60, 60, 60)" stroke-width="1px" opacity="0.25"></line><line x1="0" y1="22.25" x2="260" y2="22.25" fill="rgb(0, 0, 0)" stroke="rgb(60, 60, 60)" stroke-width="1px" opacity="0.25"></line><line x1="0" y1="0" x2="260" y2="0" fill="rgb(0, 0, 0)" stroke="rgb(60, 60, 60)" stroke-width="1px" opacity="0.25"></line></g></g></g><g><g><line x1="0" y1="155.75" x2="260" y2="155.75" fill="rgb(0, 0, 0)" stroke="rgb(153, 153, 153)" stroke-width="1.5px"></line></g></g><g><g><line x1="21.666666666666664" y1="0" x2="21.666666666666664" y2="178" fill="rgb(0, 0, 0)" stroke="rgb(153, 153, 153)" stroke-width="1.5px"></line></g></g><g><g><g><g><g><path stroke="rgb(238, 51, 119)" stroke-width="2px" d="M22.424999999999997,127.23291553497315L22.533333333333335,127.23291553497313L22.966666666666665,123.95974434366032L23.075,122.51569822984582L23.291666666666668,121.02319572949061L23.4,120.20560574540775L23.508333333333336,119.6006422385234L23.724999999999998,118.90196270996363L23.833333333333332,118.49034193696056L23.941666666666666,118.11856799665183L24.05,117.89694757495184L24.48333333333333,117.2595088696718L25.458333333333332,116.30070305486629L25.566666666666666,115.56737986992073L25.783333333333335,114.92759585511529L26.108333333333334,114.48255024694453L26.216666666666665,114.21560324909031L26.433333333333334,114.00339580233816L26.65,113.87634588634312L26.758333333333333,113.80012089174988L26.974999999999998,113.72792040797857L27.191666666666666,113.69032259647595L27.3,113.6345342733142L27.625,113.53782856523266L27.733333333333334,113.47980543365082L27.84166666666667,113.36292427480183L27.95,113.29279570709444L28.05833333333333,113.25071861240663L28.383333333333333,113.22575755900374L28.491666666666667,113.21078093284812L28.708333333333332,113.1697834193831L28.925,113.11863809870684L29.03333333333333,113.08795090890617L29.141666666666666,113.08625325708708L29.25,113.08523466602672L29.575,113.0438580996043L29.683333333333334,112.97946045872928L29.791666666666664,112.9408218744593L29.900000000000002,112.91530562461874L30.116666666666667,112.8999958747508L30.441666666666666,112.805408810175L30.983333333333334,112.73084190472144L31.091666666666665,112.68610176147229L31.2,112.64686427342932L31.308333333333334,112.62332178060787L31.416666666666668,112.60919628491658L31.525,112.5714119359876L32.06666666666667,112.49674770480375L32.93333333333334,111.96803746870033L33.25833333333334,111.34808421522398L33.36666666666667,110.68881782954621L34.125,109.75439760080117L34.45,108.94625359649004L34.666666666666664,108.29118131133573L34.775,107.89813794024359L34.88333333333333,107.44019216661178L35.31666666666667,106.9319490859777L35.425000000000004,106.36485277067834L35.53333333333333,106.02459498149877L35.858333333333334,105.61268174781038L35.96666666666667,105.27919283469694L36.291666666666664,104.8332698512088L36.724999999999994,104.25873830843035L36.94166666666667,103.59595329694787L37.15833333333333,103.19828229005837L37.266666666666666,102.95967968592467L37.375,102.45494611721885L37.483333333333334,102.1521059759954L37.91666666666667,101.69424603798981L38.13333333333333,101.15925640880462L38.458333333333336,100.54129221808549L38.56666666666667,100.17051370365405L38.675,99.94804659499516L38.89166666666667,99.54440075667972L39,99.30221325369045L39.108333333333334,99.03022486383537L39.43333333333334,98.62889273080123L39.65,98.38809345098073L39.75833333333333,98.24361388308843L39.975,97.88366832985305L40.083333333333336,97.66770099791184L40.40833333333334,97.28460585875686L40.95,96.60411565758811L41.05833333333334,96.19582153688685L41.166666666666664,95.95084506446611L41.38333333333334,95.58962959727342L41.49166666666667,95.3729003169578L41.708333333333336,95.03348405614148L41.925000000000004,94.82983429965168L42.03333333333333,94.49789365230077L42.141666666666666,94.29872926389022L42.25,94.1792306308439L42.46666666666667,93.94749006918018L42.575,93.80844573218194L43.33333333333333,93.44256743930916L43.766666666666666,92.8582567111441L44.2,92.30204518269231L44.30833333333333,91.96831826562125L44.416666666666664,91.76808211537862L44.849999999999994,91.4527205766002L45.175,91.08054955177067L45.5,90.6816479378495L45.608333333333334,90.4423069694968L45.93333333333333,90.09118148394417L46.04166666666667,89.8805061926126L46.25833333333333,89.53807068334102L46.36666666666667,89.33260937777804L46.475,89.10734980635432L46.69166666666667,88.97219406350008L46.8,88.89110061778756L47.01666666666667,88.74182794269402L47.125,88.65226433763789L47.233333333333334,88.49085323148898L47.55833333333334,88.27072711833675L47.88333333333333,88.13865145044542L48.425,87.78029240224967L48.641666666666666,87.43867577704316L48.858333333333334,87.23370580191927L48.96666666666666,87.11072381684494L49.50833333333334,86.72703981989211L49.833333333333336,86.33266505404464L49.94166666666666,86.09604019453616L50.050000000000004,85.95406527883108L50.15833333333333,85.73169191388067L50.375,85.59826789491044L50.80833333333333,85.38394483728804L51.025,85.08128386404275L51.24166666666667,84.89968728009558L51.45833333333333,84.64114479603585L52,84.35741365374454L52.21666666666667,84.0321311451276L52.650000000000006,83.65898065240859L53.19166666666667,82.92335936922834L53.40833333333333,82.48198659932022L53.516666666666666,82.21716293737532L53.84166666666667,81.72674319699549L54.05833333333333,81.10319026634181L54.16666666666667,80.72905850794962L54.275,80.5045794529143L54.49166666666667,80.13804875817436L54.6,79.9181303413304L54.708333333333336,79.786179291224L55.14166666666667,79.2864831179473L55.25,78.98666541398129L55.46666666666667,78.52553446567391L55.791666666666664,78.24885589668952L56.225,77.80294473308207L56.333333333333336,77.25371227441956L56.44166666666666,76.92417279922205L56.55,76.72644911410354L56.766666666666666,76.34437566353049L57.09166666666666,75.83923104997376L57.2,75.53614428183973L57.30833333333334,75.35429222095931L57.63333333333334,74.95103663628652L57.74166666666667,74.70908328548285L57.958333333333336,74.30580910214908L58.60833333333333,73.56633491807656L58.825,73.12265040763305L59.15,72.6357214396482L59.25833333333333,72.34356405885727L59.475,71.93998441309755L59.58333333333333,71.69783662564174L60.125,71.05548099760185L60.233333333333334,70.6700676207779L60.45,70.17093144160737L60.666666666666664,69.87144973410504L60.775000000000006,69.69176070960364L60.88333333333333,69.3316303393364L61.208333333333336,68.85923439867021L61.31666666666667,68.57579683427048L61.641666666666666,68.14540766599197L61.75,67.88717416502486L61.96666666666667,67.46300960765751L62.074999999999996,67.20851087323709L62.29166666666667,67.05581163258482L62.725,66.42885578448254L62.833333333333336,66.05268227562115L62.94166666666667,65.82697817030434L63.15833333333333,65.49753635896971L63.26666666666667,65.29987127216894L63.59166666666667,64.9133840670123L63.699999999999996,64.68149174391833L63.80833333333334,64.54235635006194L63.916666666666664,64.1585001137481L64.13333333333334,63.92818637195981L64.24166666666666,63.78999812688681L64.35,63.46144431070239L64.45833333333333,63.264312020991746L65.43333333333332,62.41845601752669L65.54166666666667,61.91094241544766L65.75833333333334,61.60643425420025L66.08333333333333,61.16296000930724L66.84166666666667,60.43051633151209L66.95,59.743184798907244L67.38333333333333,59.08336598798692L67.49166666666666,58.687474701434724L67.60000000000001,58.44993992950342L67.81666666666666,58.05154406634462L68.03333333333333,57.57265089659388L68.46666666666665,57.063705863884074L69.44166666666666,56.403229713398815L69.55,55.89435771939672L69.65833333333335,55.58903452299545L69.76666666666667,55.4058406051547L69.98333333333333,55.211373168024465L70.09166666666667,55.09469270574632L70.41666666666666,54.908540080234914L70.74166666666667,54.71185469999641L71.5,54.34998162492947L71.60833333333332,54.132857779889335L71.71666666666667,54.002583472865226L71.825,53.826075626932045L72.04166666666667,53.72017091937212L72.15,53.65662809483617L72.25833333333333,53.523717182829415L72.475,53.44397063562539L72.58333333333333,53.339161403592044L72.69166666666668,53.27627586437201L72.90833333333333,53.23854454084001L73.125,53.12646302821496L73.23333333333333,53.05921412063991L73.66666666666667,52.88536477609488L74.425,52.623077996516315L74.75,52.43322179790979L74.85833333333333,52.31307742689041L75.075,52.24099080427878L75.29166666666667,52.12164556899306L75.61666666666666,52.05804810189386L76.80833333333334,51.8574635352086L77.13333333333334,51.678817903839985L77.24166666666666,51.57163052501883L77.35,51.50731809772615L77.56666666666666,51.496320424065374L77.78333333333335,51.489721819868905L77.89166666666667,51.49688765735102L78.10833333333333,51.501187159840285L78.64999999999999,51.53269294775964L78.75833333333334,51.55159642051126L79.40833333333333,51.4623680695919L79.625,51.408831059040295L79.73333333333332,51.376708852709356L79.84166666666667,51.330291180766224L79.95,51.30244057760035L80.05833333333334,51.28573021570083L80.16666666666667,51.27570399856112L80.275,51.17490305099213L80.38333333333333,51.11442248245075L80.49166666666666,51.07813414132591L80.6,51.045236136651035L80.81666666666668,51.025497333846076L81.14166666666667,50.95090753116702L81.25,50.906153649559585L81.35833333333333,50.87930132059513L81.57499999999999,50.79065470593131L82.00833333333334,50.68050814948652L82.225,50.58326967240676L82.44166666666666,50.5249265861589L82.875,50.50816725540626L82.98333333333333,50.49188100509923L83.09166666666667,50.48210925491499L83.30833333333334,50.476246204804454L83.52499999999999,50.40508750559751L83.74166666666666,50.46118369842687L83.95833333333334,50.49484141412447L84.06666666666666,50.515036043543034L84.39166666666667,50.529822712551606L84.60833333333333,50.4906339534587L84.71666666666665,50.467120698002944L84.825,50.453012744729506L84.93333333333334,50.35243264683771L85.04166666666667,50.29208458810261L85.15,50.25587575286157L85.36666666666666,50.17229479986146L85.475,50.122146228061425L86.01666666666667,50.00928773683685L86.125,49.941572642102116L86.34166666666667,49.90094358526126L86.45,49.85253712893996L86.55833333333334,49.823493255147184L86.88333333333334,49.76423682222894L87.10000000000001,49.72868296247798L87.31666666666666,49.68153988612937L87.53333333333333,49.6532540403202L87.75,49.619372315549526L87.96666666666667,49.59281262883167L88.075,49.57687681680094L88.18333333333334,49.56731532958251L88.50833333333333,49.605190284175265L88.94166666666668,49.622130039645796L89.05000000000001,49.69192237193202L89.26666666666667,49.73379777130374L89.375,49.758923010926765L89.59166666666667,49.78823848062835L90.025,49.79737265380668L90.56666666666666,49.827773049071126L91.325,49.85135306894463L91.43333333333334,49.900212384579646L91.64999999999999,49.92952797396069L91.75833333333333,49.9471173275893L91.86666666666666,49.95722550519615L91.97500000000001,49.96329041176028L92.08333333333334,49.96692935569875L92.19166666666666,49.980237722061815L92.40833333333333,49.98822274187967L92.51666666666667,49.993013753770384L92.95,50.03727303497707L93.05833333333334,50.063828603701076L93.275,50.079761944935505L93.49166666666666,49.96783781881677L93.81666666666666,49.88332769129006L94.03333333333335,49.832621614774034L94.14166666666667,49.82756329479217L94.25,49.82452830280303L94.575,49.845402742179864L94.68333333333334,49.857927405805974L94.79166666666666,49.865442203981615L94.89999999999999,49.89175564831671L95.00833333333334,49.90754371491776L95.22500000000001,49.97709046845259L95.33333333333333,50.018818520573504L95.44166666666666,50.04385535184608L95.65833333333333,50.06065918889083L95.76666666666667,50.07074149111771L95.875,50.07679087245383L95.98333333333332,50.080420501255496L96.09166666666667,50.06657621432753L96.2,50.058269642170735L96.41666666666667,50.080432763085646L96.525,50.09373063563459L96.85,50.105267403597544L97.28333333333333,50.04588489894563L97.60833333333333,50.01426159122286L97.71666666666667,49.99528760658917L97.82499999999999,49.98390321580899L98.04166666666667,49.94503116898735L98.15,49.92170794089438L98.25833333333334,49.90771400403858L98.36666666666667,49.89931764192509L98.58333333333333,49.839545693797625L98.69166666666666,49.803682524921165L98.8,49.756353863097225L99.23333333333333,49.684347535143495L99.66666666666667,49.613108521086104L99.77499999999999,49.57036511265164L99.99166666666666,49.48642417623358L100.10000000000001,49.43605961438272L100.20833333333334,49.40584087727221L100.31666666666666,49.387709635005905L100.425,49.398635455075805L100.53333333333333,49.405190947117745L100.85833333333333,49.33658902505776L100.96666666666665,49.29542787182177L101.61666666666666,49.23513172309307L101.83333333333333,49.19895403385585L101.94166666666666,49.177247420313506L102.05,49.120168886758414L102.15833333333335,49.085921766625354L102.375,49.065373494545526L102.7,49.04859290165894L102.80833333333334,49.02205976321216L103.13333333333334,49.0061398801441L103.24166666666667,49.03797262437554L103.35000000000001,49.05707227091438L103.56666666666666,49.068532058837704L103.78333333333333,49.03358053901354L104.10833333333332,49.01839212833978L104.21666666666667,49.009279081935524L104.43333333333334,48.98512201459099L104.75833333333333,48.93057940382297L104.86666666666666,48.897853837362135L104.975,48.87821849748563L105.19166666666668,48.82371631577654L105.30000000000001,48.79101500675107L105.40833333333333,48.7713942213358L105.625,48.85485240194211L105.73333333333333,48.90492731030589L105.84166666666667,48.93497225532417L106.38333333333334,48.98325889640739L106.81666666666666,49.041154251418654L106.925,49.075891464425425L107.14166666666668,49.16348379222946L107.35833333333333,49.216039188911914L107.575,49.259142861491696L107.68333333333334,49.28500506503954L107.79166666666667,49.35214390816435L107.89999999999999,49.39242721403924L108.00833333333333,49.416597197564165L108.11666666666666,49.43109918767914L108.33333333333334,49.429563534824275L108.55,49.42285692582621L108.76666666666667,49.41883296042736L109.09166666666665,49.37904010218415L109.30833333333334,49.35516438723824L109.41666666666667,49.2878838496281L109.525,49.247515527062006L109.95833333333333,49.239759316237226L110.175,49.21819537245716L110.28333333333335,49.20525700618914L110.5,49.134304746926375L110.825,49.09173339136872L111.04166666666666,49.035930903961855L111.14999999999999,49.002449411517745L111.25833333333334,48.97746345184228L111.58333333333333,48.96247187603702L111.90833333333333,48.86848312562223L112.01666666666667,48.81208987537334L112.23333333333332,48.75244316472595L112.45,48.67304600747815L112.66666666666667,48.62540771312946L113.20833333333333,48.58080538837573L113.42500000000001,48.515771929314496L113.53333333333333,48.476751853877765L113.64166666666667,48.40083013454345L113.75,48.355277102942864L114.07499999999999,48.29323669633602L114.725,48.18926245237194L114.94166666666666,48.021858557848944L115.05,47.92141622113516L115.15833333333333,47.861150819106854L115.26666666666668,47.799626251962174L115.375,47.762711511675356L115.80833333333334,47.69161103786458L116.02499999999999,47.648950753578106L116.13333333333333,47.55927447436367L116.45833333333334,47.40890446733305L116.56666666666666,47.31868246311469L116.675,47.26454926058366L116.78333333333333,47.23206933906504L116.89166666666667,47.121802363937064L117.10833333333333,47.055642178860296L117.21666666666665,47.0159460678142L117.325,46.866638075258855L117.43333333333334,46.77705327972562L117.65,46.66767740240569L117.975,46.602051876013725L118.19166666666666,46.595160691037925L118.3,46.59102598005245L118.51666666666667,46.572971239886925L118.625,46.56213839578763L118.95,46.534722276974534L119.05833333333334,46.51827260568669L119.27499999999999,46.49104986712295L119.38333333333334,46.47471622398471L120.14166666666667,46.27934908253535L120.25,46.162128797665744L120.35833333333332,46.091796626743985L120.46666666666667,45.97038873654444L120.575,45.897544002424716L120.68333333333334,45.85383716195288L120.79166666666667,45.82761305766978L121.00833333333333,45.75936892102766L121.11666666666666,45.71842243904237L121.225,45.6938545498512L121.55000000000001,45.61636729534042L121.65833333333333,45.56987494263393L121.76666666666667,45.46188007422293L121.875,45.397083153176325L122.09166666666667,45.38490391412259L122.74166666666667,45.42432354354192L122.85,45.33583445205288L122.95833333333333,45.282740997159465L123.175,45.25088492422342L123.60833333333333,45.22910138910437L123.93333333333334,45.174201159390336L124.25833333333333,45.06204971785101L124.69166666666666,44.96716907021256L125.01666666666667,44.91691676805529L125.125,44.8867653867609L125.23333333333333,44.78145358020107L125.45,44.718266496265166L125.55833333333334,44.68035424590363L125.66666666666667,44.614443199397655L125.99166666666666,44.54152157149406L126.1,44.4977685947519L126.31666666666666,44.471516808706596L126.53333333333335,44.45220497658139L126.64166666666667,44.44061787730625L126.85833333333333,44.47060137823921L127.075,44.488591478799L127.18333333333334,44.46244977863682L127.39999999999999,44.44676475853953L127.61666666666667,44.37282820326825L127.72500000000001,44.32846627010548L127.83333333333333,44.30184911020782L127.94166666666666,44.267635009337575L128.26666666666668,44.24710654881543L128.375,44.17070936385956L128.48333333333332,44.12487105288605L128.80833333333334,44.04396752308905L128.91666666666666,43.99542540521086L129.78333333333333,43.92669448262848L130.10833333333332,43.93173766736031L130.21666666666667,43.93476357819939L130.43333333333334,43.983303581489935L130.64999999999998,43.96481225753653L130.75833333333333,43.95371746316451L131.08333333333334,43.9626345001155L131.1916666666667,43.9679847222861L131.40833333333333,43.97119485558844L131.51666666666668,43.922835718284695L131.625,43.893820235902474L131.73333333333335,43.87641094647312L132.05833333333334,43.828586893811604L132.92499999999998,43.77319083257605L133.03333333333336,43.84096906497531L133.14166666666668,43.88163600441489L133.35833333333335,43.8904622545044L133.57500000000002,43.895758004558104L133.68333333333334,43.898935454590344L133.79166666666666,43.81228735917998L134.00833333333333,43.76029850193375L134.225,43.72020464437314L134.33333333333334,43.69614832983679L134.44166666666666,43.68171454111496L134.76666666666665,43.62810883331155L134.875,43.595945408629504L134.98333333333332,43.62648713653512L135.525,43.6915366300656L135.74166666666667,43.67627762989483L135.85,43.66712222979237L136.06666666666666,43.66162898973087L136.175,43.66456369754947L136.39166666666665,43.666324522240615L137.04166666666666,43.77996460470178L137.15,44.01947256775271L137.36666666666667,44.16317734558328L137.58333333333334,44.340627385133175L138.01666666666668,44.399482082935364L138.23333333333332,44.434794901616684L138.45,44.401691180471964L138.66666666666666,44.38182894778514L138.88333333333333,44.4299882378117L139.1,44.45888381182763L139.20833333333334,44.501141047594615L139.3166666666667,44.52649538905482L139.425,44.54170799393093L139.53333333333333,44.53481349264763L139.96666666666667,44.63925690052022L140.18333333333334,44.70192294524378L140.29166666666666,44.783579853572036L140.94166666666666,44.92112856399869L141.15833333333336,45.01656181247149L141.375,45.07382176155516L141.48333333333335,45.09260381743114L141.59166666666667,45.103873050956736L142.24166666666667,45.10841013428498L142.56666666666666,45.114690428715505L142.78333333333333,45.118458605373846L143.10833333333332,45.11270983729655L143.43333333333334,45.04117698880372L143.54166666666669,44.998257279708014L143.75833333333333,44.90486458510996L143.86666666666667,44.84882896835114L143.975,44.81520759829583L144.08333333333334,44.79503477626266L144.3,44.75489586575759L144.40833333333333,44.730812519454545L144.625,44.567731316604366L144.73333333333332,44.46988259489425L144.84166666666667,44.4111733618682L145.16666666666666,44.23532901712092L145.275,44.129822410272546L145.49166666666667,44.09366279430806L146.35833333333332,43.83878745929969L146.46666666666667,43.68586225829466L146.575,43.594107137691644L146.68333333333334,43.52258928261498L147.00833333333333,43.48056943870964L147.11666666666665,43.45535753236638L147.225,43.44023038856046L147.55,43.49790410227692L147.65833333333333,43.532508330506765L147.76666666666668,43.4593738032357L148.09166666666667,43.41549308687304L149.39166666666668,43.47193672126446L149.71666666666667,43.57833811918444L149.93333333333334,43.64217895793645L150.04166666666666,43.724092592047036L150.25833333333333,43.773240772513375L150.36666666666667,43.80272968079319L150.69166666666666,43.81463780847592L151.01666666666665,43.93258725051524L151.125,43.9913410465982L151.23333333333332,44.02659332424799L151.34166666666664,44.04774469083783L151.45000000000002,44.06043551079176L151.55833333333334,44.074280654619585L151.66666666666669,44.08258774091628L151.775,44.08757199269429L151.99166666666667,44.0665335215443L152.20833333333334,44.053910438854324L152.31666666666666,44.07125648059776L152.53333333333333,44.081664105643824L152.75,44.13819389795658L152.96666666666667,44.172111773344255L153.075,44.22806195536398L153.1833333333333,44.2616320645758L153.29166666666666,44.281774130102896L153.4,44.29385936941916L153.50833333333335,44.30734116486439L153.94166666666666,44.264254155705736L154.48333333333332,44.17699173292539L154.59166666666667,44.12463427925718L154.80833333333334,44.12926469841369L154.91666666666666,44.13204294990757L155.35,44.13059457487619L155.45833333333334,44.16488228813859L155.5666666666667,44.18545491609604L155.78333333333333,44.197798492870525L156.10833333333335,44.29064387843716L156.43333333333334,44.3650403492791L156.65,44.358950295993246L156.86666666666667,44.355296264021725L156.975,44.353103844838806L157.19166666666666,44.31707708961813L157.29999999999998,44.295461036485726L157.625,44.20951075275081L157.73333333333335,44.15794058250985L157.84166666666667,44.135453589007874L158.05833333333334,44.12196139290667L158.16666666666666,44.11386607524598L158.275,44.09388040564563L158.49166666666667,44.08188900388543L158.6,44.03731296776094L158.70833333333334,44.01056734608625L158.81666666666666,43.99451997308144L158.92499999999998,43.984891549278544L159.03333333333333,43.98356612463548L159.57500000000002,43.98410445749614L159.68333333333334,43.984427457212526L159.9,44.01799625704237L160.33333333333334,44.07151253694025L160.44166666666666,44.103622304878996L160.65833333333333,44.13401316564225L161.09166666666667,44.06057779074278L161.3083333333333,44.01651656580307L161.525,43.95892928762639L161.74166666666667,43.92437692072038L161.85000000000002,43.90364550057677L161.95833333333334,43.8004276262738L162.06666666666666,43.73849690169201L162.28333333333333,43.64749248915974L162.60833333333332,43.592889841640364L162.71666666666667,43.50539412226937L162.93333333333334,43.452896690646796L163.04166666666666,43.42139823167323L163.14999999999998,43.46079404764651L163.36666666666665,43.48443153723047L163.8,43.45500490012149L164.01666666666668,43.37905402649869L164.125,43.33348350232499L164.34166666666667,43.33061564460789L164.45,43.328894929977615L164.775,43.304276197488534L164.88333333333333,43.289504957995064L165.42499999999998,43.31713254022673L165.53333333333336,43.266068220425105L165.64166666666668,43.23542962854412L165.75,43.217046473415515L165.96666666666667,43.111234079117665L166.18333333333334,43.04774664253896L166.29166666666666,43.00965418059174L166.4,42.917378812065984L166.50833333333333,42.86201359095054L166.61666666666667,42.828794458281266L166.725,42.8088629786797L167.04999999999998,42.80046213535236L167.375,42.810552824424306L167.59166666666664,42.854431151441695L167.80833333333334,42.880758147652124L167.91666666666669,42.896554345378384L168.025,42.97723369365281L168.13333333333333,43.025641302617466L168.24166666666667,43.05468586799626L168.675,43.22563543437197L169.10833333333332,43.39362158655093L169.325,43.5175541469989L169.4333333333333,43.591913683267684L169.75833333333335,43.684587449462555L169.86666666666667,43.74019170917949L169.97500000000002,43.773554265009636L170.3,43.82783766764835L170.625,43.966317926516766L170.73333333333332,44.04940608183777L170.84166666666667,44.162448214532354L171.05833333333334,44.2302734941491L171.16666666666666,44.34839822734884L171.27499999999998,44.41927306726866L171.6,44.55569503542958L171.8166666666667,44.63754821632611L171.925,44.62258001622145L172.03333333333333,44.613599096158644L172.14166666666668,44.60821054412097L172.25,44.64413763018351L172.35833333333335,44.665693881821056L172.575,44.678627632803575L172.68333333333334,44.754916905609875L173.00833333333333,44.82204960015303L173.54999999999998,44.87567867366603L174.85,45.02889753012734L174.95833333333334,45.12082884400414L175.06666666666666,45.17598763233021L175.17499999999998,45.213531818900094L175.60833333333332,45.220484417267784L175.93333333333334,45.09916565036069L176.04166666666669,45.02637439021641L176.25833333333333,44.97157463412985L176.36666666666667,44.93869478047791L176.475,44.918966868286745L176.58333333333334,45.01393120739783L176.8,45.07090981086448L177.01666666666665,45.22213219022963L177.125,45.31286561784872L177.23333333333332,45.36730567442017L177.45,45.381277752796635L177.5583333333333,45.389660999822524L177.66666666666666,45.39469094803805L177.88333333333335,45.45155489475057L178.10000000000002,45.504362502280046L178.75,45.512463479151215L178.96666666666667,45.517324065273925L179.50833333333333,45.55940063423273L179.61666666666665,45.58464657560798L180.05,45.67633283672222L180.59166666666667,45.742469593390744L180.7,45.78215164739185L181.13333333333333,45.84022674893316L181.56666666666666,46.11359115800248L181.89166666666668,46.27760980344405L182.21666666666667,46.469027185777364L182.32500000000002,46.64261522504063L182.43333333333334,46.7467680485986L182.75833333333333,46.85954496001854L182.86666666666667,46.927211106870494L183.19166666666666,47.07906079498167L183.40833333333333,47.177737563414766L183.51666666666665,47.23694362447464L183.625,47.27246726111057L184.38333333333333,47.42995133444954L184.49166666666667,47.52444177845292L184.6,47.58113604485496L184.70833333333334,47.61515260469618L184.925,47.57548591096223L185.03333333333333,47.551685894721885L185.14166666666665,47.44084164547571L185.25,47.37433509592801L185.35833333333332,47.3344311661994L185.46666666666667,47.359437721936445L185.575,47.374441655378675L185.6833333333333,47.38344401544399L185.79166666666666,47.388845431483205L186.11666666666667,47.419676063821555L186.33333333333334,47.39100455186714L186.875,47.316397622477716L186.98333333333332,47.27163346484406L187.09166666666667,47.24477497026386L187.30833333333334,47.160576285869254L188.0666666666667,46.967211097449265L188.28333333333333,46.85119198439732L188.825,46.60892029928096L188.93333333333334,46.463557288211156L189.36666666666667,46.37411502478215L189.58333333333331,46.391648580298984L189.69166666666666,46.402168713609086L189.90833333333336,46.40848079359516L190.01666666666668,46.39980945394028L190.23333333333335,46.39460665014737L190.34166666666667,46.33319007651423L190.99166666666667,46.276314589121405L191.1,46.174102992974795L191.20833333333334,46.11277603528682L191.75,46.11959170759788L191.85833333333332,46.165065785056754L192.83333333333334,46.126933819178575L192.94166666666666,46.10405463965169L193.26666666666665,46.0275833270039L193.375,45.981700539415236L193.48333333333332,45.954170866862036L193.7,45.823733171972684L193.91666666666666,45.64000577232423L194.13333333333335,45.52976933253518L194.45833333333334,45.51524627359338L194.56666666666666,45.50653243822826L194.78333333333333,45.45858315922604L194.89166666666668,45.42981359182468L195.10833333333332,45.460167177311604L195.325,45.47837932860376L195.43333333333334,45.48930661937906L195.64999999999998,45.45002940619775L195.75833333333333,45.42646307828898L196.1916666666667,45.39585849882885L196.3,45.54614977336959L196.51666666666668,45.63632453809402L196.625,45.73492939692869L196.73333333333335,45.79409231222946L196.84166666666667,45.829590061409945L197.05833333333334,45.96213871091822L197.16666666666666,46.0416679006232L197.275,46.089385414446184L197.38333333333333,46.05616027088451L197.81666666666666,45.94811605388812L198.03333333333336,45.883289523690294L198.14166666666668,45.844393605571604L198.25,45.764540185559774L198.46666666666667,45.716628133552646L198.68333333333334,45.646941662846416L198.9,45.605129780422686L199.11666666666667,45.52397221639814L199.225,45.47527767798343L199.33333333333334,45.44606095493458L199.54999999999998,45.48816211617363L199.65833333333333,45.51342281291707L199.76666666666665,45.484524665533435L199.875,45.46718577710325L199.98333333333332,45.45678244404516L200.09166666666664,45.45054044421029L200.30833333333334,45.45525035295197L200.41666666666669,45.45807629819697L200.74166666666667,45.404146865343975L200.85,45.37178920563217L201.06666666666666,45.38530417523477L201.175,45.39341315699634L201.5,45.32974680777202L201.60833333333332,45.29154699823743L201.71666666666667,45.2686271125167L201.825,45.267336484795166L201.9333333333333,45.266562108162276L202.15,45.266097482182516L202.58333333333334,45.1131840325224L202.8,45.02143596272634L202.90833333333333,44.96638712084869L203.01666666666668,44.90042825029241L203.34166666666667,44.860852927958646L203.45,44.82420099627715L203.66666666666666,44.80220983726822L204.1,44.81037698878672L204.20833333333334,44.69468130191461L204.3166666666667,44.62526388979134L204.425,44.58361344251736L204.64166666666668,44.56796915193621L205.075,44.534550839306256L205.18333333333334,44.51449985172827L205.4,44.45173860732602L205.50833333333333,44.41408186068467L205.61666666666667,44.39148781269988L205.725,44.37793138390897L205.94166666666666,44.23496393898797L206.26666666666668,43.97162890660567L206.375,43.813627887176274L206.48333333333335,43.718827275518656L206.59166666666667,43.66194690852409L206.70000000000002,43.50766814511444L207.025,43.297620235213195L207.13333333333333,43.171591489272444L207.56666666666666,42.922868589852534L207.67499999999998,42.773634850200565L207.89166666666665,42.5906456928352L208,42.480852198415974L208.10833333333332,42.41497610176442L208.54166666666669,42.326501530199266L208.86666666666667,42.1666157008344L209.08333333333334,41.93584789950454L209.40833333333333,41.797387218706625L209.51666666666665,41.45843581022789L209.625,41.25506496514064L209.73333333333332,41.133042458088276L209.84166666666667,41.059828953856886L210.0583333333333,40.87839737231413L210.16666666666666,40.769538423388475L210.275,40.704223054033086L210.60000000000002,40.53108839784956L210.70833333333334,40.42720760413942L210.925,40.199785866194574L211.03333333333333,40.06333282342769L211.14166666666668,39.98146099776757L211.46666666666667,39.73430964309412L211.68333333333334,39.49701883029007L211.79166666666666,39.35464434260763L211.89999999999998,39.26921964999816L212.00833333333333,39.217964834432486L212.76666666666668,38.90864151052277L212.875,38.566412079165204L213.2,38.361074420350704L213.74166666666667,37.880980955921345L214.17499999999998,37.414479442693406L214.39166666666668,37.134578534756656L214.60833333333335,36.876747120853985L214.82500000000002,36.72204827251238L214.93333333333334,36.49261635364416L215.04166666666666,36.35495720232322L215.15,36.272361711530664L215.58333333333334,36.04969876519965L215.69166666666666,35.91610099740106L215.79999999999998,35.711340163870325L216.01666666666665,35.58848366375187L216.125,35.476054980965955L216.23333333333332,35.40859777129442L216.66666666666669,35.236405183772746L216.88333333333333,35.13308963125975L217.1,34.96874812690041L217.31666666666666,34.805174962566014L217.425,34.7070310639654L217.64166666666665,34.64814472480501L218.075,34.47174596574239L218.29166666666666,34.268008883156355L218.4,34.145766633604765L218.72500000000002,34.00478041473316L219.05,33.82629433526568L219.48333333333332,33.669362904870354L219.7,33.46929382934799L219.80833333333334,33.3492523840346L220.13333333333333,33.186445778565286L220.5666666666667,32.905867467139174L220.675,32.73752048028351L220.78333333333333,32.636512288170096L220.89166666666668,32.57590737290204L221.21666666666667,32.41850572745216L221.325,32.324064740182244L221.43333333333334,32.10007971324997L221.65,31.9656886970906L221.75833333333333,31.78136561083249L221.86666666666667,31.670771759077628L222.08333333333331,31.60441544802468L222.19166666666666,31.463145789810895L222.51666666666668,31.378383994882633L222.625,31.20604278706632L222.84166666666667,31.102638062376514L223.05833333333334,30.87861457570717L223.16666666666666,30.744200483705548L223.275,30.663552028504576L224.03333333333333,30.411349478821506L224.14166666666665,30.26002794901165L224.25,30.169235031125737L224.35833333333332,30.04356036681997L225.00833333333333,29.897847523802906L225.11666666666667,29.810419817992692L225.225,29.733486021654993L225.33333333333334,29.68732574385237L225.44166666666666,29.65962957717079L225.65833333333333,29.594062963587632L225.98333333333332,29.586761691726807L226.3083333333333,29.582380928610302L226.74166666666667,29.526354643591972L226.85000000000002,29.366800396018448L226.95833333333334,29.271067847474352L227.06666666666666,29.21362831834787L227.175,29.212539600872L227.39166666666668,29.211886370386498L227.5,29.211494432095176L227.93333333333334,29.094224051835237L228.25833333333333,28.964678779245688L228.36666666666665,28.969720963836476L228.6916666666667,28.97274627459095L228.8,29.082253416610055L228.90833333333333,29.14795770182151L229.01666666666668,29.187380272948385L229.125,29.142502077343238L229.34166666666667,29.11557515998015L229.45,29.099419009562297L229.55833333333334,29.00962857858895L229.66666666666666,28.95575432000492L229.775,28.9234297648545L230.20833333333331,28.798570249049416L230.31666666666666,28.72365453956638L230.42499999999998,28.52962576817343L230.75,28.338006112759516L230.96666666666667,28.22303431951117L231.07500000000002,28.154051243562172L231.18333333333334,28.076168356000572L231.4,28.029438623463626L231.50833333333333,28.00140078394145L231.61666666666667,27.965000687650036L231.83333333333334,27.943160629875162L231.94166666666666,27.906024856929022L232.26666666666665,27.883743393161314L232.48333333333332,27.826319949471003L232.70000000000002,27.791865883256833L232.80833333333334,27.728475181809564L233.025,27.690440760941193L233.35,27.62890532570533L233.56666666666666,27.591984064563817L233.675,27.50397217701953L233.78333333333333,27.45116504449297L234,27.482667288414547L234.21666666666667,27.50156863476748L234.325,27.51290944257924L234.4333333333333,27.534402403828793L234.86666666666667,27.464968834875396L234.97500000000002,27.423308693503373L235.19166666666666,27.398312608680158L235.40833333333333,27.266725175071368L235.95,27.076082712464697L236.38333333333333,26.914079192908503L236.49166666666665,26.739002081174757L236.6,26.633955814134545L236.70833333333334,26.570928053910407L238.00833333333333,26.220720528635308L238.225,26.069339055462436L238.33333333333331,25.978510171558714" style="fill: none;" fill="none"></path></g></g></g></g><g opacity="0.2"><g><g><g><path stroke="rgb(238, 51, 119)" stroke-width="2px" d="M22.424999999999997,127.23291553497315L22.533333333333335,127.23291553497315L22.966666666666665,120.8175L23.075,120.8175L23.291666666666668,119.07458446502685L23.4,119.07458446502685L23.508333333333336,118.7355347442627L23.724999999999998,117.88328125000001L23.833333333333332,117.88328125000001L23.941666666666666,117.56652702331543L24.05,117.56652702331543L24.48333333333333,116.30681972503662L25.458333333333332,114.865625L25.566666666666666,114.4688317489624L25.783333333333335,113.968671875L26.108333333333334,113.81529571533204L26.216666666666665,113.81529571533204L26.433333333333334,113.68513851165771L26.65,113.68579036712646L26.758333333333333,113.68579036712646L26.974999999999998,113.61962364196776L27.191666666666666,113.63392711639403L27.3,113.55085289001465L27.625,113.39277114868165L27.733333333333334,113.39277114868165L27.84166666666667,113.18760303497314L27.95,113.18760303497314L28.05833333333333,113.18760303497314L28.383333333333333,113.18831600189209L28.491666666666667,113.18831600189209L28.708333333333332,113.10828716278075L28.925,113.04192012786865L29.03333333333333,113.04192012786865L29.141666666666666,113.08370677947998L29.25,113.08370677947998L29.575,112.9817932510376L29.683333333333334,112.88286399841309L29.791666666666664,112.88286399841309L29.900000000000002,112.87703125L30.116666666666667,112.87703125L30.441666666666666,112.66352821350097L30.983333333333334,112.61899154663087L31.091666666666665,112.61899154663087L31.2,112.58800804138184L31.308333333333334,112.58800804138184L31.416666666666668,112.58800804138184L31.525,112.51473541259766L32.06666666666667,112.38475135803222L32.93333333333334,111.17497211456299L33.25833333333334,110.41815433502197L33.36666666666667,109.69991825103759L34.125,108.35276725769043L34.45,107.73403759002686L34.666666666666664,107.30857288360596L34.775,107.30857288360596L34.88333333333333,106.75327350616456L35.31666666666667,106.16958446502686L35.425000000000004,105.51420829772948L35.53333333333333,105.51420829772948L35.858333333333334,104.99481189727783L35.96666666666667,104.77895946502686L36.291666666666664,104.16438537597656L36.724999999999994,103.39694099426269L36.94166666666667,102.60177577972412L37.15833333333333,102.60177577972412L37.266666666666666,102.60177577972412L37.375,101.69784576416015L37.483333333333334,101.69784576416015L37.91666666666667,101.00745613098144L38.13333333333333,100.35677196502687L38.458333333333336,99.61434593200684L38.56666666666667,99.61434593200684L38.675,99.61434593200684L38.89166666666667,98.93893199920655L39,98.93893199920655L39.108333333333334,98.62224227905273L39.43333333333334,98.02689453125001L39.65,98.02689453125001L39.75833333333333,98.02689453125001L39.975,97.34375L40.083333333333336,97.34375L40.40833333333334,96.70996315002441L40.95,95.58338035583496L41.05833333333334,95.58338035583496L41.166666666666664,95.58338035583496L41.38333333333334,95.04780639648438L41.49166666666667,95.04780639648438L41.708333333333336,94.524359664917L41.925000000000004,94.524359664917L42.03333333333333,93.99998268127442L42.141666666666666,93.99998268127442L42.25,93.99998268127442L42.46666666666667,93.59987922668458L42.575,93.59987922668458L43.33333333333333,92.89375L43.766666666666666,91.98179061889648L44.2,91.46772789001466L44.30833333333333,91.46772789001466L44.416666666666664,91.46772789001466L44.849999999999994,90.97967826843262L45.175,90.52229301452637L45.5,90.08329551696778L45.608333333333334,90.08329551696778L45.93333333333333,89.56449325561523L46.04166666666667,89.56449325561523L46.25833333333333,89.0244174194336L46.36666666666667,89.0244174194336L46.475,88.76946044921876L46.69166666666667,88.76946044921876L46.8,88.76946044921876L47.01666666666667,88.51791893005371L47.125,88.51791893005371L47.233333333333334,88.24873657226563L47.55833333333334,87.9405379486084L47.88333333333333,87.9405379486084L48.425,87.24275382995606L48.641666666666666,86.9262508392334L48.858333333333334,86.9262508392334L48.96666666666666,86.9262508392334L49.50833333333334,86.1515138244629L49.833333333333336,85.74110290527344L49.94166666666666,85.74110290527344L50.050000000000004,85.74110290527344L50.15833333333333,85.39813186645507L50.375,85.39813186645507L50.80833333333333,85.06246025085449L51.025,84.62729240417481L51.24166666666667,84.62729240417481L51.45833333333333,84.25333106994628L52,83.93181694030761L52.21666666666667,83.54420738220215L52.650000000000006,83.09925491333007L53.19166666666667,81.819927444458L53.40833333333333,81.819927444458L53.516666666666666,81.819927444458L53.84166666666667,80.99111358642578L54.05833333333333,80.16786087036132L54.16666666666667,80.16786087036132L54.275,80.16786087036132L54.49166666666667,79.58825271606446L54.6,79.58825271606446L54.708333333333336,79.58825271606446L55.14166666666667,78.53693885803223L55.25,78.53693885803223L55.46666666666667,77.8338380432129L55.791666666666664,77.8338380432129L56.225,77.13407798767089L56.333333333333336,76.42986358642578L56.44166666666666,76.42986358642578L56.55,76.42986358642578L56.766666666666666,75.7712654876709L57.09166666666666,75.08151412963868L57.2,75.08151412963868L57.30833333333334,75.08151412963868L57.63333333333334,74.34615325927734L57.74166666666667,74.34615325927734L57.958333333333336,73.70089782714844L58.60833333333333,72.45712364196777L58.825,72.45712364196777L59.15,71.9053279876709L59.25833333333333,71.9053279876709L59.475,71.33461494445801L59.58333333333333,71.33461494445801L60.125,70.09194755554199L60.233333333333334,70.09194755554199L60.45,69.42222717285156L60.666666666666664,69.42222717285156L60.775000000000006,69.42222717285156L60.88333333333333,68.79143478393554L61.208333333333336,68.1506404876709L61.31666666666667,68.1506404876709L61.641666666666666,67.49982391357422L61.75,67.49982391357422L61.96666666666667,66.82676277160644L62.074999999999996,66.82676277160644L62.29166666666667,66.82676277160644L62.725,65.4884220123291L62.833333333333336,65.4884220123291L62.94166666666667,65.4884220123291L63.15833333333333,65.00337364196777L63.26666666666667,65.00337364196777L63.59166666666667,64.33365325927734L63.699999999999996,64.33365325927734L63.80833333333334,64.33365325927734L63.916666666666664,63.58271575927735L64.13333333333334,63.58271575927735L64.24166666666666,63.58271575927735L64.35,62.968613586425775L64.45833333333333,62.968613586425775L65.43333333333332,61.149672012329106L65.54166666666667,61.149672012329106L65.75833333333334,61.149672012329106L66.08333333333333,60.497748641967775L66.84166666666667,59.33185081481933L66.95,58.7121875L67.38333333333333,58.09363777160644L67.49166666666666,58.09363777160644L67.60000000000001,58.09363777160644L67.81666666666666,57.453950271606445L68.03333333333333,56.85431114196777L68.46666666666665,56.30028831481934L69.44166666666666,55.4125154876709L69.55,55.13104972839355L69.65833333333335,55.13104972839355L69.76666666666667,55.13104972839355L69.98333333333333,54.9196720123291L70.09166666666667,54.9196720123291L70.41666666666666,54.629311141967776L70.74166666666667,54.41682662963868L71.5,53.807172012329104L71.60833333333332,53.807172012329104L71.71666666666667,53.807172012329104L71.825,53.56131385803222L72.04166666666667,53.56131385803222L72.15,53.56131385803222L72.25833333333333,53.32435081481934L72.475,53.32435081481934L72.58333333333333,53.181947555541996L72.69166666666668,53.181947555541996L72.90833333333333,53.181947555541996L73.125,52.95834075927735L73.23333333333333,52.95834075927735L73.66666666666667,52.62459075927734L74.425,52.22964782714844L74.75,52.1484375L74.85833333333333,52.13286087036133L75.075,52.13286087036133L75.29166666666667,51.94262771606445L75.61666666666666,51.962651901245124L76.80833333333334,51.55658668518066L77.13333333333334,51.410849456787105L77.24166666666666,51.410849456787105L77.35,51.410849456787105L77.56666666666666,51.47982391357422L77.78333333333335,51.47982391357422L77.89166666666667,51.50763641357422L78.10833333333333,51.50763641357422L78.64999999999999,51.57995162963867L78.75833333333334,51.57995162963867L79.40833333333333,51.32852554321289L79.625,51.32852554321289L79.73333333333332,51.32852554321289L79.84166666666667,51.26066467285156L79.95,51.26066467285156L80.05833333333334,51.26066467285156L80.16666666666667,51.26066467285156L80.275,51.023701629638666L80.38333333333333,51.023701629638666L80.49166666666666,51.023701629638666L80.6,50.99588912963867L80.81666666666668,50.99588912963867L81.14166666666667,50.83902282714844L81.25,50.83902282714844L81.35833333333333,50.83902282714844L81.57499999999999,50.65768478393555L82.00833333333334,50.51528831481933L82.225,50.437411956787116L82.44166666666666,50.437411956787116L82.875,50.48302825927735L82.98333333333333,50.467451629638674L83.09166666666667,50.467451629638674L83.30833333333334,50.467451629638674L83.52499999999999,50.29834945678711L83.74166666666666,50.5453279876709L83.95833333333334,50.5453279876709L84.06666666666666,50.5453279876709L84.39166666666667,50.55200271606445L84.60833333333333,50.43185081481934L84.71666666666665,50.43185081481934L84.825,50.43185081481934L84.93333333333334,50.201562499999994L85.04166666666667,50.201562499999994L85.15,50.201562499999994L85.36666666666666,50.04692337036133L85.475,50.04692337036133L86.01666666666667,49.84L86.125,49.84L86.34166666666667,49.84L86.45,49.77992744445801L86.55833333333334,49.77992744445801L86.88333333333334,49.67535217285156L87.10000000000001,49.67535217285156L87.31666666666666,49.610825271606444L87.53333333333333,49.610825271606444L87.75,49.56854972839355L87.96666666666667,49.552973098754876L88.075,49.552973098754876L88.18333333333334,49.552973098754876L88.50833333333333,49.66200271606445L88.94166666666668,49.647539672851565L89.05000000000001,49.796610870361334L89.26666666666667,49.796610870361334L89.375,49.796610870361334L89.59166666666667,49.83221168518067L90.025,49.81107391357422L90.56666666666666,49.873373641967774L91.325,49.886723098754885L91.43333333333334,49.97350135803222L91.64999999999999,49.97350135803222L91.75833333333333,49.97350135803222L91.86666666666666,49.97238777160645L91.97500000000001,49.97238777160645L92.08333333333334,49.97238777160645L92.19166666666666,50.000200271606445L92.40833333333333,50.000200271606445L92.51666666666667,50.000200271606445L92.95,50.10366195678711L93.05833333333334,50.10366195678711L93.275,50.10366195678711L93.49166666666666,49.79995162963867L93.81666666666666,49.7565625L94.03333333333335,49.7565625L94.14166666666667,49.81997581481933L94.25,49.81997581481933L94.575,49.876714401245124L94.68333333333334,49.876714401245124L94.79166666666666,49.876714401245124L94.89999999999999,49.93122581481934L95.00833333333334,49.93122581481934L95.22500000000001,50.081410598754886L95.33333333333333,50.081410598754886L95.44166666666666,50.081410598754886L95.65833333333333,50.08586494445801L95.76666666666667,50.08586494445801L95.875,50.08586494445801L95.98333333333332,50.08586494445801L96.09166666666667,50.04580978393555L96.2,50.04580978393555L96.41666666666667,50.113677444458006L96.525,50.113677444458006L96.85,50.12257255554199L97.28333333333333,49.956811141967776L97.60833333333333,49.966826629638675L97.71666666666667,49.966826629638675L97.82499999999999,49.966826629638675L98.04166666666667,49.886723098754885L98.15,49.886723098754885L98.25833333333334,49.886723098754885L98.36666666666667,49.886723098754885L98.58333333333333,49.74988777160644L98.69166666666666,49.74988777160644L98.8,49.68536087036132L99.23333333333333,49.576338043212886L99.66666666666667,49.506249999999994L99.77499999999999,49.506249999999994L99.99166666666666,49.36051277160645L100.10000000000001,49.36051277160645L100.20833333333334,49.36051277160645L100.31666666666666,49.36051277160645L100.425,49.41502418518067L100.53333333333333,49.41502418518067L100.85833333333333,49.23368614196778L100.96666666666665,49.23368614196778L101.61666666666666,49.1446875L101.83333333333333,49.1446875L101.94166666666666,49.1446875L102.05,49.03455108642578L102.15833333333335,49.03455108642578L102.375,49.03455108642578L102.7,49.02342201232911L102.80833333333334,48.982260055541985L103.13333333333334,48.982260055541985L103.24166666666667,49.08572174072266L103.35000000000001,49.08572174072266L103.56666666666666,49.08572174072266L103.78333333333333,48.98115325927735L104.10833333333332,48.995609512329096L104.21666666666667,48.995609512329096L104.43333333333334,48.948886413574215L104.75833333333333,48.8487654876709L104.86666666666666,48.8487654876709L104.975,48.8487654876709L105.19166666666668,48.74196304321289L105.30000000000001,48.74196304321289L105.40833333333333,48.74196304321289L105.625,48.98003967285156L105.73333333333333,48.98003967285156L105.84166666666667,48.98003967285156L106.38333333333334,49.05568885803223L106.81666666666666,49.12799728393554L106.925,49.12799728393554L107.14166666666668,49.29487228393555L107.35833333333333,49.29487228393555L107.575,49.32379837036133L107.68333333333334,49.32379837036133L107.79166666666667,49.452852172851564L107.89999999999999,49.452852172851564L108.00833333333333,49.452852172851564L108.11666666666666,49.452852172851564L108.33333333333334,49.42726005554199L108.55,49.41279701232911L108.76666666666667,49.41279701232911L109.09166666666665,49.31935081481933L109.30833333333334,49.31935081481933L109.41666666666667,49.186963043212884L109.525,49.186963043212884L109.95833333333333,49.228125000000006L110.175,49.18584945678711L110.28333333333335,49.18584945678711L110.5,49.02787635803223L110.825,49.02787635803223L111.04166666666666,48.952227172851565L111.14999999999999,48.952227172851565L111.25833333333334,48.939984512329104L111.58333333333333,48.939984512329104L111.90833333333333,48.727500000000006L112.01666666666667,48.727500000000006L112.23333333333332,48.66297309875489L112.45,48.55395027160644L112.66666666666667,48.55395027160644L113.20833333333333,48.51390190124512L113.42500000000001,48.41822174072266L113.53333333333333,48.41822174072266L113.64166666666667,48.286947555541985L113.75,48.286947555541985L114.07499999999999,48.200176086425785L114.725,48.03330108642578L114.94166666666666,47.77075271606445L115.05,47.77075271606445L115.15833333333333,47.77075271606445L115.26666666666668,47.70733940124512L115.375,47.70733940124512L115.80833333333334,47.58496032714844L116.02499999999999,47.58496032714844L116.13333333333333,47.424760055541995L116.45833333333334,47.18334945678711L116.56666666666666,47.18334945678711L116.675,47.18334945678711L116.78333333333333,47.18334945678711L116.89166666666667,46.956401901245115L117.10833333333333,46.956401901245115L117.21666666666665,46.956401901245115L117.325,46.64267608642578L117.43333333333334,46.64267608642578L117.65,46.503613586425786L117.975,46.503613586425786L118.19166666666666,46.58482391357421L118.3,46.58482391357421L118.51666666666667,46.54588912963867L118.625,46.54588912963867L118.95,46.49359809875489L119.05833333333334,46.49359809875489L119.27499999999999,46.45021575927734L119.38333333333334,46.45021575927734L120.14166666666667,45.986298370361325L120.25,45.986298370361325L120.35833333333332,45.986298370361325L120.46666666666667,45.78827690124511L120.575,45.78827690124511L120.68333333333334,45.78827690124511L120.79166666666667,45.78827690124511L121.00833333333333,45.657002716064454L121.11666666666666,45.657002716064454L121.225,45.657002716064454L121.55000000000001,45.500136413574225L121.65833333333333,45.500136413574225L121.76666666666667,45.29988777160645L121.875,45.29988777160645L122.09166666666667,45.36663505554199L122.74166666666667,45.4834529876709L122.85,45.20310081481934L122.95833333333333,45.20310081481934L123.175,45.20310081481934L123.60833333333333,45.19642608642579L123.93333333333334,45.09185081481934L124.25833333333333,44.89382255554199L124.69166666666666,44.824848098754885L125.01666666666667,44.84153831481933L125.125,44.84153831481933L125.23333333333333,44.62348587036132L125.45,44.62348587036132L125.55833333333334,44.62348587036132L125.66666666666667,44.51557662963867L125.99166666666666,44.43213912963867L126.1,44.43213912963867L126.31666666666666,44.43213912963867L126.53333333333335,44.42323722839356L126.64166666666667,44.42323722839356L126.85833333333333,44.51557662963867L127.075,44.51557662963867L127.18333333333334,44.42323722839356L127.39999999999999,44.42323722839356L127.61666666666667,44.26192337036133L127.72500000000001,44.26192337036133L127.83333333333333,44.26192337036133L127.94166666666666,44.21631385803222L128.26666666666668,44.21631385803222L128.375,44.05611358642578L128.48333333333332,44.05611358642578L128.80833333333334,43.92261222839356L128.91666666666666,43.92261222839356L129.78333333333333,43.823598098754886L130.10833333333332,43.93930244445801L130.21666666666667,43.93930244445801L130.43333333333334,44.05611358642578L130.64999999999998,43.937075271606446L130.75833333333333,43.937075271606446L131.08333333333334,43.97601005554199L131.1916666666667,43.97601005554199L131.40833333333333,43.97601005554199L131.51666666666668,43.85029701232911L131.625,43.85029701232911L131.73333333333335,43.85029701232911L132.05833333333334,43.75685081481933L132.92499999999998,43.69009674072265L133.03333333333336,43.94263641357422L133.14166666666668,43.94263641357422L133.35833333333335,43.903701629638675L133.57500000000002,43.903701629638675L133.68333333333334,43.903701629638675L133.79166666666666,43.68231521606445L134.00833333333333,43.68231521606445L134.225,43.66006385803223L134.33333333333334,43.66006385803223L134.44166666666666,43.66006385803223L134.76666666666665,43.547700271606445L134.875,43.547700271606445L134.98333333333332,43.672299728393554L135.525,43.78911087036133L135.74166666666667,43.65338912963867L135.85,43.65338912963867L136.06666666666666,43.65338912963867L136.175,43.66896575927734L136.39166666666665,43.66896575927734L137.04166666666666,43.95042472839356L137.15,44.3787345123291L137.36666666666667,44.3787345123291L137.58333333333334,44.60680244445801L138.01666666666668,44.48776412963868L138.23333333333332,44.48776412963868L138.45,44.35203559875488L138.66666666666666,44.35203559875488L138.88333333333333,44.50222717285156L139.1,44.50222717285156L139.20833333333334,44.56452690124512L139.3166666666667,44.56452690124512L139.425,44.56452690124512L139.53333333333333,44.52447174072266L139.96666666666667,44.7959220123291L140.18333333333334,44.7959220123291L140.29166666666666,44.90606521606445L140.94166666666666,45.12745162963867L141.15833333333336,45.15971168518067L141.375,45.15971168518067L141.48333333333335,45.12077690124512L141.59166666666667,45.12077690124512L142.24166666666667,45.11521575927735L142.56666666666666,45.124110870361335L142.78333333333333,45.124110870361335L143.10833333333332,45.10408668518066L143.43333333333334,44.93387771606446L143.54166666666669,44.93387771606446L143.75833333333333,44.76477554321289L143.86666666666667,44.76477554321289L143.975,44.76477554321289L144.08333333333334,44.76477554321289L144.3,44.6946875L144.40833333333333,44.6946875L144.625,44.3231095123291L144.73333333333332,44.3231095123291L144.84166666666667,44.3231095123291L145.16666666666666,43.971562500000005L145.275,43.971562500000005L145.49166666666667,44.039423370361334L146.35833333333332,43.456474456787106L146.46666666666667,43.456474456787106L146.575,43.456474456787106L146.68333333333334,43.4153125L147.00833333333333,43.41753967285156L147.11666666666665,43.41753967285156L147.225,43.41753967285156L147.55,43.584414672851565L147.65833333333333,43.584414672851565L147.76666666666668,43.34967201232911L148.09166666666667,43.34967201232911L149.39166666666668,43.55660217285157L149.71666666666667,43.73794021606446L149.93333333333334,43.73794021606446L150.04166666666666,43.846963043212895L150.25833333333333,43.846963043212895L150.36666666666667,43.846963043212895L150.69166666666666,43.832499999999996L151.01666666666665,44.109511413574225L151.125,44.07947174072265L151.23333333333332,44.07947174072265L151.34166666666664,44.07947174072265L151.45000000000002,44.07947174072265L151.55833333333334,44.095048370361326L151.66666666666669,44.095048370361326L151.775,44.095048370361326L151.99166666666667,44.03497581481933L152.20833333333334,44.03497581481933L152.31666666666666,44.09727554321289L152.53333333333333,44.09727554321289L152.75,44.222988586425785L152.96666666666667,44.222988586425785L153.075,44.31198722839355L153.1833333333333,44.31198722839355L153.29166666666666,44.31198722839355L153.4,44.31198722839355L153.50833333333335,44.32756385803222L153.94166666666666,44.199623641967776L154.48333333333332,44.04609809875488L154.59166666666667,44.04609809875488L154.80833333333334,44.13621032714843L154.91666666666666,44.13621032714843L155.35,44.128422012329096L155.45833333333334,44.21631385803222L155.5666666666667,44.21631385803222L155.78333333333333,44.21631385803222L156.10833333333335,44.42991195678711L156.43333333333334,44.47663505554199L156.65,44.34981521606446L156.86666666666667,44.34981521606446L156.975,44.34981521606446L157.19166666666666,44.263036956787104L157.29999999999998,44.263036956787104L157.625,44.08058532714844L157.73333333333335,44.08058532714844L157.84166666666667,44.10172309875489L158.05833333333334,44.10172309875489L158.16666666666666,44.10172309875489L158.275,44.06390190124512L158.49166666666667,44.06390190124512L158.6,43.97044891357422L158.70833333333334,43.97044891357422L158.81666666666666,43.97044891357422L158.92499999999998,43.97044891357422L159.03333333333333,43.9815779876709L159.57500000000002,43.984911956787116L159.68333333333334,43.984911956787116L159.9,44.068349456787104L160.33333333333334,44.151786956787106L160.44166666666666,44.151786956787106L160.65833333333333,44.179599456787116L161.09166666666667,43.95042472839356L161.3083333333333,43.95042472839356L161.525,43.87254837036133L161.74166666666667,43.87254837036133L161.85000000000002,43.87254837036133L161.95833333333334,43.64560081481933L162.06666666666666,43.64560081481933L162.28333333333333,43.510985870361324L162.60833333333332,43.510985870361324L162.71666666666667,43.37415054321289L162.93333333333334,43.37415054321289L163.04166666666666,43.37415054321289L163.14999999999998,43.51988777160645L163.36666666666665,43.51988777160645L163.8,43.41086494445801L164.01666666666668,43.265127716064455L164.125,43.265127716064455L164.34166666666667,43.32631385803222L164.45,43.32631385803222L164.775,43.26734809875488L164.88333333333333,43.26734809875488L165.42499999999998,43.35857391357422L165.53333333333336,43.18947174072265L165.64166666666668,43.18947174072265L165.75,43.18947174072265L165.96666666666667,42.952515487670894L166.18333333333334,42.952515487670894L166.29166666666666,42.952515487670894L166.4,42.77896575927734L166.50833333333333,42.77896575927734L166.61666666666667,42.77896575927734L166.725,42.77896575927734L167.04999999999998,42.78786087036133L167.375,42.82568885803222L167.59166666666664,42.920248641967774L167.80833333333334,42.920248641967774L167.91666666666669,42.920248641967774L168.025,43.09825271606445L168.13333333333333,43.09825271606445L168.24166666666667,43.09825271606445L168.675,43.48205978393554L169.10833333333332,43.64560081481933L169.325,43.7034529876709L169.4333333333333,43.7034529876709L169.75833333333335,43.823598098754886L169.86666666666667,43.823598098754886L169.97500000000002,43.823598098754886L170.3,43.90926277160645L170.625,44.17403831481934L170.73333333333332,44.17403831481934L170.84166666666667,44.33201141357422L171.05833333333334,44.33201141357422L171.16666666666666,44.525585327148434L171.27499999999998,44.525585327148434L171.6,44.760327987670905L171.8166666666667,44.760327987670905L171.925,44.60012771606445L172.03333333333333,44.60012771606445L172.14166666666668,44.60012771606445L172.25,44.69802825927735L172.35833333333335,44.69802825927735L172.575,44.69802825927735L172.68333333333334,44.86935081481934L173.00833333333333,44.92274864196777L173.54999999999998,44.95612228393554L174.85,45.25872581481934L174.95833333333334,45.25872581481934L175.06666666666666,45.25872581481934L175.17499999999998,45.26984809875488L175.60833333333332,45.23091331481933L175.93333333333334,44.9171875L176.04166666666669,44.9171875L176.25833333333333,44.889375L176.36666666666667,44.889375L176.475,44.889375L176.58333333333334,45.156377716064455L176.8,45.156377716064455L177.01666666666665,45.44896575927734L177.125,45.44896575927734L177.23333333333332,45.44896575927734L177.45,45.402235870361324L177.5583333333333,45.402235870361324L177.66666666666666,45.402235870361324L177.88333333333335,45.53685081481933L178.10000000000002,45.58357391357421L178.75,45.52461494445801L178.96666666666667,45.52461494445801L179.50833333333333,45.622515487670896L179.61666666666665,45.622515487670896L180.05,45.81386222839356L180.59166666666667,45.841674728393556L180.7,45.841674728393556L181.13333333333333,45.92733940124512L181.56666666666666,46.523637771606445L181.89166666666668,46.523637771606445L182.21666666666667,46.75615325927734L182.32500000000002,46.90299728393555L182.43333333333334,46.90299728393555L182.75833333333333,47.02871032714843L182.86666666666667,47.02871032714843L183.19166666666666,47.306835327148434L183.40833333333333,47.32575271606446L183.51666666666665,47.32575271606446L183.625,47.32575271606446L184.38333333333333,47.666177444458015L184.49166666666667,47.666177444458015L184.6,47.666177444458015L184.70833333333334,47.666177444458015L184.925,47.515985870361334L185.03333333333333,47.515985870361334L185.14166666666665,47.27457527160645L185.25,47.27457527160645L185.35833333333332,47.27457527160645L185.46666666666667,47.396947555542L185.575,47.396947555542L185.6833333333333,47.396947555542L185.79166666666666,47.396947555542L186.11666666666667,47.4659220123291L186.33333333333334,47.34799728393554L186.875,47.20448722839356L186.98333333333332,47.20448722839356L187.09166666666667,47.20448722839356L187.30833333333334,47.03427825927734L188.0666666666667,46.67716331481934L188.28333333333333,46.67716331481934L188.825,46.24551277160644L188.93333333333334,46.24551277160644L189.36666666666667,46.23995162963867L189.58333333333331,46.41794891357422L189.69166666666666,46.41794891357422L189.90833333333336,46.41794891357422L190.01666666666668,46.38680244445801L190.23333333333335,46.38680244445801L190.34166666666667,46.241065216064456L190.99166666666667,46.191001358032224L191.1,46.020785598754884L191.20833333333334,46.020785598754884L191.75,46.12981521606446L191.85833333333332,46.23327690124512L192.83333333333334,46.06973587036133L192.94166666666666,46.06973587036133L193.26666666666665,45.91287635803222L193.375,45.91287635803222L193.48333333333332,45.91287635803222L193.7,45.62807662963867L193.91666666666666,45.36441467285157L194.13333333333335,45.36441467285157L194.45833333333334,45.49346168518066L194.56666666666666,45.49346168518066L194.78333333333333,45.38665924072265L194.89166666666668,45.38665924072265L195.10833333333332,45.505697555541985L195.325,45.505697555541985L195.43333333333334,45.505697555541985L195.64999999999998,45.391113586425774L195.75833333333333,45.391113586425774L196.1916666666667,45.34995162963867L196.3,45.771586685180665L196.51666666666668,45.771586685180665L196.625,45.88283668518066L196.73333333333335,45.88283668518066L196.84166666666667,45.88283668518066L197.05833333333334,46.160961685180666L197.16666666666666,46.160961685180666L197.275,46.160961685180666L197.38333333333333,46.006322555542L197.81666666666666,45.78604972839355L198.03333333333336,45.78604972839355L198.14166666666668,45.78604972839355L198.25,45.644760055541994L198.46666666666667,45.644760055541994L198.68333333333334,45.542411956787106L198.9,45.542411956787106L199.11666666666667,45.402235870361324L199.225,45.402235870361324L199.33333333333334,45.402235870361324L199.54999999999998,45.55131385803223L199.65833333333333,45.55131385803223L199.76666666666665,45.441177444458006L199.875,45.441177444458006L199.98333333333332,45.441177444458006L200.09166666666664,45.441177444458006L200.30833333333334,45.462315216064454L200.41666666666669,45.462315216064454L200.74166666666667,45.32325271606446L200.85,45.32325271606446L201.06666666666666,45.405576629638674L201.175,45.405576629638674L201.5,45.234247283935545L201.60833333333332,45.234247283935545L201.71666666666667,45.234247283935545L201.825,45.26540054321289L201.9333333333333,45.26540054321289L202.15,45.26540054321289L202.58333333333334,44.88381385803223L202.8,44.88381385803223L202.90833333333333,44.88381385803223L203.01666666666668,44.80148994445801L203.34166666666667,44.80148994445801L203.45,44.76922309875488L203.66666666666666,44.76922309875488L204.1,44.82262771606446L204.20833333333334,44.52113777160645L204.3166666666667,44.52113777160645L204.425,44.52113777160645L204.64166666666668,44.54450271606446L205.075,44.48442337036133L205.18333333333334,44.48442337036133L205.4,44.357596740722656L205.50833333333333,44.357596740722656L205.61666666666667,44.357596740722656L205.725,44.357596740722656L205.94166666666666,44.02051277160645L206.26666666666668,43.57662635803223L206.375,43.57662635803223L206.48333333333335,43.57662635803223L206.59166666666667,43.57662635803223L206.70000000000002,43.276250000000005L207.025,42.98254837036133L207.13333333333333,42.98254837036133L207.56666666666666,42.54978424072266L207.67499999999998,42.54978424072266L207.89166666666665,42.31616195678711L208,42.31616195678711L208.10833333333332,42.31616195678711L208.54166666666669,42.193789672851565L208.86666666666667,41.92678695678711L209.08333333333334,41.58969619750977L209.40833333333333,41.58969619750977L209.51666666666665,40.95000869750976L209.625,40.95000869750976L209.73333333333332,40.95000869750976L209.84166666666667,40.95000869750976L210.0583333333333,40.60625L210.16666666666666,40.60625L210.275,40.60625L210.60000000000002,40.27138641357422L210.70833333333334,40.27138641357422L210.925,39.85865325927735L211.03333333333333,39.85865325927735L211.14166666666668,39.85865325927735L211.46666666666667,39.363582611083984L211.68333333333334,39.14108261108399L211.79166666666666,39.14108261108399L211.89999999999998,39.14108261108399L212.00833333333333,39.14108261108399L212.76666666666668,38.4446565246582L212.875,38.05306793212891L213.2,38.05306793212891L213.74166666666667,37.16084075927735L214.17499999999998,36.71472717285157L214.39166666666668,36.71472717285157L214.60833333333335,36.489999999999995L214.82500000000002,36.489999999999995L214.93333333333334,36.1484684753418L215.04166666666666,36.1484684753418L215.15,36.1484684753418L215.58333333333334,35.71570434570313L215.69166666666666,35.71570434570313L215.79999999999998,35.40419891357422L216.01666666666665,35.40419891357422L216.125,35.30741195678711L216.23333333333332,35.30741195678711L216.66666666666669,34.978116302490236L216.88333333333333,34.978116302490236L217.1,34.72223587036133L217.31666666666666,34.55981521606445L217.425,34.55981521606445L217.64166666666665,34.55981521606445L218.075,34.20714782714843L218.29166666666666,33.96240325927734L218.4,33.96240325927734L218.72500000000002,33.793301086425785L219.05,33.55856521606445L219.48333333333332,33.43396575927734L219.7,33.16919021606445L219.80833333333334,33.16919021606445L220.13333333333333,32.94223587036133L220.5666666666667,32.485L220.675,32.485L220.78333333333333,32.485L220.89166666666668,32.485L221.21666666666667,32.18240325927735L221.325,32.18240325927735L221.43333333333334,31.764102172851565L221.65,31.764102172851565L221.75833333333333,31.50488098144531L221.86666666666667,31.50488098144531L222.08333333333331,31.50488098144531L222.19166666666666,31.251241302490225L222.51666666666668,31.251241302490225L222.625,30.947530975341788L222.84166666666667,30.947530975341788L223.05833333333334,30.542579345703135L223.16666666666666,30.542579345703135L223.275,30.542579345703135L224.03333333333333,30.03304565429687L224.14166666666665,30.03304565429687L224.25,30.03304565429687L224.35833333333332,29.85504837036133L225.00833333333333,29.67927825927734L225.11666666666667,29.67927825927734L225.225,29.618085327148435L225.33333333333334,29.618085327148435L225.44166666666666,29.618085327148435L225.65833333333333,29.495713043212888L225.98333333333332,29.575809783935537L226.3083333333333,29.575809783935537L226.74166666666667,29.442315216064458L226.85000000000002,29.127469024658193L226.95833333333334,29.127469024658193L227.06666666666666,29.127469024658193L227.175,29.2109065246582L227.39166666666668,29.2109065246582L227.5,29.2109065246582L227.93333333333334,28.91831848144531L228.25833333333333,28.77036087036133L228.36666666666665,28.977284240722653L228.6916666666667,28.977284240722653L228.8,29.24651412963867L228.90833333333333,29.24651412963867L229.01666666666668,29.24651412963867L229.125,29.075184783935537L229.34166666666667,29.075184783935537L229.45,29.075184783935537L229.55833333333334,28.874942932128903L229.66666666666666,28.874942932128903L229.775,28.874942932128903L230.20833333333331,28.6112809753418L230.31666666666666,28.6112809753418L230.42499999999998,28.238582611083984L230.75,28.05057662963867L230.96666666666667,28.05057662963867L231.07500000000002,28.05057662963867L231.18333333333334,27.959344024658208L231.4,27.959344024658208L231.50833333333333,27.959344024658208L231.61666666666667,27.910400543212887L231.83333333333334,27.910400543212887L231.94166666666666,27.850321197509775L232.26666666666665,27.850321197509775L232.48333333333332,27.740184783935547L232.70000000000002,27.740184783935547L232.80833333333334,27.633389129638672L233.025,27.633389129638672L233.35,27.53660217285156L233.56666666666666,27.53660217285156L233.675,27.371954345703134L233.78333333333333,27.371954345703134L234,27.529920654296873L234.21666666666667,27.529920654296873L234.325,27.529920654296873L234.4333333333333,27.566641845703135L234.86666666666667,27.360818481445303L234.97500000000002,27.360818481445303L235.19166666666666,27.360818481445303L235.40833333333333,27.069344024658207L235.95,26.79011901855469L236.38333333333333,26.67107391357422L236.49166666666665,26.476386413574218L236.6,26.476386413574218L236.70833333333334,26.476386413574218L238.00833333333333,25.695409240722654L238.225,25.842266845703122L238.33333333333331,25.842266845703122" style="fill: none;" fill="none"></path></g></g></g></g></g></g><g transform="translate(70, 178)" clip-path="url(#clip_1)"><clipPath id="clip_1"><rect width="260" height="22"></rect></clipPath><g><g><line x1="0" y1="0" x2="0" y2="5" style="visibility: inherit;" fill="rgb(0, 0, 0)" stroke="rgb(204, 204, 204)" stroke-width="1px"></line><line x1="21.666666666666664" y1="0" x2="21.666666666666664" y2="5" style="visibility: inherit;" fill="rgb(0, 0, 0)" stroke="rgb(204, 204, 204)" stroke-width="1px"></line><line x1="43.33333333333333" y1="0" x2="43.33333333333333" y2="5" style="visibility: inherit;" fill="rgb(0, 0, 0)" stroke="rgb(204, 204, 204)" stroke-width="1px"></line><line x1="65" y1="0" x2="65" y2="5" style="visibility: inherit;" fill="rgb(0, 0, 0)" stroke="rgb(204, 204, 204)" stroke-width="1px"></line><line x1="86.66666666666666" y1="0" x2="86.66666666666666" y2="5" style="visibility: inherit;" fill="rgb(0, 0, 0)" stroke="rgb(204, 204, 204)" stroke-width="1px"></line><line x1="108.33333333333334" y1="0" x2="108.33333333333334" y2="5" style="visibility: inherit;" fill="rgb(0, 0, 0)" stroke="rgb(204, 204, 204)" stroke-width="1px"></line><line x1="130" y1="0" x2="130" y2="5" style="visibility: inherit;" fill="rgb(0, 0, 0)" stroke="rgb(204, 204, 204)" stroke-width="1px"></line><line x1="151.66666666666669" y1="0" x2="151.66666666666669" y2="5" style="visibility: inherit;" fill="rgb(0, 0, 0)" stroke="rgb(204, 204, 204)" stroke-width="1px"></line><line x1="173.33333333333331" y1="0" x2="173.33333333333331" y2="5" style="visibility: inherit;" fill="rgb(0, 0, 0)" stroke="rgb(204, 204, 204)" stroke-width="1px"></line><line x1="195" y1="0" x2="195" y2="5" style="visibility: inherit;" fill="rgb(0, 0, 0)" stroke="rgb(204, 204, 204)" stroke-width="1px"></line><line x1="216.66666666666669" y1="0" x2="216.66666666666669" y2="5" style="visibility: inherit;" fill="rgb(0, 0, 0)" stroke="rgb(204, 204, 204)" stroke-width="1px"></line><line x1="238.33333333333331" y1="0" x2="238.33333333333331" y2="5" style="visibility: inherit;" fill="rgb(0, 0, 0)" stroke="rgb(204, 204, 204)" stroke-width="1px"></line><line x1="260" y1="0" x2="260" y2="5" style="visibility: inherit;" fill="rgb(0, 0, 0)" stroke="rgb(204, 204, 204)" stroke-width="1px"></line></g><g transform="translate(0, 8)"><text x="0" y="0" dx="0em" dy="0.95em" style="text-anchor: middle; visibility: hidden; font-family: Roboto, sans-serif; font-size: 12px; font-weight: 200;" fill="rgb(50, 49, 63)" stroke="none" stroke-width="1px">-100k</text><text x="21.666666666666664" y="0" dx="0em" dy="0.95em" style="text-anchor: middle; visibility: inherit; font-family: Roboto, sans-serif; font-size: 12px; font-weight: 200;" fill="rgb(50, 49, 63)" stroke="none" stroke-width="1px">0</text><text x="43.33333333333333" y="0" dx="0em" dy="0.95em" style="text-anchor: middle; visibility: hidden; font-family: Roboto, sans-serif; font-size: 12px; font-weight: 200;" fill="rgb(50, 49, 63)" stroke="none" stroke-width="1px">100k</text><text x="65" y="0" dx="0em" dy="0.95em" style="text-anchor: middle; visibility: inherit; font-family: Roboto, sans-serif; font-size: 12px; font-weight: 200;" fill="rgb(50, 49, 63)" stroke="none" stroke-width="1px">200k</text><text x="86.66666666666666" y="0" dx="0em" dy="0.95em" style="text-anchor: middle; visibility: hidden; font-family: Roboto, sans-serif; font-size: 12px; font-weight: 200;" fill="rgb(50, 49, 63)" stroke="none" stroke-width="1px">300k</text><text x="108.33333333333334" y="0" dx="0em" dy="0.95em" style="text-anchor: middle; visibility: inherit; font-family: Roboto, sans-serif; font-size: 12px; font-weight: 200;" fill="rgb(50, 49, 63)" stroke="none" stroke-width="1px">400k</text><text x="130" y="0" dx="0em" dy="0.95em" style="text-anchor: middle; visibility: hidden; font-family: Roboto, sans-serif; font-size: 12px; font-weight: 200;" fill="rgb(50, 49, 63)" stroke="none" stroke-width="1px">500k</text><text x="151.66666666666669" y="0" dx="0em" dy="0.95em" style="text-anchor: middle; visibility: inherit; font-family: Roboto, sans-serif; font-size: 12px; font-weight: 200;" fill="rgb(50, 49, 63)" stroke="none" stroke-width="1px">600k</text><text x="173.33333333333331" y="0" dx="0em" dy="0.95em" style="text-anchor: middle; visibility: hidden; font-family: Roboto, sans-serif; font-size: 12px; font-weight: 200;" fill="rgb(50, 49, 63)" stroke="none" stroke-width="1px">700k</text><text x="195" y="0" dx="0em" dy="0.95em" style="text-anchor: middle; visibility: inherit; font-family: Roboto, sans-serif; font-size: 12px; font-weight: 200;" fill="rgb(50, 49, 63)" stroke="none" stroke-width="1px">800k</text><text x="216.66666666666669" y="0" dx="0em" dy="0.95em" style="text-anchor: middle; visibility: hidden; font-family: Roboto, sans-serif; font-size: 12px; font-weight: 200;" fill="rgb(50, 49, 63)" stroke="none" stroke-width="1px">900k</text><text x="238.33333333333331" y="0" dx="0em" dy="0.95em" style="text-anchor: middle; visibility: inherit; font-family: Roboto, sans-serif; font-size: 12px; font-weight: 200;" fill="rgb(50, 49, 63)" stroke="none" stroke-width="1px">1M</text><text x="260" y="0" dx="0em" dy="0.95em" style="text-anchor: middle; visibility: hidden; font-family: Roboto, sans-serif; font-size: 12px; font-weight: 200;" fill="rgb(50, 49, 63)" stroke="none" stroke-width="1px">1.1M</text></g><line x1="0" y1="0" x2="260" y2="0" fill="rgb(0, 0, 0)" stroke="rgb(204, 204, 204)" stroke-width="1px"></line></g></g></g></g></svg>