<svg viewBox="0 0 330 200" xmlns="http://www.w3.org/2000/svg"><g><g><g><g><g><line x1="70" y1="178" x2="65" y2="178" style="visibility: inherit;" fill="rgb(0, 0, 0)" stroke="rgb(204, 204, 204)" stroke-width="1px"></line><line x1="70" y1="163.16666666666666" x2="65" y2="163.16666666666666" style="visibility: inherit;" fill="rgb(0, 0, 0)" stroke="rgb(204, 204, 204)" stroke-width="1px"></line><line x1="70" y1="148.33333333333334" x2="65" y2="148.33333333333334" style="visibility: inherit;" fill="rgb(0, 0, 0)" stroke="rgb(204, 204, 204)" stroke-width="1px"></line><line x1="70" y1="133.5" x2="65" y2="133.5" style="visibility: inherit;" fill="rgb(0, 0, 0)" stroke="rgb(204, 204, 204)" stroke-width="1px"></line><line x1="70" y1="118.66666666666669" x2="65" y2="118.66666666666669" style="visibility: inherit;" fill="rgb(0, 0, 0)" stroke="rgb(204, 204, 204)" stroke-width="1px"></line><line x1="70" y1="103.83333333333331" x2="65" y2="103.83333333333331" style="visibility: inherit;" fill="rgb(0, 0, 0)" stroke="rgb(204, 204, 204)" stroke-width="1px"></line><line x1="70" y1="89" x2="65" y2="89" style="visibility: inherit;" fill="rgb(0, 0, 0)" stroke="rgb(204, 204, 204)" stroke-width="1px"></line><line x1="70" y1="74.16666666666666" x2="65" y2="74.16666666666666" style="visibility: inherit;" fill="rgb(0, 0, 0)" stroke="rgb(204, 204, 204)" stroke-width="1px"></line><line x1="70" y1="59.33333333333334" x2="65" y2="59.33333333333334" style="visibility: inherit;" fill="rgb(0, 0, 0)" stroke="rgb(204, 204, 204)" stroke-width="1px"></line><line x1="70" y1="44.5" x2="65" y2="44.5" style="visibility: inherit;" fill="rgb(0, 0, 0)" stroke="rgb(204, 204, 204)" stroke-width="1px"></line><line x1="70" y1="29.66666666666666" x2="65" y2="29.66666666666666" style="visibility: inherit;" fill="rgb(0, 0, 0)" stroke="rgb(204, 204, 204)" stroke-width="1px"></line><line x1="70" y1="14.83333333333334" x2="65" y2="14.83333333333334" style="visibility: inherit;" fill="rgb(0, 0, 0)" stroke="rgb(204, 204, 204)" stroke-width="1px"></line><line x1="70" y1="0" x2="65" y2="0" style="visibility: inherit;" fill="rgb(0, 0, 0)" stroke="rgb(204, 204, 204)" stroke-width="1px"></line></g><g transform="translate(60, 0)"><text x="0" y="178" dx="0em" dy="0.3em" style="text-anchor: end; visibility: hidden; font-family: Roboto, sans-serif; font-size: 12px; font-weight: 200;" fill="rgb(50, 49, 63)" stroke="none" stroke-width="1px">-100</text><text x="0" y="163.16666666666666" dx="0em" dy="0.3em" style="text-anchor: end; visibility: inherit; font-family: Roboto, sans-serif; font-size: 12px; font-weight: 200;" fill="rgb(50, 49, 63)" stroke="none" stroke-width="1px">0</text><text x="0" y="148.33333333333334" dx="0em" dy="0.3em" style="text-anchor: end; visibility: hidden; font-family: Roboto, sans-serif; font-size: 12px; font-weight: 200;" fill="rgb(50, 49, 63)" stroke="none" stroke-width="1px">100</text><text x="0" y="133.5" dx="0em" dy="0.3em" style="text-anchor: end; visibility: inherit; font-family: Roboto, sans-serif; font-size: 12px; font-weight: 200;" fill="rgb(50, 49, 63)" stroke="none" stroke-width="1px">200</text><text x="0" y="118.66666666666669" dx="0em" dy="0.3em" style="text-anchor: end; visibility: hidden; font-family: Roboto, sans-serif; font-size: 12px; font-weight: 200;" fill="rgb(50, 49, 63)" stroke="none" stroke-width="1px">300</text><text x="0" y="103.83333333333331" dx="0em" dy="0.3em" style="text-anchor: end; visibility: inherit; font-family: Roboto, sans-serif; font-size: 12px; font-weight: 200;" fill="rgb(50, 49, 63)" stroke="none" stroke-width="1px">400</text><text x="0" y="89" dx="0em" dy="0.3em" style="text-anchor: end; visibility: hidden; font-family: Roboto, sans-serif; font-size: 12px; font-weight: 200;" fill="rgb(50, 49, 63)" stroke="none" stroke-width="1px">500</text><text x="0" y="74.16666666666666" dx="0em" dy="0.3em" style="text-anchor: end; visibility: inherit; font-family: Roboto, sans-serif; font-size: 12px; font-weight: 200;" fill="rgb(50, 49, 63)" stroke="none" stroke-width="1px">600</text><text x="0" y="59.33333333333334" dx="0em" dy="0.3em" style="text-anchor: end; visibility: hidden; font-family: Roboto, sans-serif; font-size: 12px; font-weight: 200;" fill="rgb(50, 49, 63)" stroke="none" stroke-width="1px">700</text><text x="0" y="44.5" dx="0em" dy="0.3em" style="text-anchor: end; visibility: inherit; font-family: Roboto, sans-serif; font-size: 12px; font-weight: 200;" fill="rgb(50, 49, 63)" stroke="none" stroke-width="1px">800</text><text x="0" y="29.66666666666666" dx="0em" dy="0.3em" style="text-anchor: end; visibility: hidden; font-family: Roboto, sans-serif; font-size: 12px; font-weight: 200;" fill="rgb(50, 49, 63)" stroke="none" stroke-width="1px">900</text><text x="0" y="14.83333333333334" dx="0em" dy="0.3em" style="text-anchor: end; visibility: inherit; font-family: Roboto, sans-serif; font-size: 12px; font-weight: 200;" fill="rgb(50, 49, 63)" stroke="none" stroke-width="1px">1e+3</text><text x="0" y="0" dx="0em" dy="0.3em" style="text-anchor: end; visibility: hidden; font-family: Roboto, sans-serif; font-size: 12px; font-weight: 200;" fill="rgb(50, 49, 63)" stroke="none" stroke-width="1px">1.1e+3</text></g><line x1="70" y1="0" x2="70" y2="178" fill="rgb(0, 0, 0)" stroke="rgb(204, 204, 204)" stroke-width="1px"></line></g></g><g transform="translate(70, 0)" clip-path="url(#clip_0)"><clipPath id="clip_0"><rect width="260" height="178"></rect></clipPath><g><g><g><line x1="0" y1="0" x2="0" y2="178" fill="rgb(0, 0, 0)" stroke="rgb(60, 60, 60)" stroke-width="1px" opacity="0.25"></line><line x1="21.666666666666664" y1="0" x2="21.666666666666664" y2="178" fill="rgb(0, 0, 0)" stroke="rgb(60, 60, 60)" stroke-width="1px" opacity="0.25"></line><line x1="43.33333333333333" y1="0" x2="43.33333333333333" y2="178" fill="rgb(0, 0, 0)" stroke="rgb(60, 60, 60)" stroke-width="1px" opacity="0.25"></line><line x1="65" y1="0" x2="65" y2="178" fill="rgb(0, 0, 0)" stroke="rgb(60, 60, 60)" stroke-width="1px" opacity="0.25"></line><line x1="86.66666666666666" y1="0" x2="86.66666666666666" y2="178" fill="rgb(0, 0, 0)" stroke="rgb(60, 60, 60)" stroke-width="1px" opacity="0.25"></line><line x1="108.33333333333334" y1="0" x2="108.33333333333334" y2="178" fill="rgb(0, 0, 0)" stroke="rgb(60, 60, 60)" stroke-width="1px" opacity="0.25"></line><line x1="130" y1="0" x2="130" y2="178" fill="rgb(0, 0, 0)" stroke="rgb(60, 60, 60)" stroke-width="1px" opacity="0.25"></line><line x1="151.66666666666669" y1="0" x2="151.66666666666669" y2="178" fill="rgb(0, 0, 0)" stroke="rgb(60, 60, 60)" stroke-width="1px" opacity="0.25"></line><line x1="173.33333333333331" y1="0" x2="173.33333333333331" y2="178" fill="rgb(0, 0, 0)" stroke="rgb(60, 60, 60)" stroke-width="1px" opacity="0.25"></line><line x1="195" y1="0" x2="195" y2="178" fill="rgb(0, 0, 0)" stroke="rgb(60, 60, 60)" stroke-width="1px" opacity="0.25"></line><line x1="216.66666666666669" y1="0" x2="216.66666666666669" y2="178" fill="rgb(0, 0, 0)" stroke="rgb(60, 60, 60)" stroke-width="1px" opacity="0.25"></line><line x1="238.33333333333331" y1="0" x2="238.33333333333331" y2="178" fill="rgb(0, 0, 0)" stroke="rgb(60, 60, 60)" stroke-width="1px" opacity="0.25"></line><line x1="260" y1="0" x2="260" y2="178" fill="rgb(0, 0, 0)" stroke="rgb(60, 60, 60)" stroke-width="1px" opacity="0.25"></line></g><g><line x1="0" y1="178" x2="260" y2="178" fill="rgb(0, 0, 0)" stroke="rgb(60, 60, 60)" stroke-width="1px" opacity="0.25"></line><line x1="0" y1="163.16666666666666" x2="260" y2="163.16666666666666" fill="rgb(0, 0, 0)" stroke="rgb(60, 60, 60)" stroke-width="1px" opacity="0.25"></line><line x1="0" y1="148.33333333333334" x2="260" y2="148.33333333333334" fill="rgb(0, 0, 0)" stroke="rgb(60, 60, 60)" stroke-width="1px" opacity="0.25"></line><line x1="0" y1="133.5" x2="260" y2="133.5" fill="rgb(0, 0, 0)" stroke="rgb(60, 60, 60)" stroke-width="1px" opacity="0.25"></line><line x1="0" y1="118.66666666666669" x2="260" y2="118.66666666666669" fill="rgb(0, 0, 0)" stroke="rgb(60, 60, 60)" stroke-width="1px" opacity="0.25"></line><line x1="0" y1="103.83333333333331" x2="260" y2="103.83333333333331" fill="rgb(0, 0, 0)" stroke="rgb(60, 60, 60)" stroke-width="1px" opacity="0.25"></line><line x1="0" y1="89" x2="260" y2="89" fill="rgb(0, 0, 0)" stroke="rgb(60, 60, 60)" stroke-width="1px" opacity="0.25"></line><line x1="0" y1="74.16666666666666" x2="260" y2="74.16666666666666" fill="rgb(0, 0, 0)" stroke="rgb(60, 60, 60)" stroke-width="1px" opacity="0.25"></line><line x1="0" y1="59.33333333333334" x2="260" y2="59.33333333333334" fill="rgb(0, 0, 0)" stroke="rgb(60, 60, 60)" stroke-width="1px" opacity="0.25"></line><line x1="0" y1="44.5" x2="260" y2="44.5" fill="rgb(0, 0, 0)" stroke="rgb(60, 60, 60)" stroke-width="1px" opacity="0.25"></line><line x1="0" y1="29.66666666666666" x2="260" y2="29.66666666666666" fill="rgb(0, 0, 0)" stroke="rgb(60, 60, 60)" stroke-width="1px" opacity="0.25"></line><line x1="0" y1="14.83333333333334" x2="260" y2="14.83333333333334" fill="rgb(0, 0, 0)" stroke="rgb(60, 60, 60)" stroke-width="1px" opacity="0.25"></line><line x1="0" y1="0" x2="260" y2="0" fill="rgb(0, 0, 0)" stroke="rgb(60, 60, 60)" stroke-width="1px" opacity="0.25"></line></g></g></g><g><g><line x1="0" y1="163.16666666666666" x2="260" y2="163.16666666666666" fill="rgb(0, 0, 0)" stroke="rgb(153, 153, 153)" stroke-width="1.5px"></line></g></g><g><g><line x1="21.666666666666664" y1="0" x2="21.666666666666664" y2="178" fill="rgb(0, 0, 0)" stroke="rgb(153, 153, 153)" stroke-width="1.5px"></line></g></g><g><g><g><g><g><path stroke="rgb(255, 112, 67)" stroke-width="2px" d="M29.791666666666664,204.15471647620393L31.416666666666668,176.45004447042066L33.041666666666664,152.50316738384154L34.666666666666664,134.5154835889214L36.291666666666664,118.76680896475423L37.91666666666667,108.42472322655881L39.541666666666664,99.33630465823717L41.166666666666664,93.23484332339055L42.791666666666664,87.0987137637665L44.416666666666664,79.28223563093907L46.04166666666667,73.90542098775911L47.666666666666664,69.54231956535298L49.291666666666664,66.30268806369261L50.916666666666664,63.08723419352651L52.541666666666664,60.100412987167985L54.16666666666667,57.018617498159806L55.791666666666664,53.54782914228409L57.416666666666664,51.07119369606647L59.041666666666664,49.11072584102699L60.666666666666664,46.74467917619732L62.29166666666667,44.74975443011853L63.916666666666664,43.098281725726075L65.54166666666667,35.81272215816267L67.16666666666667,31.61048984519039L68.79166666666667,28.065651731854853L70.41666666666666,24.422189509354563L72.04166666666667,21.249398937429284L73.66666666666667,18.038613309395977L75.29166666666667,16.18274891101381L76.91666666666667,13.613191590695791L78.54166666666666,11.99135144997437L80.16666666666667,11.21405028254017L81.79166666666667,10.874643790470477L83.41666666666667,10.549957578415206L85.04166666666667,10.314209328424992L86.66666666666666,10.107495160580742L88.29166666666667,15.187591013183367L89.91666666666667,23.456981857983223L91.54166666666667,28.36818085611683L93.16666666666667,32.4279941670427L94.79166666666666,37.54753128265882L96.41666666666667,41.97145891472795L98.04166666666667,44.580721581030765L99.66666666666667,46.21688599227498L101.29166666666667,47.20748608756584L102.91666666666666,48.8977310731261L104.54166666666667,49.99435226692785L106.16666666666667,50.7039446934921L107.79166666666667,51.09943957000219L109.41666666666667,51.35809562676723L111.04166666666666,53.90027172339267L112.66666666666667,56.907128976419536L114.29166666666667,60.202884197375894L115.91666666666667,62.0213244311862L117.54166666666667,62.77359393442793L119.16666666666666,65.82494273761003L120.79166666666667,70.04985057095155L122.41666666666667,72.64412860428975L124.04166666666667,74.023289337053L125.66666666666667,68.29089258823437L127.29166666666666,65.0454756977974L128.91666666666666,61.821964984108114L130.54166666666666,65.07655928017842L132.16666666666666,64.50052948086744L133.79166666666666,64.21661696423661L135.41666666666669,65.18547017854195L137.04166666666666,65.59115413674758L138.66666666666666,65.68741900385844L140.29166666666666,65.74517792412495L141.91666666666666,64.72191892895415L143.54166666666669,64.0035362857579L145.16666666666666,63.46926727926723L146.79166666666666,63.108953556036894L148.41666666666666,62.67026532209869L150.04166666666666,62.41654412164464L151.66666666666669,62.44528096517427L153.29166666666666,62.60432698568008L154.91666666666666,64.00212198893409L156.54166666666666,65.78953841145942L158.16666666666666,69.32610333658918L159.79166666666669,74.09668316080769L161.41666666666666,75.55520236067731L163.04166666666666,76.76614257526055L164.66666666666666,77.56865148753914L166.29166666666666,76.78516973366933L167.91666666666669,76.34771691181618L169.54166666666666,80.0154846392772L171.16666666666666,83.37077143542179L172.79166666666666,84.04953561515933L174.41666666666666,83.20070847033257L176.04166666666669,83.8899462410537L177.66666666666666,88.15006810677416L179.29166666666666,97.13609426982623L180.91666666666666,105.09091069194129L182.54166666666666,112.26620663244994L184.16666666666669,116.65029673337621L185.79166666666666,119.28253072150358L187.41666666666666,120.51299263537611L189.04166666666666,121.317128914559L190.66666666666666,121.78893111663903L192.29166666666669,120.73167265517225L193.91666666666666,119.15747779557728L195.54166666666666,116.91296732920182L197.16666666666666,114.44189365842607L198.79166666666666,111.62128351357778L200.41666666666669,114.43647083243052L202.04166666666666,114.96324163031768L203.66666666666666,114.04932526790415L205.29166666666666,113.59234929078806L206.91666666666666,111.89119595142596L208.54166666666669,111.00875162847277L210.16666666666666,110.47928503470084L211.79166666666666,107.7936115278192L213.41666666666666,106.14364111916547L215.04166666666666,102.44983843940294L216.66666666666669,93.62619770068603L218.29166666666666,87.10915050517724L219.91666666666666,81.93512291215582L221.54166666666666,78.88529200901223L223.16666666666666,77.22449563997766L224.79166666666669,75.15171028274962L226.41666666666666,72.58075269145967L228.04166666666666,69.84913944039664L229.66666666666666,67.01163743214163L231.29166666666666,65.18690970537875L232.91666666666669,64.18878669236787L234.54166666666666,65.44704549361083L236.16666666666666,64.94176135378369L237.79166666666666,61.01095000074677" style="fill: none;" fill="none"></path></g><g><path stroke="rgb(187, 187, 187)" stroke-width="2px" d="M28.166666666666668,203.86468511188733L29.791666666666664,174.60556611672834L31.416666666666668,166.17249619241176L33.041666666666664,152.82242429043842L34.666666666666664,142.17779803236598L36.291666666666664,135.59716306056967L37.91666666666667,126.8665722745329L39.541666666666664,120.99780266266606L41.166666666666664,115.7755307673294L42.791666666666664,108.5381394031796L44.416666666666664,103.07116579826567L46.04166666666667,96.08483359646347L47.666666666666664,92.29456566353738L49.291666666666664,92.84167823810105L50.916666666666664,93.30933436556828L52.541666666666664,91.1363144363514L54.16666666666667,91.31300874508162L55.791666666666664,90.22105477109864L57.416666666666664,92.19202619587142L59.041666666666664,95.8369452268339L60.666666666666664,96.7161648527967L62.29166666666667,97.31964077223421L63.916666666666664,96.29925692522606L65.54166666666667,92.06116488910385L67.16666666666667,86.85661472338072L68.79166666666667,82.41312560337137L70.41666666666666,79.51622921378208L72.04166666666667,76.54692495992863L73.66666666666667,77.3522747503387L75.29166666666667,75.1447192369756L76.91666666666667,75.12611327993355L78.54166666666666,75.08171956224905L80.16666666666667,73.82688621659405L81.79166666666667,71.86477258695419L83.41666666666667,70.68987644657291L85.04166666666667,72.45320761015357L86.66666666666666,70.89697615906393L88.29166666666667,66.18489105461477L89.91666666666667,62.07485361679357L91.54166666666667,59.68715158995963L93.16666666666667,56.99488486626977L94.79166666666666,57.94094381862324L96.41666666666667,55.92105339228493L98.04166666666667,58.52128580337192L99.66666666666667,60.09032307711044L101.29166666666667,64.71575370147181L102.91666666666666,64.97587120688779L104.54166666666667,63.874074319179414L106.16666666666667,65.73941053389588L107.79166666666667,70.61738110224707L109.41666666666667,73.53822793706746L111.04166666666666,73.91598371862091L112.66666666666667,76.67794936203296L114.29166666666667,75.79329077607376L115.91666666666667,73.94232895783152L117.54166666666667,72.90532462079257L119.16666666666666,70.9534599905744L120.79166666666667,69.67494802396702L122.41666666666667,70.23394301685417L124.04166666666667,68.07793392534687L125.66666666666667,69.20987542682272L127.29166666666666,64.79289945856756L128.91666666666666,59.59315866114311L130.54166666666666,57.717536065826486L132.16666666666666,54.065154248545355L133.79166666666666,51.906357767226176L135.41666666666669,50.67931466033569L137.04166666666666,48.67098198467799L138.66666666666666,46.24490136528595L140.29166666666666,47.3168551665023L141.91666666666666,49.213741070278985L143.54166666666669,50.50850986026636L145.16666666666666,51.298426350730125L146.79166666666666,56.774175520724526L148.41666666666666,58.821932558528474L150.04166666666666,60.115258086549375L151.66666666666669,59.58770180830984L153.29166666666666,59.23675369403538L154.91666666666666,57.808073375275384L156.54166666666666,56.97875011240481L158.16666666666666,56.47284861887517L159.79166666666669,53.56101670713241L161.41666666666666,50.39644335761278L163.04166666666666,49.563917609619764L164.66666666666666,50.37804302996457L166.29166666666666,48.44394088959331L167.91666666666669,44.72205699794872L169.54166666666666,42.635481879433286L171.16666666666666,42.52688767909228L172.79166666666666,42.51453869469494L174.41666666666666,42.54273147690811L176.04166666666669,40.05755787214747L177.66666666666666,37.472346897767636L179.29166666666666,33.46600669009287L180.91666666666666,27.33547604367812L182.54166666666666,27.383884177639167L184.16666666666669,28.60612514362775L185.79166666666666,28.142713782465716L187.41666666666666,27.670055515573193L189.04166666666666,27.30814012086736L190.66666666666666,29.69750378280686L192.29166666666669,31.086028067210176L193.91666666666666,31.866929014805272L195.54166666666666,32.28503769859671L197.16666666666666,38.75403551792105L198.79166666666666,42.69417363008858L200.41666666666669,46.33095722167294L202.04166666666666,52.31985607128502L203.66666666666666,55.90607204934653L205.29166666666666,55.51596366417822L206.91666666666666,56.483398633077265L208.54166666666669,57.266778600419286L210.16666666666666,58.99348614625418L211.79166666666666,57.57548487622907L213.41666666666666,56.83979092573744L215.04166666666666,56.53484049782527L216.66666666666669,51.332271689645694L218.29166666666666,49.34577736111814L219.91666666666666,49.35953453190524L221.54166666666666,48.0737289792343L223.16666666666666,47.241130576017135L224.79166666666669,45.46056327399569L226.41666666666666,43.086299268108355L228.04166666666666,44.134753763338956L229.66666666666666,44.540732547716914L231.29166666666666,44.78016605044005L232.91666666666669,44.79447991997756L234.54166666666666,44.73305534293705L236.16666666666666,47.10928624938202L237.79166666666666,54.83325957515004" style="fill: none;" fill="none"></path></g></g></g></g><g opacity="0.2"><g><g><g><path stroke="rgb(255, 112, 67)" stroke-width="2px" d="M28.166666666666668,196.98666666666668L29.791666666666664,142.42118982950848L31.416666666666668,138.12450940450032L33.041666666666664,118.25874999999999L34.666666666666664,108.28926793416342L36.291666666666664,95.54057291666666L37.91666666666667,93.0679312133789L39.541666666666664,85.78610809326172L41.166666666666664,84.11585520426432L42.791666666666664,77.91455495198568L44.416666666666664,67.57283172607421L46.04166666666667,65.84651926676432L47.666666666666664,63.00074462890625L49.291666666666664,61.44461171468098L50.916666666666664,58.264869791666655L52.541666666666664,55.620636189778644L54.16666666666667,52.39620595296225L55.791666666666664,48.341836954752594L57.416666666666664,47.356322021484374L59.041666666666664,46.17006276448567L60.666666666666664,43.195637207031254L62.29166666666667,41.75738149007162L63.916666666666664,40.621079711914064L65.54166666666667,24.88440144856771L67.16666666666667,25.30714782714844L68.79166666666667,22.748397827148438L70.41666666666666,18.95699818929037L72.04166666666667,16.49021413167318L73.66666666666667,13.222435506184887L75.29166666666667,13.398952534993494L76.91666666666667,9.75885579427084L78.54166666666666,9.558591308593748L80.16666666666667,10.048098551432295L81.79166666666667,10.36553405761718L83.41666666666667,10.062928263346356L85.04166666666667,9.960586954752605L86.66666666666666,9.797423909505207L88.29166666666667,22.807734781901036L89.91666666666667,35.861068115234374L91.54166666666667,35.73497934977214L93.16666666666667,38.51771413167319L94.79166666666666,45.226836954752606L96.41666666666667,48.60735036214192L98.04166666666667,48.494615580240875L99.66666666666667,48.67113260904949L101.29166666666667,48.69338623046875L102.91666666666666,51.43309855143228L104.54166666666667,51.63928405761719L106.16666666666667,51.768333333333345L107.79166666666667,51.69268188476562L109.41666666666667,51.746079711914064L111.04166666666666,57.713535868326815L112.66666666666667,61.417414855957034L114.29166666666667,65.14651702880859L115.91666666666667,64.74898478190106L117.54166666666667,63.90199818929036L119.16666666666666,70.40196594238282L120.79166666666667,76.38721232096354L122.41666666666667,76.53554565429687L124.04166666666667,76.09203043619792L125.66666666666667,59.69229746500651L127.29166666666666,60.17735036214194L128.91666666666666,56.986698913574216L130.54166666666666,69.95845072428385L132.16666666666666,63.63648478190103L133.79166666666666,63.79074818929036L135.41666666666669,66.63875L137.04166666666666,66.19968007405599L138.66666666666666,65.83181630452475L140.29166666666666,65.83181630452475L141.91666666666666,63.18703043619792L143.54166666666669,62.92596232096354L145.16666666666666,62.66786376953125L146.79166666666666,62.5684829711914L148.41666666666666,62.01223297119141L150.04166666666666,62.03596232096354L151.66666666666669,62.48838623046875L153.29166666666666,62.84289601643879L154.91666666666666,66.0988144938151L156.54166666666666,68.4706630452474L158.16666666666666,74.63095072428385L159.79166666666669,81.25255289713542L161.41666666666666,77.74298116048178L163.04166666666666,78.58255289713541L164.66666666666666,78.77241485595704L166.29166666666666,75.6099471028646L167.91666666666669,75.69153767903646L169.54166666666666,85.51713623046875L171.16666666666666,88.40370162963868L172.79166666666666,85.06768188476562L174.41666666666666,81.92746775309244L176.04166666666669,84.92380289713542L177.66666666666666,94.54025090535482L179.29166666666666,110.6151335144043L180.91666666666666,117.02313532511393L182.54166666666666,123.0291505432129L184.16666666666669,123.22643188476562L185.79166666666666,123.23088170369466L187.41666666666666,122.3586855061849L189.04166666666666,122.52333333333334L190.66666666666666,122.49663441975912L192.29166666666669,119.14578496297199L193.91666666666666,116.7961855061849L195.54166666666666,113.54620162963867L197.16666666666666,110.73528315226237L198.79166666666666,107.39036829630535L200.41666666666669,118.65925181070963L202.04166666666666,115.75339782714843L203.66666666666666,112.67845072428385L205.29166666666666,112.90688532511392L206.91666666666666,109.33946594238282L208.54166666666669,109.68508514404297L210.16666666666666,109.68508514404297L211.79166666666666,103.76510126749676L213.41666666666666,103.6686855061849L215.04166666666666,96.90913441975913L216.66666666666669,80.39073659261068L218.29166666666666,77.33357971191407L219.91666666666666,74.1740815226237L221.54166666666666,74.31054565429687L223.16666666666666,74.73330108642578L224.79166666666669,72.04253224690756L226.41666666666666,68.72431630452475L228.04166666666666,65.75171956380208L229.66666666666666,62.755384419759125L231.29166666666666,62.44981811523438L232.91666666666669,62.69160217285156L234.54166666666666,67.33443369547525L236.16666666666666,64.18383514404297L237.79166666666666,55.1147329711914" style="fill: none;" fill="none"></path></g><g><path stroke="rgb(187, 187, 187)" stroke-width="2px" d="M24.916666666666668,268.58222524007164L26.541666666666668,161.93364583333334L28.166666666666668,180.032716217041L29.791666666666664,136.40486035664875L31.416666666666668,154.50652458190916L33.041666666666664,133.73160786946613L34.666666666666664,126.65783075968424L36.291666666666664,125.89200469970703L37.91666666666667,113.90266245524087L39.541666666666664,112.24787755330404L41.166666666666664,107.97054229736328L42.791666666666664,97.70568369547526L44.416666666666664,94.88141576131186L46.04166666666667,85.6135474650065L47.666666666666664,86.6118369547526L49.291666666666664,93.66211558024088L50.916666666666664,94.01069981892904L52.541666666666664,87.87711558024088L54.16666666666667,91.57803405761719L55.791666666666664,88.58318369547526L57.416666666666664,95.14841847737628L59.041666666666664,101.30425181070963L60.666666666666664,98.03498387654624L62.29166666666667,98.22485036214194L63.916666666666664,94.76868550618488L65.54166666666667,85.70403767903646L67.16666666666667,79.0497974650065L68.79166666666667,75.7478960164388L70.41666666666666,75.17088623046875L72.04166666666667,72.09296956380209L73.66666666666667,78.56029927571615L75.29166666666667,71.83338623046875L76.91666666666667,75.09820434570312L78.54166666666666,75.01512898763022L80.16666666666667,71.94463623046875L81.79166666666667,68.92160217285156L83.41666666666667,68.92753224690756L85.04166666666667,75.09820434570312L86.66666666666666,68.56262898763022L88.29166666666667,59.116763407389314L89.91666666666667,55.90979746500651L91.54166666666667,56.10559855143228L93.16666666666667,52.95648478190105L94.79166666666666,59.360032246907544L96.41666666666667,52.891217753092455L98.04166666666667,62.42163441975911L99.66666666666667,62.44387898763021L101.29166666666667,71.65389963785809L102.91666666666666,65.3660474650065L104.54166666666667,62.22137898763022L106.16666666666667,68.53741485595702L107.79166666666667,77.9343369547526L109.41666666666667,77.91949818929037L111.04166666666666,74.48261739095052L112.66666666666667,80.82089782714844L114.29166666666667,74.4663028971354L115.91666666666667,71.16588623046874L117.54166666666667,71.34981811523437L119.16666666666666,68.0256630452474L120.79166666666667,67.757180074056L122.41666666666667,71.0724355061849L124.04166666666667,64.84392028808594L125.66666666666667,70.90778767903646L127.29166666666666,58.167435506184894L128.91666666666666,51.79354746500652L130.54166666666666,54.904102172851566L132.16666666666666,48.58658152262369L133.79166666666666,48.66816304524739L135.41666666666669,48.838750000000005L137.04166666666666,45.658482971191404L138.66666666666666,42.605780436197925L140.29166666666666,48.92478586832683L141.91666666666666,52.059069925944L143.54166666666669,52.45066304524739L145.16666666666666,52.48330108642578L146.79166666666666,64.98779927571616L148.41666666666666,61.89356811523437L150.04166666666666,62.05524637858072L151.66666666666669,58.796367390950515L153.29166666666666,58.71033152262369L154.91666666666666,55.66505289713542L156.54166666666666,55.73476521809895L158.16666666666666,55.71399637858074L159.79166666666669,49.19326883951823L161.41666666666666,45.64958333333333L163.04166666666666,48.31512898763022L164.66666666666666,51.59923116048178L166.29166666666666,45.54278767903646L167.91666666666669,39.13923116048176L169.54166666666666,39.50561920166015L171.16666666666666,42.36399637858073L172.79166666666666,42.496015218098954L174.41666666666666,42.585020650227875L176.04166666666669,36.329797465006514L177.66666666666666,33.59453043619792L179.29166666666666,27.456496378580727L180.91666666666666,18.13968007405598L182.54166666666666,27.456496378580727L184.16666666666669,30.43948659261067L185.79166666666666,27.44759674072266L187.41666666666666,26.961068115234365L189.04166666666666,26.765267028808594L190.66666666666666,33.28154927571614L192.29166666666669,33.16881449381511L193.91666666666666,33.03828043619791L195.54166666666666,32.912200724283856L197.16666666666666,48.45753224690756L198.79166666666666,48.60438079833985L200.41666666666669,51.78613260904948L202.04166666666666,61.30320434570312L203.66666666666666,61.28539601643881L205.29166666666666,54.93080108642579L206.91666666666666,57.934551086425785L208.54166666666669,58.441848551432294L210.16666666666666,61.58354746500651L211.79166666666666,55.44848297119141L213.41666666666666,55.73625L215.04166666666666,56.07741485595703L216.66666666666669,43.5284184773763L218.29166666666666,46.366035868326826L219.91666666666666,49.380170288085935L221.54166666666666,46.145020650227856L223.16666666666666,45.99223297119141L224.79166666666669,42.78971232096353L226.41666666666666,39.52490325927734L228.04166666666666,45.70743550618491L229.66666666666666,45.149700724283846L231.29166666666666,45.13931630452473L232.91666666666669,44.81595072428386L234.54166666666666,44.640918477376296L236.16666666666666,50.673632609049484L237.79166666666666,66.41921956380209" style="fill: none;" fill="none"></path></g></g></g></g></g></g><g transform="translate(70, 178)" clip-path="url(#clip_1)"><clipPath id="clip_1"><rect width="260" height="22"></rect></clipPath><g><g><line x1="0" y1="0" x2="0" y2="5" style="visibility: inherit;" fill="rgb(0, 0, 0)" stroke="rgb(204, 204, 204)" stroke-width="1px"></line><line x1="21.666666666666664" y1="0" x2="21.666666666666664" y2="5" style="visibility: inherit;" fill="rgb(0, 0, 0)" stroke="rgb(204, 204, 204)" stroke-width="1px"></line><line x1="43.33333333333333" y1="0" x2="43.33333333333333" y2="5" style="visibility: inherit;" fill="rgb(0, 0, 0)" stroke="rgb(204, 204, 204)" stroke-width="1px"></line><line x1="65" y1="0" x2="65" y2="5" style="visibility: inherit;" fill="rgb(0, 0, 0)" stroke="rgb(204, 204, 204)" stroke-width="1px"></line><line x1="86.66666666666666" y1="0" x2="86.66666666666666" y2="5" style="visibility: inherit;" fill="rgb(0, 0, 0)" stroke="rgb(204, 204, 204)" stroke-width="1px"></line><line x1="108.33333333333334" y1="0" x2="108.33333333333334" y2="5" style="visibility: inherit;" fill="rgb(0, 0, 0)" stroke="rgb(204, 204, 204)" stroke-width="1px"></line><line x1="130" y1="0" x2="130" y2="5" style="visibility: inherit;" fill="rgb(0, 0, 0)" stroke="rgb(204, 204, 204)" stroke-width="1px"></line><line x1="151.66666666666669" y1="0" x2="151.66666666666669" y2="5" style="visibility: inherit;" fill="rgb(0, 0, 0)" stroke="rgb(204, 204, 204)" stroke-width="1px"></line><line x1="173.33333333333331" y1="0" x2="173.33333333333331" y2="5" style="visibility: inherit;" fill="rgb(0, 0, 0)" stroke="rgb(204, 204, 204)" stroke-width="1px"></line><line x1="195" y1="0" x2="195" y2="5" style="visibility: inherit;" fill="rgb(0, 0, 0)" stroke="rgb(204, 204, 204)" stroke-width="1px"></line><line x1="216.66666666666669" y1="0" x2="216.66666666666669" y2="5" style="visibility: inherit;" fill="rgb(0, 0, 0)" stroke="rgb(204, 204, 204)" stroke-width="1px"></line><line x1="238.33333333333331" y1="0" x2="238.33333333333331" y2="5" style="visibility: inherit;" fill="rgb(0, 0, 0)" stroke="rgb(204, 204, 204)" stroke-width="1px"></line><line x1="260" y1="0" x2="260" y2="5" style="visibility: inherit;" fill="rgb(0, 0, 0)" stroke="rgb(204, 204, 204)" stroke-width="1px"></line></g><g transform="translate(0, 8)"><text x="0" y="0" dx="0em" dy="0.95em" style="text-anchor: middle; visibility: hidden; font-family: Roboto, sans-serif; font-size: 12px; font-weight: 200;" fill="rgb(50, 49, 63)" stroke="none" stroke-width="1px">-200k</text><text x="21.666666666666664" y="0" dx="0em" dy="0.95em" style="text-anchor: middle; visibility: inherit; font-family: Roboto, sans-serif; font-size: 12px; font-weight: 200;" fill="rgb(50, 49, 63)" stroke="none" stroke-width="1px">0</text><text x="43.33333333333333" y="0" dx="0em" dy="0.95em" style="text-anchor: middle; visibility: hidden; font-family: Roboto, sans-serif; font-size: 12px; font-weight: 200;" fill="rgb(50, 49, 63)" stroke="none" stroke-width="1px">200k</text><text x="65" y="0" dx="0em" dy="0.95em" style="text-anchor: middle; visibility: inherit; font-family: Roboto, sans-serif; font-size: 12px; font-weight: 200;" fill="rgb(50, 49, 63)" stroke="none" stroke-width="1px">400k</text><text x="86.66666666666666" y="0" dx="0em" dy="0.95em" style="text-anchor: middle; visibility: hidden; font-family: Roboto, sans-serif; font-size: 12px; font-weight: 200;" fill="rgb(50, 49, 63)" stroke="none" stroke-width="1px">600k</text><text x="108.33333333333334" y="0" dx="0em" dy="0.95em" style="text-anchor: middle; visibility: inherit; font-family: Roboto, sans-serif; font-size: 12px; font-weight: 200;" fill="rgb(50, 49, 63)" stroke="none" stroke-width="1px">800k</text><text x="130" y="0" dx="0em" dy="0.95em" style="text-anchor: middle; visibility: hidden; font-family: Roboto, sans-serif; font-size: 12px; font-weight: 200;" fill="rgb(50, 49, 63)" stroke="none" stroke-width="1px">1M</text><text x="151.66666666666669" y="0" dx="0em" dy="0.95em" style="text-anchor: middle; visibility: inherit; font-family: Roboto, sans-serif; font-size: 12px; font-weight: 200;" fill="rgb(50, 49, 63)" stroke="none" stroke-width="1px">1.2M</text><text x="173.33333333333331" y="0" dx="0em" dy="0.95em" style="text-anchor: middle; visibility: hidden; font-family: Roboto, sans-serif; font-size: 12px; font-weight: 200;" fill="rgb(50, 49, 63)" stroke="none" stroke-width="1px">1.4M</text><text x="195" y="0" dx="0em" dy="0.95em" style="text-anchor: middle; visibility: inherit; font-family: Roboto, sans-serif; font-size: 12px; font-weight: 200;" fill="rgb(50, 49, 63)" stroke="none" stroke-width="1px">1.6M</text><text x="216.66666666666669" y="0" dx="0em" dy="0.95em" style="text-anchor: middle; visibility: hidden; font-family: Roboto, sans-serif; font-size: 12px; font-weight: 200;" fill="rgb(50, 49, 63)" stroke="none" stroke-width="1px">1.8M</text><text x="238.33333333333331" y="0" dx="0em" dy="0.95em" style="text-anchor: middle; visibility: inherit; font-family: Roboto, sans-serif; font-size: 12px; font-weight: 200;" fill="rgb(50, 49, 63)" stroke="none" stroke-width="1px">2M</text><text x="260" y="0" dx="0em" dy="0.95em" style="text-anchor: middle; visibility: hidden; font-family: Roboto, sans-serif; font-size: 12px; font-weight: 200;" fill="rgb(50, 49, 63)" stroke="none" stroke-width="1px">2.2M</text></g><line x1="0" y1="0" x2="260" y2="0" fill="rgb(0, 0, 0)" stroke="rgb(204, 204, 204)" stroke-width="1px"></line></g></g></g></g></svg>